<?xml version="1.0" encoding="UTF-8" standalone="no"?>
<!-- Created with Inkscape (http://www.inkscape.org/) -->

<svg
   width="30.027767mm"
   height="30.027763mm"
   viewBox="0 0 30.027767 30.027763"
   version="1.1"
   id="svg1"
   xml:space="preserve"
   sodipodi:docname="icons.svg"
   xmlns:inkscape="http://www.inkscape.org/namespaces/inkscape"
   xmlns:sodipodi="http://sodipodi.sourceforge.net/DTD/sodipodi-0.dtd"
   xmlns="http://www.w3.org/2000/svg"
   xmlns:svg="http://www.w3.org/2000/svg"><sodipodi:namedview
     id="namedview1"
     pagecolor="#ffffff"
     bordercolor="#000000"
     borderopacity="0.25"
     inkscape:showpageshadow="2"
     inkscape:pageopacity="0.0"
     inkscape:pagecheckerboard="0"
     inkscape:deskcolor="#d1d1d1"
     inkscape:document-units="mm" /><defs
     id="defs1" /><g
     inkscape:label="Layer 1"
     inkscape:groupmode="layer"
     id="layer1"
     transform="translate(-146.75828,-31.703607)"><rect
       style="opacity:1;fill:#ffffff;fill-opacity:1;stroke-width:2"
       id="rect1"
       width="30.027761"
       height="30.027761"
       x="146.75829"
       y="31.703608"
       ry="15.013881" /><path
       style="fill:#000000;stroke:#000000;stroke-width:0.446139;stroke-dasharray:none;stroke-opacity:1"
       d="m 152.3523,56.418198 c -0.052,-0.01008 -0.0946,-0.07659 -0.18121,-0.283322 -0.12071,-0.288115 -0.14691,-0.393422 -0.187,-0.751556 -0.0157,-0.140685 0.0123,-0.526951 0.0466,-0.642422 0.10969,-0.36876 0.2059,-0.591026 0.27117,-0.626472 0.0273,-0.01481 0.20847,-0.02172 0.6612,-0.02525 0.34299,-0.0027 0.67863,-0.01249 0.74586,-0.02187 0.0672,-0.0094 0.19617,-0.017 0.28657,-0.017 0.0916,0 0.24021,-0.01414 0.33576,-0.03199 0.0943,-0.01757 0.23132,-0.03663 0.30453,-0.04229 0.0732,-0.0057 0.19304,-0.02107 0.26624,-0.03427 0.0732,-0.01316 0.21925,-0.03605 0.32449,-0.05084 0.10526,-0.01477 0.19688,-0.0303 0.20362,-0.03445 0.006,-0.004 0.0554,-0.01446 0.10815,-0.02293 0.1671,-0.02672 0.7058,-0.152442 0.88131,-0.205644 0.0439,-0.01335 0.1473,-0.04399 0.22966,-0.06813 1.18377,-0.347034 2.28531,-0.885934 3.23655,-1.583387 0.57482,-0.421461 1.25063,-1.075896 1.70942,-1.655377 0.25981,-0.328157 0.25429,-0.319743 1.13372,-1.728787 0.80933,-1.29673 1.82803,-2.826072 2.17893,-3.271176 0.0211,-0.02673 0.081,-0.105016 0.13312,-0.174003 0.0522,-0.06899 0.11901,-0.155104 0.14856,-0.191366 0.0295,-0.03627 0.12269,-0.152039 0.20698,-0.257288 0.88735,-1.107986 1.99066,-2.021589 3.12587,-2.588373 0.16003,-0.07989 0.36581,-0.182551 0.45733,-0.228133 0.42554,-0.211942 0.76554,-0.532422 1.0194,-0.960849 0.0821,-0.13853 0.14219,-0.353636 0.16302,-0.58346 0.0146,-0.160285 -0.0261,-0.374721 -0.10226,-0.539506 -0.0588,-0.127123 -0.19973,-0.334248 -0.31251,-0.459081 -0.0379,-0.04185 -0.11743,-0.134611 -0.17692,-0.206126 -0.18428,-0.221558 -0.51388,-0.487023 -0.92353,-0.743848 -0.11359,-0.07121 -0.45827,-0.23238 -0.62401,-0.291779 -0.17865,-0.06402 -0.49923,-0.152061 -0.62401,-0.171371 -0.0457,-0.0071 -0.16932,-0.02645 -0.27457,-0.04306 -0.36602,-0.0577 -0.99565,-0.03752 -1.39778,0.04477 -0.25024,0.05123 -0.61315,0.163051 -0.84916,0.26167 -0.16522,0.06903 -0.47213,0.223623 -0.51535,0.259578 -0.0138,0.01143 -0.0849,0.05738 -0.15808,0.102129 -0.61312,0.374761 -1.18591,1.013302 -1.53642,1.712776 -0.18645,0.372081 -0.31474,0.744931 -0.38646,1.123222 -0.0113,0.05949 -0.0279,0.141858 -0.037,0.18304 -0.009,0.04118 -0.0198,0.284553 -0.024,0.54081 -0.007,0.469209 0.004,0.641052 0.0546,0.844246 0.0132,0.05249 0.0239,0.116139 0.0238,0.141445 -1.8e-4,0.05851 0.0435,0.243908 0.0941,0.399767 0.0279,0.08593 0.0392,0.159312 0.0392,0.254299 0,0.204304 -0.0506,0.29761 -0.20329,0.375372 -0.11308,0.05756 -0.30522,0.05717 -0.40417,-9e-4 -0.0849,-0.04972 -0.14035,-0.121278 -0.18777,-0.242105 -0.0471,-0.11982 -0.16237,-0.587735 -0.18664,-0.757139 -0.0105,-0.07321 -0.0271,-0.174306 -0.037,-0.224643 -0.0409,-0.208338 -0.0573,-0.816702 -0.0304,-1.114902 0.0319,-0.353145 0.17181,-1.051758 0.23363,-1.166777 0.008,-0.01482 0.0233,-0.05973 0.034,-0.09984 0.0729,-0.271318 0.43287,-0.992713 0.61363,-1.229429 0.0244,-0.03203 0.066,-0.09194 0.0924,-0.133119 0.16812,-0.26274 0.58452,-0.709168 0.89933,-0.964181 0.54051,-0.437837 1.07689,-0.725364 1.77219,-0.949981 0.10525,-0.03399 0.21757,-0.06705 0.2496,-0.07344 0.032,-0.0064 0.11815,-0.02555 0.19136,-0.04261 0.18449,-0.04297 0.43649,-0.08352 0.62402,-0.10048 0.19872,-0.01798 0.8353,-0.01825 0.99009,-4.45e-4 0.32549,0.03743 0.75489,0.125597 0.93186,0.191326 0.0366,0.01361 0.076,0.02508 0.0876,0.02548 0.0499,0.0018 0.51467,0.197126 0.73824,0.310299 0.80296,0.406423 1.52348,1.097197 2.01521,1.932008 0.1848,0.313716 0.37579,0.735678 0.46922,1.036567 0.0241,0.07779 0.0518,0.163908 0.0615,0.191363 0.01,0.02744 0.0307,0.106083 0.0467,0.174726 0.016,0.06864 0.0373,0.151008 0.0473,0.183041 0.0267,0.08528 0.0757,0.405857 0.0831,0.54314 0.004,0.09446 -8.1e-4,0.135785 -0.0293,0.201649 -0.0571,0.132798 -0.19194,0.23975 -0.33921,0.269093 -0.0378,0.0076 -0.12851,0.02864 -0.20174,0.04694 -0.0732,0.01829 -0.20425,0.05021 -0.29121,0.07092 -0.4113,0.09795 -0.97699,0.278029 -1.2813,0.407873 -0.0777,0.03319 -0.16785,0.07011 -0.20013,0.08201 -0.17983,0.06636 -0.82713,0.41651 -1.07285,0.580341 -0.0957,0.06383 -0.43558,0.307042 -0.55043,0.39391 -0.42435,0.320992 -1.25601,1.160776 -1.48313,1.497629 -0.0855,0.126816 -0.21538,0.402003 -0.24397,0.51691 -0.0336,0.134907 -0.0342,0.258279 -0.003,0.394672 0.0347,0.147436 0.0737,0.214731 0.18576,0.32163 0.11312,0.107851 0.15578,0.131674 0.30685,0.171389 0.20188,0.05307 0.85422,0.0098 1.20453,-0.07991 0.56365,-0.144338 0.98968,-0.335906 1.46571,-0.659075 0.35693,-0.242308 0.76296,-0.631752 1.06562,-1.022083 0.12902,-0.166395 0.22592,-0.274473 0.279,-0.311164 0.076,-0.05257 0.0901,-0.05622 0.21632,-0.05622 0.12121,0 0.14315,0.005 0.21466,0.04992 0.0537,0.03364 0.0957,0.07829 0.12897,0.137028 0.0435,0.07682 0.0493,0.10312 0.0493,0.222617 0,0.158706 -0.0203,0.201548 -0.22006,0.466425 -0.49962,0.662195 -1.08114,1.156705 -1.81424,1.542807 -0.13384,0.07049 -0.21716,0.108916 -0.45343,0.209119 -0.2152,0.09127 -0.59389,0.198709 -0.9485,0.269106 -0.0732,0.01455 -0.16681,0.03436 -0.208,0.04403 -0.0465,0.01093 -0.41149,0.019 -0.96514,0.02133 -0.85834,0.0036 -0.89407,0.005 -0.99642,0.03913 -0.0584,0.01945 -0.12876,0.03538 -0.15637,0.03538 -0.14493,0 -0.67058,0.214366 -0.88828,0.362247 -0.21581,0.1466 -0.47066,0.482267 -0.82059,1.080812 -0.39901,0.68249 -1.00257,1.600848 -1.28809,1.959887 -0.0509,0.06407 -0.13332,0.168899 -0.18306,0.232965 -0.0498,0.06407 -0.1398,0.172643 -0.20014,0.241286 -0.0603,0.06864 -0.15651,0.179731 -0.21371,0.246861 -0.13623,0.159901 -0.85195,0.879087 -0.985,0.989764 -0.057,0.04746 -0.17088,0.146187 -0.25299,0.219403 -0.38247,0.341051 -0.9425,0.763723 -1.4926,1.126491 -0.87629,0.577883 -2.15062,1.220114 -3.13095,1.577931 -0.12813,0.04676 -0.25544,0.09494 -0.28289,0.107047 -0.0584,0.02579 -0.65945,0.223332 -1.00673,0.330918 -0.2513,0.07785 -0.37797,0.113949 -0.53249,0.151754 -0.0503,0.01232 -0.15143,0.0373 -0.22465,0.05552 -0.15053,0.03748 -0.35825,0.08543 -0.59073,0.136442 -0.0869,0.0191 -0.24045,0.05277 -0.34113,0.07486 -0.18391,0.04037 -0.36742,0.05997 -0.43646,0.04661 z"
       id="path1"
       inkscape:export-filename="icon.png"
       inkscape:export-xdpi="96"
       inkscape:export-ydpi="96" /></g></svg>
