<?xml version="1.0" encoding="UTF-8" standalone="no"?>
<!-- Created with Inkscape (http://www.inkscape.org/) -->

<svg
   width="43.900173mm"
   height="43.505569mm"
   viewBox="0 0 43.900173 43.505569"
   version="1.1"
   id="svg1"
   xml:space="preserve"
   xmlns:inkscape="http://www.inkscape.org/namespaces/inkscape"
   xmlns:sodipodi="http://sodipodi.sourceforge.net/DTD/sodipodi-0.dtd"
   xmlns="http://www.w3.org/2000/svg"
   xmlns:svg="http://www.w3.org/2000/svg"><sodipodi:namedview
     id="namedview1"
     pagecolor="#ffffff"
     bordercolor="#000000"
     borderopacity="0.25"
     inkscape:showpageshadow="2"
     inkscape:pageopacity="0.0"
     inkscape:pagecheckerboard="0"
     inkscape:deskcolor="#d1d1d1"
     inkscape:document-units="mm"><inkscape:page
       x="-1.4474926e-20"
       y="0"
       width="43.900177"
       height="43.505569"
       id="page2"
       margin="0"
       bleed="0" /></sodipodi:namedview><defs
     id="defs1" /><g
     inkscape:label="Layer 1"
     inkscape:groupmode="layer"
     id="layer1"
     transform="translate(-85.921902,-24.964703)"><path
       style="fill:#000000;stroke:none;stroke-width:1;stroke-dasharray:none;stroke-opacity:1"
       d="m 86.757283,68.461114 c -0.11663,-0.0226 -0.21202,-0.17169 -0.40615,-0.63505 -0.27057,-0.6458 -0.3293,-0.88184 -0.41916,-1.68458 -0.0353,-0.31534 0.0276,-1.18114 0.10457,-1.43996 0.24587,-0.82656 0.46152,-1.32476 0.60782,-1.40421 0.0611,-0.0332 0.46728,-0.0487 1.48204,-0.0566 0.76882,-0.006 1.52114,-0.028 1.67181,-0.049 0.15067,-0.021 0.43973,-0.0381 0.64235,-0.0381 0.20535,0 0.53842,-0.0317 0.75259,-0.0717 0.21131,-0.0394 0.51848,-0.0821 0.68259,-0.0948 0.16412,-0.0127 0.43267,-0.0472 0.59678,-0.0768 0.16411,-0.0295 0.49141,-0.0808 0.72732,-0.11396 0.23591,-0.0331 0.44128,-0.0679 0.45637,-0.0772 0.0151,-0.009 0.12418,-0.0324 0.24244,-0.0514 0.37453,-0.0599 1.582,-0.34169 1.9754,-0.46094 0.0985,-0.0299 0.33019,-0.0986 0.51481,-0.15271 2.65334,-0.77786 5.122417,-1.98578 7.254577,-3.54909 1.28842,-0.944683 2.8032,-2.411573 3.83157,-3.710453 0.58236,-0.73555 0.56999,-0.71669 2.54118,-3.875 1.81406,-2.90656 4.09743,-6.33451 4.88399,-7.33219 0.0472,-0.0599 0.18148,-0.23539 0.29839,-0.39002 0.1169,-0.15464 0.26674,-0.34766 0.33297,-0.42894 0.0662,-0.0813 0.275,-0.34079 0.46393,-0.5767 1.98896,-2.4835 4.46201,-4.5313 7.00652,-5.80172 0.35866,-0.17907 0.81995,-0.40918 1.02509,-0.51135 0.9538,-0.47506 1.71591,-1.1934 2.28493,-2.1537 0.18399,-0.31051 0.3187,-0.79266 0.36538,-1.3078 0.0326,-0.35927 -0.0585,-0.83992 -0.2292,-1.20928 -0.13165,-0.28494 -0.44768,-0.7492 -0.70047,-1.02901 -0.0848,-0.0938 -0.2632,-0.30172 -0.39654,-0.46202 -0.4131,-0.49661 -1.15187,-1.09164 -2.07007,-1.6673 -0.2546,-0.15962 -1.02718,-0.52087 -1.39869,-0.65401 -0.40045,-0.14351 -1.119,-0.34084 -1.3987,-0.38412 -0.10257,-0.0159 -0.37951,-0.0593 -0.61542,-0.0965 -0.82042,-0.12934 -2.23173,-0.0841 -3.13308,0.10035 -0.56089,0.11481 -1.37434,0.36547 -1.90336,0.58652 -0.37032,0.15474 -1.05824,0.50124 -1.15512,0.58183 -0.0308,0.0256 -0.19022,0.12861 -0.35433,0.22892 -1.37428,0.84001 -2.65817,2.27127 -3.44381,3.83911 -0.41792,0.834 -0.70547,1.66973 -0.86625,2.51765 -0.0253,0.13334 -0.0625,0.31797 -0.0828,0.41028 -0.0203,0.0923 -0.0445,0.63781 -0.0539,1.2122 -0.0172,1.05171 0.008,1.43689 0.12228,1.89234 0.0296,0.11765 0.0537,0.26032 0.0535,0.31704 -4.2e-4,0.13113 0.0974,0.54671 0.2108,0.89606 0.0625,0.19262 0.0879,0.35709 0.0879,0.57 0,0.45794 -0.11326,0.66708 -0.45566,0.84138 -0.25346,0.12902 -0.68414,0.12814 -0.90594,-0.002 -0.19018,-0.11145 -0.31458,-0.27184 -0.42087,-0.54267 -0.10541,-0.26857 -0.36394,-1.31738 -0.41833,-1.69709 -0.0235,-0.16411 -0.0608,-0.3907 -0.0829,-0.50353 -0.0914,-0.46698 -0.12866,-1.8306 -0.0682,-2.499 0.0716,-0.79156 0.38511,-2.35747 0.52366,-2.61528 0.0178,-0.0332 0.0522,-0.13389 0.0763,-0.22379 0.16321,-0.60815 0.97027,-2.22512 1.37542,-2.75571 0.0548,-0.0718 0.14801,-0.20607 0.20707,-0.29838 0.37681,-0.58892 1.31015,-1.58957 2.01578,-2.16117 1.21153,-0.98139 2.41381,-1.62587 3.97229,-2.12934 0.23592,-0.0762 0.48768,-0.15029 0.55948,-0.16462 0.0718,-0.0143 0.26482,-0.0573 0.42893,-0.0955 0.41353,-0.0963 0.97836,-0.18721 1.3987,-0.22522 0.44543,-0.0403 1.87227,-0.0409 2.21926,-10e-4 0.72956,0.0839 1.69204,0.28152 2.08872,0.42885 0.0821,0.0305 0.17041,0.0562 0.19635,0.0571 0.11158,0.004 1.15359,0.44185 1.65475,0.69552 1.79977,0.91098 3.41479,2.45932 4.51699,4.33051 0.4142,0.70318 0.84233,1.64899 1.05173,2.32342 0.0541,0.17437 0.11612,0.36739 0.13775,0.42893 0.0216,0.0615 0.0687,0.23778 0.10464,0.39164 0.0359,0.15385 0.0837,0.33848 0.1062,0.41028 0.0599,0.19114 0.16977,0.90971 0.18621,1.21742 0.0113,0.21174 -0.002,0.30436 -0.0657,0.45199 -0.12805,0.29766 -0.43025,0.53739 -0.76032,0.60316 -0.0846,0.0169 -0.28809,0.0642 -0.4522,0.10523 -0.16412,0.041 -0.45784,0.11255 -0.65273,0.15897 -0.92192,0.21956 -2.18988,0.62319 -2.87199,0.91423 -0.17437,0.0744 -0.37623,0.15713 -0.44859,0.18383 -0.40306,0.14875 -1.85396,0.93359 -2.40474,1.30081 -0.2146,0.14308 -0.97635,0.68822 -1.23375,0.88293 -0.95116,0.71949 -2.81528,2.60183 -3.32437,3.35687 -0.19167,0.28425 -0.48278,0.90107 -0.54684,1.15863 -0.0752,0.30239 -0.0766,0.57892 -0.005,0.88464 0.0779,0.33047 0.16503,0.48131 0.41636,0.72092 0.25357,0.24174 0.34918,0.29514 0.68779,0.38416 0.45252,0.11896 1.91472,0.022 2.6999,-0.17912 1.2634,-0.32353 2.21831,-0.75292 3.28533,-1.47729 0.80003,-0.54312 1.71014,-1.41604 2.38853,-2.29095 0.2892,-0.37297 0.50641,-0.61522 0.62538,-0.69746 0.17042,-0.11783 0.20195,-0.12602 0.48488,-0.12602 0.27168,0 0.32085,0.0114 0.48115,0.1119 0.12038,0.0754 0.21454,0.17549 0.28906,0.30714 0.0975,0.17219 0.11052,0.23114 0.11052,0.49899 0,0.35573 -0.0453,0.45176 -0.49326,1.04547 -1.11988,1.48428 -2.42331,2.5927 -4.06653,3.45813 -0.3,0.158 -0.48674,0.24413 -1.01634,0.46873 -0.48237,0.20458 -1.33117,0.4454 -2.12602,0.60319 -0.16411,0.0326 -0.37391,0.077 -0.46623,0.0987 -0.10438,0.0245 -0.92233,0.0426 -2.16331,0.0478 -1.92392,0.008 -2.00401,0.0112 -2.23345,0.0877 -0.13088,0.0436 -0.2886,0.0793 -0.35048,0.0793 -0.32486,0 -1.50309,0.48049 -1.99105,0.81196 -0.48372,0.3286 -1.05495,1.08098 -1.8393,2.42259 -0.89435,1.52977 -2.24723,3.58823 -2.88721,4.393 -0.1142,0.1436 -0.29884,0.37858 -0.41031,0.52218 -0.11148,0.1436 -0.31335,0.38697 -0.44861,0.54083 -0.13527,0.15385 -0.35082,0.40286 -0.47902,0.55333 -0.30535,0.35841 -1.9096,1.970433 -2.20782,2.218513 -0.12787,0.10637 -0.38306,0.32767 -0.5671,0.49178 -0.85726,0.76445 -2.11256,1.71185 -3.34558,2.52498 -1.964177,1.2953 -4.820517,2.73483 -7.017887,3.53686 -0.2872,0.10483 -0.57254,0.2128 -0.63408,0.23994 -0.13102,0.0578 -1.47814,0.50059 -2.25656,0.74174 -0.56327,0.17449 -0.84718,0.25541 -1.19355,0.34015 -0.11283,0.0276 -0.33942,0.0836 -0.50353,0.12444 -0.33739,0.084 -0.80299,0.19149 -1.3241,0.30583 -0.19488,0.0428 -0.53896,0.11827 -0.76462,0.1678 -0.4122,0.0905 -0.82356,0.13441 -0.97832,0.10448 z"
       id="path2"
       inkscape:export-filename="icons.svg"
       inkscape:export-xdpi="96"
       inkscape:export-ydpi="96" /></g></svg>
