<?xml version="1.0" encoding="UTF-8" standalone="no"?>
<!-- Created with Inkscape (http://www.inkscape.org/) -->

<svg
   width="97.670395mm"
   height="100.00004mm"
   viewBox="0 0 97.670395 100.00004"
   version="1.1"
   id="svg1"
   xml:space="preserve"
   inkscape:version="1.4.2 (f4327f4, 2025-05-13)"
   sodipodi:docname="hand-drawn-icons.svg"
   xmlns:inkscape="http://www.inkscape.org/namespaces/inkscape"
   xmlns:sodipodi="http://sodipodi.sourceforge.net/DTD/sodipodi-0.dtd"
   xmlns="http://www.w3.org/2000/svg"
   xmlns:svg="http://www.w3.org/2000/svg"><sodipodi:namedview
     id="namedview1"
     pagecolor="#ffffff"
     bordercolor="#000000"
     borderopacity="0.25"
     inkscape:showpageshadow="2"
     inkscape:pageopacity="0.0"
     inkscape:pagecheckerboard="0"
     inkscape:deskcolor="#d1d1d1"
     inkscape:document-units="mm"
     inkscape:zoom="0.27015116"
     inkscape:cx="-3535.0579"
     inkscape:cy="760.68523"
     inkscape:window-width="2560"
     inkscape:window-height="1494"
     inkscape:window-x="-11"
     inkscape:window-y="-11"
     inkscape:window-maximized="1"
     inkscape:current-layer="layer1"><inkscape:page
       x="0"
       y="0"
       width="97.670395"
       height="100.00004"
       id="page2"
       margin="0"
       bleed="0" /></sodipodi:namedview><defs
     id="defs1" /><g
     inkscape:label="Layer 1"
     inkscape:groupmode="layer"
     id="layer1"
     transform="translate(1423.4123,209.53139)"><path
       style="fill:#000000;stroke-width:0.745777"
       d="m -1348.4288,-109.83616 c -0.9344,-0.33048 -2.2198,-1.54329 -2.6934,-2.54147 l -0.303,-0.6385 -2.516,-0.075 c -1.8998,-0.0566 -2.6716,-0.1586 -3.1514,-0.4165 -0.8007,-0.43039 -1.1258,-0.99581 -0.8589,-1.49432 0.3793,-0.70876 1.2524,-0.87886 3.9494,-0.76948 l 2.5342,0.10279 0.588,-0.83414 c 0.3961,-0.56199 0.8857,-0.95659 1.5003,-1.20942 l 0.9124,-0.37527 8e-4,-1.1039 c 3e-4,-0.60714 0.058,-2.04126 0.1282,-3.18692 l 0.1274,-2.08302 -1.558,-0.12247 c -1.5184,-0.11935 -5.0822,-0.52204 -8.2669,-0.93409 -0.8682,-0.11233 -3.5622,-0.26233 -5.9867,-0.33332 -4.3766,-0.12817 -4.4108,-0.13254 -4.8016,-0.61547 -0.3016,-0.37267 -0.3638,-0.64944 -0.2664,-1.18392 0.07,-0.38365 0.2022,-2.4356 0.2939,-4.55991 0.183,-4.24095 0.4886,-6.76698 0.8957,-7.40394 0.537,-0.84002 1.3016,-0.96306 3.5692,-0.57437 1.1347,0.19449 2.0934,0.31879 2.1304,0.27621 0.037,-0.0426 0.1269,-0.97487 0.1997,-2.07175 l 0.1322,-1.99433 -2.6216,-0.32269 c -1.4418,-0.17749 -3.3745,-0.40532 -4.2949,-0.5063 -1.6401,-0.17995 -1.6901,-0.20134 -2.5159,-1.07526 -1.0743,-1.13703 -1.0771,-1.54682 -0.028,-4.02346 0.8023,-1.89346 0.817,-1.97106 0.966,-5.07996 0.2612,-5.45354 0.2339,-5.4275 5.712,-5.42347 4.3047,0.003 8.5087,0.31403 14.8044,1.09474 3.7959,0.4707 5.1978,0.5405 13.3192,0.66312 6.0903,0.0919 9.2518,0.21148 9.609,0.36329 1.0861,0.46162 1.1072,0.59671 1.1673,7.44604 0.031,3.47284 -0.013,6.51501 -0.096,6.76038 -0.083,0.24538 -0.4121,0.58091 -0.7307,0.74564 -0.7701,0.39826 -3.577,0.74539 -4.8566,0.60063 -0.5633,-0.0637 -1.0638,-0.0491 -1.1123,0.0325 -0.049,0.0816 -0.1522,1.05847 -0.2305,2.17086 l -0.1422,2.02253 h 2.4785 c 2.698,0 3.3062,0.1581 3.6892,0.95903 0.3121,0.6525 0.2822,11.81062 -0.034,12.80839 -0.1432,0.45137 -0.4224,0.74823 -0.928,0.9866 -0.6417,0.30254 -1.4348,0.33841 -7.0375,0.31825 -4.3872,-0.0158 -7.067,-0.11615 -8.7807,-0.32882 -1.3565,-0.16836 -2.4891,-0.28357 -2.5166,-0.25605 -0.083,0.0832 -0.4622,3.06491 -0.6114,4.81129 l -0.1399,1.63853 0.6685,0.41312 c 0.3675,0.22722 0.9586,0.86619 1.3133,1.41993 l 0.6448,1.00681 1.8499,0.3461 c 1.0174,0.19036 2.4714,0.40285 3.2311,0.47221 1.8439,0.16836 2.2692,0.34236 2.2692,0.92853 0,0.906 -0.3544,0.98122 -3.0099,0.63879 -1.3383,-0.17258 -2.7858,-0.31377 -3.2168,-0.31377 -0.7799,0 -0.7845,0.004 -1.0236,1.01109 -0.2841,1.19571 -0.5248,1.52477 -1.3761,1.88062 -0.8118,0.33932 -1.8994,0.31495 -2.9786,-0.0667 z m 1.9363,-2.73928 c 0,-2.58378 -2.6845,-3.95961 -3.2473,-1.66425 -0.2293,0.9352 1.5245,2.53519 2.8033,2.55744 0.3968,0.007 0.444,-0.0882 0.444,-0.89319 z m 15.9178,-12.90198 c 0.344,-0.12893 0.683,-0.3836 0.7532,-0.56593 0.2193,-0.5692 0.5602,-7.40389 0.4168,-8.35934 -0.1332,-0.88893 -0.1537,-0.91054 -0.9658,-1.02247 -0.4563,-0.0629 -2.5612,-0.16436 -4.6774,-0.22548 -9.6769,-0.27948 -14.606,-0.64877 -21.2361,-1.59102 -5.1169,-0.72721 -8.5348,-0.88538 -8.9268,-0.4131 -0.1803,0.21724 -0.8162,2.98344 -0.8164,3.55098 0,0.0901 0.7325,-0.51197 1.6279,-1.33805 1.2514,-1.15459 1.742,-1.48913 2.1212,-1.44649 0.3773,0.0424 0.5083,0.18587 0.5569,0.60992 0.074,0.6433 -0.6983,1.56322 -3.1684,3.77545 -1.6238,1.45422 -1.6347,1.47149 -1.8393,2.92162 -0.1185,0.83849 -0.092,0.93727 0.2463,0.93727 0.3933,0 1.87,-1.14911 4.8803,-3.79776 1.371,-1.20637 1.8735,-1.53636 2.2692,-1.49033 0.3817,0.0444 0.523,0.18713 0.5679,0.57379 0.051,0.43517 -0.3021,0.84668 -2.2823,2.66382 l -2.3421,2.14914 1.8877,0.13388 1.8876,0.13388 1.8781,-1.86043 c 1.4576,-1.44389 1.9997,-1.86044 2.4214,-1.86044 0.3805,0 0.6073,0.1405 0.7569,0.46889 0.2723,0.59744 -0.06,1.16008 -1.6574,2.81229 -0.6433,0.66511 -1.094,1.25423 -1.0017,1.30914 0.092,0.0549 0.5451,0.16226 1.0061,0.23854 0.6797,0.11246 0.8617,0.0773 0.9626,-0.18567 0.069,-0.1784 0.7568,-0.75409 1.5297,-1.27932 0.7728,-0.52523 1.7111,-1.27498 2.0852,-1.66611 0.7137,-0.74637 1.3792,-0.90589 1.7774,-0.42603 0.5024,0.60525 0.1382,1.14482 -1.5695,2.32581 -0.9225,0.63793 -1.7016,1.22802 -1.7313,1.31131 -0.1251,0.35027 7.8893,1.46717 12.8799,1.79496 3.3707,0.22139 8.9018,0.11722 9.7022,-0.18272 z m -15.8595,-2.3802 c -0.4732,-0.19051 -1.2422,-1.52037 -1.2422,-2.14817 0,-0.21497 -0.089,-0.44574 -0.1974,-0.51281 -0.1085,-0.0671 -0.1972,-0.33452 -0.1972,-0.59432 0,-1.33011 1.3552,-2.4165 2.5772,-2.06602 1.2593,0.36114 2.3557,1.78311 2.3557,3.05498 0,1.80753 -1.6381,2.93387 -3.2961,2.26634 z m 9.8666,-0.38381 c -0.8337,-0.50832 -1.2428,-1.34643 -1.2428,-2.54581 0,-0.85081 0.079,-1.04569 0.6071,-1.4897 1.0851,-0.91307 2.7993,-0.61859 3.5596,0.61151 0.3389,0.5485 0.384,0.83314 0.2667,1.68555 -0.2544,1.84969 -1.7086,2.64206 -3.1906,1.73845 z m -0.4535,-9.60515 1.8745,-0.12374 -0.061,-2.12452 c -0.072,-2.51429 0.2141,-2.29772 -3.3918,-2.5627 -7.354,-0.54038 -10.2934,-0.669 -15.4837,-0.6775 l -5.7165,-0.009 -0.1303,0.78928 c -0.072,0.4341 -0.1919,1.3834 -0.267,2.10954 l -0.1367,1.32025 0.6558,0.10258 c 6.6373,1.03824 16.7747,1.56449 22.6569,1.17618 z m 8.419,-7.24042 c 0.4634,-0.46236 0.6225,-10.29629 0.1738,-10.74495 -0.057,-0.0564 -1.9463,-0.17795 -4.1997,-0.27013 -3.8134,-0.156 -9.4408,-0.59936 -19.7841,-1.55871 -2.3333,-0.21641 -6.107,-0.44884 -8.3861,-0.5165 -3.5099,-0.10421 -4.3133,-0.0736 -5.2522,0.2 l -1.1085,0.32303 -0.2224,1.13666 c -0.1224,0.62516 -0.281,1.7021 -0.3526,2.3932 -0.1507,1.45355 -0.145,1.45365 1.6081,0.028 2.2706,-1.84649 3.3252,-2.56715 3.7567,-2.56715 0.4982,0 1.0776,0.46978 1.0776,0.87384 0,0.13953 -1.2592,1.29478 -2.7982,2.56723 -2.1194,1.75226 -2.9046,2.29322 -3.2366,2.22976 -0.4034,-0.0771 -0.4569,0.0276 -0.6711,1.31574 -0.1281,0.76974 -0.2799,1.64269 -0.3373,1.93989 -0.075,0.38829 -0.012,0.57579 0.2236,0.66625 0.3483,0.13365 0.9352,-0.283 3.3665,-2.39021 2.1259,-1.84247 3.4623,-2.86146 3.7527,-2.86146 0.3717,0 0.8843,0.55568 0.8843,0.95854 0,0.31951 -2.9825,2.93762 -4.5866,4.02615 l -0.7334,0.49777 0.6375,0.11199 c 0.3506,0.0616 1.1822,0.17026 1.8481,0.2415 l 1.2107,0.12952 1.7491,-1.48429 c 0.9621,-0.81636 2.145,-1.8922 2.6289,-2.39077 0.4838,-0.49857 1.021,-0.90649 1.1937,-0.90649 0.4699,0 0.7877,0.40754 0.7877,1.00998 0,0.42301 -0.3858,0.89428 -1.8252,2.22917 l -1.8252,1.69276 2.3756,5.5e-4 2.3756,5.5e-4 -0.01,-0.52327 c -0.01,-0.44439 0.2897,-0.7267 1.9655,-1.87275 1.9646,-1.34364 2.5683,-1.56688 3.0189,-1.11628 0.5192,0.51908 0.2096,0.90499 -1.646,2.05223 l -1.883,1.16409 0.7483,0.13393 c 0.4116,0.0737 2.8571,0.22818 5.4344,0.34339 2.5774,0.1152 5.2856,0.30389 6.0183,0.4193 3.9232,0.61797 11.5891,0.94826 12.0204,0.51791 z m -6.9391,-2.53274 c -0.6506,-0.35984 -1.3135,-1.02392 -1.4975,-1.50012 -0.095,-0.24629 -0.1156,-1.00104 -0.045,-1.67722 0.1082,-1.04519 0.2268,-1.3293 0.7914,-1.89595 0.5938,-0.59599 0.7491,-0.65513 1.4672,-0.55881 0.9558,0.1282 1.5256,0.61804 2.1326,1.83338 0.6071,1.21577 0.4459,2.36986 -0.4661,3.3369 -0.6964,0.7385 -1.5741,0.90865 -2.382,0.46182 z m -10.712,-0.38906 c -0.3568,-0.22845 -0.78,-0.66939 -0.9406,-0.97988 -0.3697,-0.71492 -0.5811,-2.21534 -0.3779,-2.68154 0.085,-0.19595 0.1356,-0.43935 0.1117,-0.54087 -0.1,-0.42218 0.2169,-1.11788 0.7212,-1.58543 0.4367,-0.40497 0.7378,-0.49916 1.5959,-0.49916 0.9398,0 1.1325,0.0748 1.7286,0.67089 0.369,0.36899 0.6709,0.84651 0.6709,1.06116 0,0.21466 0.1363,0.71658 0.303,1.11539 0.3809,0.91182 0.2148,1.90894 -0.4498,2.69871 -1.0018,1.19062 -2.2359,1.46244 -3.363,0.74073 z m 1.4462,-3.49839 c -0.349,-0.34515 -0.3468,-0.27229 0.022,0.71394 0.1198,0.32034 0.1355,0.31865 0.2163,-0.0233 0.048,-0.20275 -0.06,-0.51352 -0.2385,-0.69062 z m -31.8135,33.1336 c -0.8771,-0.53481 -0.9849,-0.81535 -1.333,-3.46954 -0.438,-3.3399 -0.4131,-4.33675 0.1176,-4.7085 0.7279,-0.50981 1.0866,-0.1104 1.3521,1.50574 0.1296,0.78842 0.3154,1.91597 0.4131,2.50566 0.098,0.5897 0.1775,1.36855 0.1775,1.73078 0,1.05988 0.4136,1.14071 4.3802,0.8561 1.8754,-0.13457 3.8547,-0.31679 4.3985,-0.40495 1.1524,-0.18684 1.9445,0.0878 2.0333,0.70505 0.1113,0.77411 -0.5074,1.02355 -3.3537,1.35224 -1.4871,0.17173 -3.7957,0.3119 -5.1303,0.3115 -2.0547,-6.3e-4 -2.523,-0.0595 -3.0553,-0.38408 z m -5.6856,-15.40892 c -1.4108,-0.095 -3.8121,-0.30755 -5.3361,-0.47236 -4.1271,-0.44632 -14.7742,-1.06832 -21.5981,-1.26176 -4.616,-0.13086 -6.1799,-0.23975 -6.7119,-0.46736 -1.0405,-0.44511 -1.9149,-1.55253 -2.1048,-2.66574 -0.2308,-1.35297 -0.1572,-13.18574 0.1139,-18.30977 0.1263,-2.38758 0.4463,-6.33891 0.7112,-8.78075 0.7935,-7.31762 1.2956,-13.78744 1.8709,-24.11003 0.2295,-4.11852 0.7085,-8.44088 1.0083,-9.09889 0.4111,-0.90223 1.2027,-1.15579 4.4935,-1.43932 4.9768,-0.4288 16.4511,-0.71007 19.7488,-0.4841 1.5792,0.10822 4.8692,0.29051 7.311,0.4051 2.4419,0.11458 6.26,0.35907 8.4848,0.5433 2.98,0.24677 6.2791,0.33532 12.5298,0.33629 l 8.4848,10e-4 5.8209,-0.74624 c 7.5591,-0.96907 9.3783,-1.08536 10.2145,-0.65294 1.2923,0.66829 1.2316,-0.2472 1.2153,18.31551 -0.016,17.58444 -0.1023,19.7089 -0.8238,20.16351 -0.5214,0.32848 -1.0122,-0.0841 -1.1726,-0.9858 -0.075,-0.4223 -0.1417,-4.30141 -0.148,-8.62026 -0.014,-9.98095 -0.7184,-25.78728 -1.1684,-26.23736 -0.2426,-0.24253 -2.2929,-0.11492 -10.5835,0.65874 -5.5553,0.51841 -15.0381,0.70904 -20.324,0.40856 -3.4442,-0.19579 -12.2626,-0.53821 -23.7771,-0.92327 -3.6628,-0.12249 -12.1925,0.16543 -14.9962,0.5062 -3.1997,0.38887 -2.8657,0.19558 -3.322,1.92283 -0.2215,0.83825 -0.4618,2.05685 -0.5341,2.70801 l -0.1314,1.18392 1.8495,-1.82521 c 1.5644,-1.54392 1.9476,-1.82522 2.487,-1.82522 1.453,0 0.6555,1.37024 -2.4197,4.15709 -0.9077,0.8226 -1.4461,1.17204 -1.7426,1.13112 -0.4047,-0.0558 -0.4383,0.0457 -0.5912,1.78475 -0.089,1.01419 -0.1181,1.88806 -0.064,1.94194 0.054,0.0539 0.926,-0.63366 1.938,-1.52786 1.012,-0.89421 2.4172,-2.08724 3.1226,-2.65119 0.7054,-0.56394 1.4107,-1.17985 1.5672,-1.36869 0.1566,-0.18883 0.6618,-0.60278 1.1226,-0.91987 0.7327,-0.5041 0.9015,-0.54762 1.3433,-0.34632 0.714,0.32534 0.6286,0.82612 -0.285,1.67148 -0.7263,0.67199 -0.7655,0.75874 -0.4829,1.07096 0.2842,0.31404 0.1761,0.45161 -1.4295,1.81904 -1.6411,1.39761 -2.7958,2.50951 -2.6101,2.51332 0.046,9.7e-4 1.1937,0.13336 2.5503,0.29426 1.3566,0.16091 2.7841,0.29332 3.1723,0.29427 0.6584,0.002 0.7004,-0.0348 0.6259,-0.5423 -0.07,-0.47649 0.1241,-0.71602 1.5634,-1.93001 3.0968,-2.61202 3.2862,-2.73526 3.8259,-2.48937 0.7969,0.3631 0.5797,0.89139 -0.8507,2.06931 -0.7326,0.60323 -1.7759,1.49254 -2.3185,1.97624 l -0.9866,0.87947 0.6906,0.10773 c 0.3798,0.0593 1.6292,0.15845 2.7763,0.22044 l 2.0857,0.11271 1.1701,-1.14396 c 2.5512,-2.49427 3.2431,-2.92754 3.7944,-2.3762 0.3121,0.31212 0.3035,1.07665 -0.013,1.19831 -0.1377,0.0528 -0.8203,0.5723 -1.5169,1.15435 l -1.2665,1.05829 0.7769,0.13796 c 0.4273,0.0759 1.4568,0.14308 2.2877,0.14933 1.3826,0.0104 1.5026,-0.02 1.414,-0.3584 -0.067,-0.25575 0.2631,-0.75773 1.07,-1.62789 0.6417,-0.69196 1.2235,-1.41351 1.293,-1.60343 0.2373,-0.64918 1.5198,-0.20263 1.5198,0.52919 0,0.33448 -0.8687,1.62443 -1.6369,2.43061 l -0.611,0.64129 5.317,-0.005 5.317,-0.005 1.2826,-1.45676 c 1.3696,-1.55559 1.6123,-1.7397 2.0644,-1.56622 0.6408,0.24592 0.5449,0.85467 -0.2922,1.85452 l -0.8224,0.9822 h 2.1889 c 1.8789,0 2.1889,-0.0449 2.1889,-0.31706 0,-0.17439 0.333,-0.74924 0.7399,-1.27744 0.407,-0.52821 0.8833,-1.16007 1.0584,-1.40413 0.2815,-0.39247 0.3784,-0.41636 0.8385,-0.20669 0.7018,0.31974 0.6554,0.72645 -0.2056,1.80376 -0.3992,0.49954 -0.8097,1.01925 -0.9121,1.15491 -0.1462,0.19369 0.2851,0.24665 2.0085,0.24665 1.6237,0 2.1949,-0.0642 2.1956,-0.24665 0,-0.31754 1.2911,-1.72655 1.5805,-1.72655 0.4634,0 0.9838,0.42488 0.9838,0.80316 0,0.21705 -0.153,0.62814 -0.34,0.91353 l -0.34,0.51889 11.6806,-0.13653 c 11.5611,-0.13513 11.6846,-0.13244 12.0804,0.26345 0.6027,0.6026 0.5344,1.64648 -0.1426,2.18112 l -0.5426,0.42854 -15.7856,-0.10125 c -13.8956,-0.0891 -34.516,-0.48452 -42.9171,-0.82293 -4.3536,-0.17537 -8.5537,-0.49092 -10.8527,-0.81535 -2.4168,-0.34107 -2.8554,-0.43941 -3.5372,-0.79314 -0.6466,-0.33549 -0.7691,-0.0727 -0.7941,1.70423 -0.02,1.43233 -0.3386,5.69919 -1.0827,14.50303 -0.2752,3.25578 -0.5535,6.62996 -0.6185,7.49817 l -0.1182,1.57856 0.6266,-0.74407 c 0.8283,-0.98345 1.6479,-1.40977 2.1715,-1.12952 0.8948,0.47885 0.1005,1.69571 -2.3276,3.56599 l -0.6486,0.49961 0.057,2.02356 0.057,2.02356 2.2021,-2.08363 c 1.2112,-1.146 2.3291,-2.08364 2.4841,-2.08364 0.2806,0 0.7401,0.77884 0.7401,1.25439 0,0.25558 -3.3598,3.61743 -4.911,4.91398 l -0.8659,0.72377 0.1753,2.16851 0.1753,2.16851 2.4002,-2.30947 c 1.3202,-1.27021 2.4495,-2.46486 2.5096,-2.65478 0.1704,-0.53791 1.2734,-0.46468 1.4861,0.0987 0.093,0.24664 0.091,0.58986 -0.01,0.77221 -0.3657,0.69853 -5.3792,5.70076 -5.8262,5.81292 -0.2693,0.0676 -0.6066,0.007 -0.7854,-0.14148 -0.284,-0.23581 -0.3068,-8.2e-4 -0.244,2.52696 0.038,1.53281 0.1313,2.84893 0.2072,2.92471 0.1727,0.17234 2.8523,-2.07472 6.9982,-5.86857 3.1987,-2.92709 3.7711,-3.2786 4.3675,-2.68217 0.1302,0.13023 0.2368,0.38628 0.2368,0.56899 0,0.37582 -5.8658,6.03037 -8.0281,7.73904 -0.7797,0.6162 -1.465,1.19675 -1.5227,1.29011 -0.1145,0.18534 2.8293,0.42308 5.2591,0.4247 1.495,7.5e-4 1.5292,-0.01 1.5292,-0.48646 0,-0.36815 0.4469,-0.87869 1.8252,-2.08538 1.0039,-0.87883 2.4649,-2.0821 3.2468,-2.67394 0.7819,-0.59183 1.4753,-1.16292 1.5409,-1.26907 0.2078,-0.33619 1.0592,-0.21082 1.2723,0.18734 0.2925,0.54644 0.1314,0.78806 -1.237,1.8554 -0.672,0.52425 -2.0605,1.72297 -3.0855,2.66382 l -1.8636,1.71065 1.469,0.1222 c 0.8079,0.0672 2.1888,0.13381 3.0687,0.14799 l 1.5997,0.0258 1.463,-1.43936 c 1.9016,-1.87104 3.1764,-2.74833 3.8763,-2.66769 0.4266,0.0492 0.5513,0.17845 0.6023,0.62483 0.044,0.38439 -0.057,0.64764 -0.3174,0.83031 -0.21,0.14711 -1.0089,0.79136 -1.7753,1.43165 l -1.3934,1.16417 2.012,0.13008 2.0121,0.13008 1.9337,-1.87792 c 1.9256,-1.87006 2.5065,-2.18281 3.0481,-1.64112 0.2664,0.26637 0.3208,1.07653 0.079,1.17734 -0.087,0.0362 -0.6845,0.64235 -1.3283,1.34705 l -1.1706,1.28126 0.5884,0.12596 c 0.3235,0.0693 1.4521,0.13646 2.5079,0.1493 l 1.9197,0.0233 -0.2353,-0.51649 c -0.2103,-0.46137 -0.181,-0.56139 0.274,-0.93727 3.4762,-2.8717 3.5499,-2.92293 4.0289,-2.80273 0.3615,0.0907 0.4789,0.25264 0.478,0.65916 0,0.4324 -0.3421,0.83127 -1.7265,2.01877 l -1.7254,1.4799 3.5962,0.0987 c 3.3639,0.0923 3.624,0.12648 4.0262,0.5292 0.5279,0.52869 0.5438,1.55433 0.032,2.06621 -0.4697,0.46976 -2.429,0.5885 -5.8784,0.35627 z m -17.5337,-19.87188 c -0.3733,-0.40697 -1.0602,-1.22832 -1.5264,-1.82521 -0.4662,-0.59689 -0.9556,-1.17405 -1.0874,-1.28258 -0.4187,-0.34473 -2.2766,-2.90997 -2.4634,-3.40125 -0.3249,-0.85443 -0.2052,-1.532 0.3674,-2.08063 0.431,-0.41287 1.6765,-0.85991 5.8703,-2.1071 2.9278,-0.87068 5.5076,-1.5838 5.7329,-1.58473 0.4664,-0.002 1.2676,0.76279 1.2676,1.20989 0,0.69786 -0.9077,1.13237 -4.045,1.93628 -1.7365,0.44494 -3.6012,0.9573 -4.1438,1.13857 l -0.9866,0.32958 1.6773,0.22448 c 0.9224,0.12346 3.0979,0.50761 4.8343,0.85365 1.7364,0.34604 5.3886,1.02491 8.1161,1.50859 2.7274,0.48368 5.1806,0.96368 5.4514,1.06665 0.7472,0.28408 0.9922,1.20169 0.5257,1.96883 -0.4852,0.79789 -0.9985,0.79933 -4.3929,0.0123 -1.4282,-0.33116 -4.5059,-0.99757 -6.8392,-1.4809 -6.9549,-1.44068 -9.0503,-1.96705 -9.678,-2.43107 -0.3205,-0.23691 -0.5818,-0.36149 -0.5807,-0.27685 0.01,0.32681 1.2339,2.27868 2.4624,3.90755 1.4843,1.96793 1.7041,2.52654 1.1177,2.84036 -0.6537,0.34987 -0.9655,0.25214 -1.6797,-0.52642 z m -23.4137,-1.73082 c -0.2789,-0.33604 -0.1972,-2.63993 0.3009,-8.4805 0.1574,-1.84494 0.3901,-5.73759 0.5173,-8.65032 0.2403,-5.50363 0.3167,-5.87748 1.0737,-5.24925 0.2665,0.22114 0.2946,1.0495 0.2236,6.58297 -0.1156,9.00367 -0.4635,15.29844 -0.8704,15.74801 -0.3881,0.42878 -0.9129,0.44947 -1.2451,0.0491 z m 54.1404,-10.0595 c -0.3292,-0.85776 0.808,-2.2978 2.6913,-3.408 0.4883,-0.2879 1.3297,-0.83749 1.8696,-1.22132 l 0.9816,-0.69788 -3.1521,-0.12918 c -1.7337,-0.071 -6.2063,-0.13113 -9.9392,-0.13353 -7.2791,-0.005 -7.1846,0.009 -7.0766,-1.00684 0.034,-0.3236 0.2121,-0.52261 0.5445,-0.6101 0.2713,-0.0714 3.0683,-0.2008 6.2156,-0.28752 3.1472,-0.0867 7.365,-0.21174 9.3727,-0.27783 l 3.6504,-0.12016 -1.1454,-0.71969 c -0.6299,-0.39583 -2.095,-1.04067 -3.2557,-1.43299 -2.5758,-0.87058 -2.6557,-0.91411 -2.8913,-1.57546 -0.2347,-0.65859 0.2467,-1.56732 0.8818,-1.66472 0.4661,-0.0715 5.0017,2.08018 7.1998,3.41544 3.1515,1.91435 3.9348,2.54742 4.134,3.34094 0.2716,1.08212 -0.1237,1.63502 -1.9171,2.68154 -0.837,0.48837 -2.2553,1.31454 -3.1519,1.83595 -0.8965,0.5214 -2.1185,1.25359 -2.7154,1.62707 -1.148,0.71831 -2.1069,0.87876 -2.2966,0.38428 z m -14.8307,-20.26434 c -0.6248,-0.62472 -0.1875,-1.30394 1.8008,-2.79708 1.008,-0.75695 1.707,-0.90011 2.0976,-0.42956 0.3124,0.3765 0.1792,0.56481 -1.5129,2.13946 -1.4082,1.31037 -1.9262,1.54648 -2.3855,1.08718 z m 26.2929,-1.81664 c -0.7722,-0.3364 -1.5963,-1.31703 -1.7695,-2.10605 -0.195,-0.88769 0.06,-2.57255 0.4977,-3.29279 0.8484,-1.39499 2.7183,-1.57814 4.0625,-0.39791 0.8877,0.77943 1.2642,1.51892 1.2642,2.48329 0,2.57449 -1.9998,4.2086 -4.0549,3.31346 z m 1.1938,-3.14267 c 0,-0.77048 -0.3838,-0.739 -0.4581,0.0376 -0.046,0.48046 0.01,0.63855 0.1973,0.57552 0.1434,-0.0478 0.2608,-0.3237 0.2608,-0.6131 z m 9.542,1.55546 c -0.3913,-0.26594 -0.7671,-0.62837 -0.8351,-0.80542 -0.2039,-0.53125 -0.1394,-2.80141 0.094,-3.31389 0.2704,-0.59345 1.5216,-1.31702 2.2758,-1.31604 0.8368,0.001 1.829,0.69579 2.1744,1.52255 0.5673,1.35782 -0.157,3.49154 -1.3827,4.07318 -0.9362,0.44424 -1.4933,0.40583 -2.3265,-0.16038 z m 16.363,-4.7948 c -0.2341,-0.26856 -0.3303,-1.14112 -0.4329,-3.9261 -0.1564,-4.24333 -0.3421,-5.60087 -1.0295,-7.52571 -0.392,-1.09746 -0.68,-1.56455 -1.2168,-1.9732 -0.6928,-0.52748 -0.7428,-0.53476 -3.3811,-0.49257 -1.4728,0.0236 -3.7434,0.17226 -5.0458,0.33046 -4.3791,0.53196 -4.9632,0.55487 -5.3098,0.20826 -0.1726,-0.17256 -0.3138,-0.37654 -0.3138,-0.45329 0,-0.24212 8.6926,-1.6743 10.7138,-1.76518 1.5015,-0.0675 2.1284,-0.0123 2.8081,0.24731 0.9972,0.38081 2.2259,1.66208 2.8055,2.92549 0.8729,1.90266 1.5564,5.69507 1.7645,9.78976 0.1136,2.23531 0.093,2.46923 -0.2407,2.71315 -0.4864,0.35559 -0.7599,0.33647 -1.1215,-0.0784 z"
       id="path12" /></g></svg>
