<?xml version="1.0" encoding="UTF-8" standalone="no"?>
<!-- Created with Inkscape (http://www.inkscape.org/) -->

<svg
   width="81.870064mm"
   height="100mm"
   viewBox="0 0 81.870064 100"
   version="1.1"
   id="svg1"
   xml:space="preserve"
   inkscape:version="1.4.2 (f4327f4, 2025-05-13)"
   sodipodi:docname="hand-drawn-icons.svg"
   xmlns:inkscape="http://www.inkscape.org/namespaces/inkscape"
   xmlns:sodipodi="http://sodipodi.sourceforge.net/DTD/sodipodi-0.dtd"
   xmlns="http://www.w3.org/2000/svg"
   xmlns:svg="http://www.w3.org/2000/svg"><sodipodi:namedview
     id="namedview1"
     pagecolor="#ffffff"
     bordercolor="#000000"
     borderopacity="0.25"
     inkscape:showpageshadow="2"
     inkscape:pageopacity="0.0"
     inkscape:pagecheckerboard="0"
     inkscape:deskcolor="#d1d1d1"
     inkscape:document-units="mm"
     inkscape:zoom="0.27015116"
     inkscape:cx="-3535.0579"
     inkscape:cy="760.68523"
     inkscape:window-width="2560"
     inkscape:window-height="1494"
     inkscape:window-x="-11"
     inkscape:window-y="-11"
     inkscape:window-maximized="1"
     inkscape:current-layer="layer1"><inkscape:page
       x="0"
       y="0"
       width="81.870064"
       height="100"
       id="page2"
       margin="0"
       bleed="0" /></sodipodi:namedview><defs
     id="defs1" /><g
     inkscape:label="Layer 1"
     inkscape:groupmode="layer"
     id="layer1"
     transform="translate(1724.5506,249.88944)"><path
       style="fill:#000000;stroke-width:0.749563"
       d="m -1688.6795,-149.97489 c -8.8036,-0.22874 -16.6478,-0.82869 -25.7745,-1.9713 -5.8085,-0.72721 -6.6802,-1.06315 -7.6126,-2.93373 -0.6949,-1.39408 -1.5148,-6.67762 -1.8251,-11.76087 -0.3124,-5.11737 -0.055,-7.89875 1.3134,-14.15455 1.0376,-4.7453 1.275,-6.6758 1.275,-10.3698 0,-3.49206 -0.3144,-6.81727 -0.9892,-10.46157 -0.9049,-4.88813 -1.5162,-9.73635 -2.0253,-16.06406 -0.371,-4.612 -0.2763,-24.15274 0.1265,-26.08463 0.5454,-2.61568 1.6955,-4.11169 3.984,-5.18265 2.2093,-1.03384 2.9811,-1.06471 19.2733,-0.77094 8.158,0.1471 18.7149,0.29345 23.4598,0.32522 9.6933,0.0649 10.0149,0.10386 13.4786,1.63229 7.3872,3.25984 15.7381,11.12328 17.7049,16.67134 0.4104,1.15759 0.5706,3.40909 1.7237,24.21791 1.3082,23.60981 2.2084,49.56806 1.7776,51.26079 -0.3032,1.19087 -1.1584,2.30548 -2.1675,2.82478 -1.0215,0.5257 -1.8653,0.67827 -6.8347,1.23586 -12.0102,1.3476 -24.8362,1.89903 -36.8879,1.58591 z m 21.8155,-3.15372 c 7.5337,-0.50205 18.4196,-1.59656 19.9814,-2.009 1.4549,-0.38421 1.4217,-0.10254 1.1592,-9.85587 -0.2717,-10.09368 -0.6444,-19.61248 -1.2248,-31.27854 -0.6608,-13.28498 -1.7036,-31.23594 -1.8212,-31.35353 -0.237,-0.237 -7.5283,-0.69407 -13.2536,-0.83083 l -6.0666,-0.14491 -0.9738,-0.60168 c -0.6223,-0.38448 -1.1528,-0.9209 -1.4696,-1.486 -0.4859,-0.86654 -0.4945,-0.95616 -0.4311,-4.45765 0.065,-3.61938 0.046,-3.81431 -1.0698,-10.75542 l -0.1036,-0.64454 -6.2878,-0.002 c -3.4582,-7.5e-4 -10.3483,-0.0886 -15.3113,-0.19438 -4.963,-0.1058 -12.2365,-0.21645 -16.1633,-0.24589 -8.0968,-0.0607 -8.7377,0.025 -10.2233,1.36716 -1.4836,1.34029 -1.4776,1.28052 -1.4776,14.94086 0,8.25891 0.08,12.86381 0.2568,14.77497 0.4474,4.8378 1.0165,9.20088 1.7202,13.1884 1.6095,9.12027 1.6458,13.6012 0.1686,20.82379 -0.3904,1.90884 -0.8804,4.31845 -1.0888,5.35468 -0.8231,4.09088 -0.6824,11.18962 0.3414,17.2334 0.6058,3.57639 0.5811,3.50089 1.2361,3.76472 1.5854,0.6385 16.9021,2.14976 26.3312,2.59805 4.528,0.21527 21.6,0.0922 25.7713,-0.18577 z m -20.788,-16.12127 c -3.3536,-3.51916 -7.7908,-8.41587 -10.6539,-11.75744 -6.1958,-7.23139 -6.2582,-7.33094 -5.2336,-8.35555 0.4475,-0.44744 0.6114,-0.49249 1.3387,-0.36784 2.1466,0.3679 8.0354,0.44045 8.317,0.10247 0.046,-0.0546 -0.032,-1.1701 -0.1726,-2.47902 -0.3533,-3.29461 -0.339,-9.81537 0.029,-13.3219 0.3911,-3.72394 0.9822,-6.7634 1.4067,-7.23239 0.4194,-0.46356 1.7307,-0.47897 5.3293,-0.0627 1.7174,0.19868 4.2997,0.29179 7.7346,0.27888 2.836,-0.0106 5.3104,-0.0127 5.4989,-0.004 0.1883,0.008 0.4852,0.23259 0.6597,0.49886 0.2901,0.44291 0.2906,0.68928 0.01,2.89386 -0.1719,1.32535 -0.3126,3.68195 -0.3126,5.2369 0,2.725 0.5314,13.59967 0.6714,13.73967 0.1477,0.14769 4.4636,0.64421 5.774,0.66427 2.4369,0.0373 3.2855,0.22322 3.7275,0.81673 0.5765,0.77422 0.2263,1.40053 -1.5874,2.83872 -0.8253,0.65446 -2.7142,2.48397 -4.1975,4.0656 -5.6007,5.97201 -10.4436,10.51374 -14.3799,13.48563 -1.6065,1.21295 -1.8737,1.14267 -3.9539,-1.04014 z m 4.823,-3.31649 c 2.1425,-1.77874 6.8539,-6.22933 8.5092,-8.03823 0.6988,-0.76354 2.2382,-2.37659 3.4211,-3.58455 1.1828,-1.20796 2.1506,-2.24428 2.1506,-2.30293 0,-0.0586 -0.6641,-0.1668 -1.4757,-0.24035 -2.2596,-0.20475 -4.6783,-0.67262 -5.1814,-1.00224 -0.5582,-0.36578 -0.5672,-0.44318 -0.9995,-8.63651 -0.2797,-5.30211 -0.2947,-11.77978 -0.03,-12.89967 0.035,-0.14869 -0.9028,-0.21038 -3.023,-0.19881 -2.7599,0.0151 -4.6978,-0.0882 -9.54,-0.50821 l -1.5079,-0.1308 -0.3202,2.05944 c -0.8284,5.32818 -0.9024,11.16636 -0.2152,16.96185 0.3652,3.07867 0.3134,3.65274 -0.3603,3.9971 -0.6341,0.32418 -3.455,0.63518 -5.7613,0.63518 h -1.9487 l 2.3282,2.72694 c 3.2747,3.83557 5.0379,5.81117 8.5719,9.60431 2.402,2.57812 3.1494,3.26894 3.389,3.13231 0.169,-0.0964 1.0659,-0.80507 1.993,-1.57483 z m 33.5164,-58.36414 c 0,-0.13732 -0.4801,-0.96283 -1.0669,-1.83448 -3.1904,-4.739 -8.7134,-9.44901 -14.0926,-12.01831 -1.8203,-0.86941 -4.3888,-1.71655 -4.5912,-1.51423 -0.046,0.0453 0.1529,1.36887 0.4404,2.94112 0.4477,2.44712 0.5275,3.46513 0.5545,7.07169 0.023,3.08079 0.099,4.28003 0.2808,4.46224 0.1802,0.18034 1.7122,0.28656 5.5444,0.38446 5.1064,0.13045 12.1488,0.51879 12.3191,0.67933 0.1891,0.17808 0.6115,0.0594 0.6115,-0.17182 z"
       id="path14"
       inkscape:export-filename="..\OneDrive\Desktop\hand drawn icons\download.svg"
       inkscape:export-xdpi="96"
       inkscape:export-ydpi="96" /></g></svg>
