<?xml version="1.0" encoding="UTF-8" standalone="no"?>
<!-- Created with Inkscape (http://www.inkscape.org/) -->

<svg
   width="53.027596mm"
   height="100mm"
   viewBox="0 0 53.027596 100"
   version="1.1"
   id="svg1"
   xml:space="preserve"
   xmlns:inkscape="http://www.inkscape.org/namespaces/inkscape"
   xmlns:sodipodi="http://sodipodi.sourceforge.net/DTD/sodipodi-0.dtd"
   xmlns="http://www.w3.org/2000/svg"
   xmlns:svg="http://www.w3.org/2000/svg"><sodipodi:namedview
     id="namedview1"
     pagecolor="#ffffff"
     bordercolor="#000000"
     borderopacity="0.25"
     inkscape:showpageshadow="2"
     inkscape:pageopacity="0.0"
     inkscape:pagecheckerboard="0"
     inkscape:deskcolor="#d1d1d1"
     inkscape:document-units="mm"><inkscape:page
       x="0"
       y="0"
       width="53.027596"
       height="100"
       id="page2"
       margin="0"
       bleed="0" /></sodipodi:namedview><defs
     id="defs1" /><g
     inkscape:label="Layer 1"
     inkscape:groupmode="layer"
     id="layer1"
     transform="translate(4.6243926,171.99018)"><path
       style="fill:#050505;stroke:none;stroke-width:0.737108"
       d="m 35.596555,-171.76833 c -9.719925,1.27622 -19.891027,0.42441 -26.3461953,9.47354 -1.053328,1.47659 -1.8557812,3.13828 -2.3770422,4.87566 -1.5160776,5.05317 0.825908,10.91037 -1.4119831,15.79716 -1.4507769,3.168 -5.02537706,2.23292 -7.5020541,4.05433 -3.0512605,2.24396 -2.7823486,7.9927 -2.2575569,11.35277 0.1118562,0.71617 0.2576563,1.46867 0.522632,2.1453 1.34725,3.44024 4.67944469,2.07144 7.1920558,3.50386 1.6060046,0.91555 2.2638296,2.5794 2.6482096,4.2972 0.7742664,3.46015 0.1251908,7.04117 0.083669,10.53143 -0.07963,6.693797 -7.371e-4,13.39342 -7.371e-4,20.087743 0,3.332291 -1.362545,8.947811 1.2365218,11.659914 1.0146151,1.058745 3.0362605,1.182447 4.4192525,1.381289 3.854805,0.554225 7.827363,0.888393 11.701597,0.332112 2.595927,-0.372726 5.928151,-1.115511 7.30221,-3.621982 1.442823,-2.631904 0.498853,-7.587698 0.498853,-10.531437 v -22.038009 c 0,-3.21759 -0.720509,-7.45602 0.319477,-10.53144 1.18603,-3.5073 5.969937,-1.8446 8.651744,-2.2288 4.72174,-0.67644 6.068364,-3.56155 6.743165,-7.91258 0.394994,-2.54684 1.458221,-6.92175 -0.717804,-8.92743 -4.084119,-3.76439 -11.474774,2.24455 -14.213014,-4.33438 -0.390328,-0.93782 -0.604141,-1.91901 -0.727732,-2.9254 -0.241713,-1.9681 -0.269421,-5.42083 1.71761,-6.57372 0.984423,-0.57117 2.58714,-0.25221 3.687296,-0.25221 3.161031,0 7.120335,0.3538 9.520191,-2.1635 2.715117,-2.84797 2.250503,-8.11763 1.676384,-11.68339 -0.235875,-1.46497 -0.44127,-3.20812 -1.648846,-4.21444 -2.432752,-2.02729 -7.737383,-1.94493 -10.717888,-1.55359 m -22.623098,96.455406 c -0.981224,0.179906 -2.225492,-0.327622 -1.779166,-1.560215 0.502436,-1.387541 2.825381,-3.041008 1.578717,-4.820734 -0.725683,-1.035984 -2.048808,1.246458 -2.8850647,0.05477 -0.3766698,-0.536769 -0.2299041,-1.442528 -0.229941,-2.059975 -2.064e-4,-3.298191 2.8838707,-4.809301 3.4191367,-7.996086 0.481428,-2.866283 -1.440656,-0.876606 -2.594636,-1.396636 -0.8591079,-0.387152 -0.8367367,-1.923949 -0.8214933,-2.698923 0.030885,-1.571604 0.4094783,-3.315359 1.2059763,-4.680637 0.917943,-1.57344 2.255787,-2.54135 2.301496,-4.48562 -0.64856,0.52773 -1.760274,1.8955 -2.704341,1.61635 -1.027087,-0.30371 -0.8060871,-1.98626 -0.8061387,-2.78651 -1.843e-4,-2.85509 -0.3300477,-6.0674 0.7665637,-8.7762 0.393527,-0.97207 2.063277,-2.3917 1.669617,-3.49828 -0.407481,-1.14543 -1.716652,-0.27706 -2.4361807,-0.0122 -0.4124048,-0.78578 -0.5176492,-1.80685 -1.0752054,-2.49922 -1.1854031,-1.47205 -3.2820568,-1.4777 -4.9706175,-1.79136 -0.4263509,-2.08447 -3.216019,-0.16941 -3.96825293,-2.53609 -0.84923737,-2.67187 1.41897063,-4.09544 2.62383343,-6.04508 0.4981674,-0.80611 0.4911501,-1.99839 0.5643081,-2.9254 l -3.70550322,2.53535 0.780104,-2.9254 -0.58507984,0.39005 3.12043076,-3.12042 -0.3900557,0.58508 5.4607431,-2.73038 -1.1701597,0.97514 v 0.19502 c 2.1209633,-0.59625 4.2341426,-0.55512 5.6127346,-2.5361 0.299458,-0.4303 1.894074,-3.21377 0.598473,-3.28204 -0.83521,-0.044 -1.678396,1.10261 -2.505697,1.33253 0.143265,-3.12772 3.288315,-4.96076 3.315448,-7.99609 l -3.120424,1.75524 0.402845,-5.26572 5.83801,-8.19112 c -1.227655,1.22765 -2.41479,2.52379 -3.705511,3.68504 -0.389724,0.35064 -1.100982,1.03195 -1.690374,0.75348 -0.736445,-0.34796 -0.136336,-1.60855 0.09029,-2.0982 0.829063,-1.79128 2.072115,-3.34562 3.550357,-4.64467 0.928329,-0.8158 6.945006,-4.43763 5.070687,-1.0111 4.292677,-3.65871 9.221478,-3.90053 14.626996,-3.90053 1.784223,0 3.957727,-0.33534 5.655775,0.28155 4.968346,1.80499 6.225949,9.8173 3.134568,13.74276 -3.411883,4.33245 -10.293012,-0.005 -13.979911,4.69824 -0.572335,0.73017 -0.943034,1.65097 -1.205526,2.53535 -0.311045,1.04795 -0.486521,2.2228 -0.413378,3.31545 0.08064,1.20473 0.344178,2.38439 0.775291,3.51048 0.342984,0.89588 0.800183,1.76434 1.383538,2.52767 1.970792,2.57878 5.094466,2.27587 7.965098,1.90302 1.391499,-0.18074 3.447066,-0.50323 4.660169,0.38704 2.535027,1.86042 1.337521,7.79261 0.838646,10.39435 -0.925204,4.8252 -4.814985,3.21133 -8.424214,3.79128 -3.099748,0.49808 -5.694237,2.79982 -6.679964,5.76502 -1.724908,5.18872 -0.722249,10.87481 -0.358449,16.18721 0.30862,4.50667 0.01747,9.133839 0.01747,13.651864 0,3.140716 0.882717,7.89071 -0.666493,10.726462 -1.737711,3.180792 -7.575964,2.660526 -10.645048,2.257557 -1.14338,-0.150127 -3.232191,0.170367 -3.510479,-1.282422 m 6.630903,-90.492351 -0.390056,0.58508 0.390056,-0.58508 m -2.535344,2.53535 -0.58508,0.7801 0.58508,-0.7801 m -5.46075,16.57726 -0.390048,0.58508 0.390048,-0.58508 m -9.7513264,9.94636 -0.3900557,0.58507 z"
       id="path7"
       inkscape:export-filename="path7.svg"
       inkscape:export-xdpi="96"
       inkscape:export-ydpi="96" /></g></svg>
