<?xml version="1.0" encoding="UTF-8" standalone="no"?>
<!-- Created with Inkscape (http://www.inkscape.org/) -->

<svg
   width="129.55217mm"
   height="99.999809mm"
   viewBox="0 0 129.55217 99.999809"
   version="1.1"
   id="svg1"
   xml:space="preserve"
   inkscape:version="1.4.2 (f4327f4, 2025-05-13)"
   sodipodi:docname="hand-drawn-icons.svg"
   xmlns:inkscape="http://www.inkscape.org/namespaces/inkscape"
   xmlns:sodipodi="http://sodipodi.sourceforge.net/DTD/sodipodi-0.dtd"
   xmlns="http://www.w3.org/2000/svg"
   xmlns:svg="http://www.w3.org/2000/svg"><sodipodi:namedview
     id="namedview1"
     pagecolor="#ffffff"
     bordercolor="#000000"
     borderopacity="0.25"
     inkscape:showpageshadow="2"
     inkscape:pageopacity="0.0"
     inkscape:pagecheckerboard="0"
     inkscape:deskcolor="#d1d1d1"
     inkscape:document-units="mm"
     inkscape:zoom="0.27015116"
     inkscape:cx="-3535.0579"
     inkscape:cy="760.68523"
     inkscape:window-width="2560"
     inkscape:window-height="1494"
     inkscape:window-x="-11"
     inkscape:window-y="-11"
     inkscape:window-maximized="1"
     inkscape:current-layer="layer1"><inkscape:page
       x="0"
       y="0"
       width="129.55217"
       height="99.999809"
       id="page2"
       margin="0"
       bleed="0" /></sodipodi:namedview><defs
     id="defs1" /><g
     inkscape:label="Layer 1"
     inkscape:groupmode="layer"
     id="layer1"
     transform="translate(1251.3831,218.61601)"><path
       style="fill:#1d1d1b;stroke:none;stroke-width:0.54622"
       d="m -1215.5974,-218.41868 c -2.2587,0.29658 -4.6594,0.0832 -6.937,0.0832 h -13.0069 c -4.3619,0 -9.0247,0.2914 -12.2786,3.61513 -4.8786,4.98348 -3.3296,14.31974 -3.3296,20.66435 0,17.05552 -0.082,34.10802 -10e-5,51.16033 0.021,4.42286 -0.1689,8.90898 0.4336,13.29591 0.39,2.83911 1.3485,5.80226 3.6152,7.71524 3.579,3.02058 8.2468,3.26833 12.7157,3.26833 5.9298,0 11.8558,-0.28676 17.776,-0.28904 18.3893,-0.007 36.8186,-0.0993 55.2069,-0.28849 6.8967,-0.0709 13.7708,0.1626 20.6665,-0.13939 3.2004,-0.14014 6.3654,-0.0676 9.5384,-0.61989 1.0911,-0.18992 2.1823,-0.52822 3.1794,-1.01299 6.3353,-3.08001 5.7777,-11.50748 5.9232,-17.44953 0.4417,-18.03049 0.1467,-36.1689 0.1467,-54.19527 0,-4.53426 0.3307,-9.22027 -0.1201,-13.72947 -0.2755,-2.75547 -0.736,-5.44946 -2.5484,-7.6596 -2.3738,-2.89481 -5.9333,-3.71724 -9.4712,-4.071 -4.6847,-0.46843 -9.4527,-0.26462 -14.1631,-0.26462 -13.0899,0 -26.2241,0.31841 -39.3096,-0.002 -6.1572,-0.15082 -12.3302,-0.1424 -18.4986,-0.1424 -3.1124,0 -6.4532,-0.34377 -9.5384,0.0613 m 90.0364,9.62156 h -11.4172 v 0.28904 h 8.2377 c 0.7425,0 2.4875,-0.32201 3.0928,0.14853 0.7571,0.58848 0.5019,2.87606 0.6647,3.75353 l -7.8041,0.14452 v 0.14452 h 7.8041 c 0,0.96769 0.6041,3.48077 -0.01,4.24842 -0.3228,0.40751 -1.2749,0.23172 -1.7302,0.23172 h -5.0583 v 0.14452 l 6.937,0.14452 v 3.32398 l -123.2761,0.28904 v -1.58973 h 6.7924 v -0.14452 l -6.7924,-0.14452 v -2.89041 h 4.6246 v -0.14452 l -4.6246,-0.14453 c 0,-0.63054 -0.2588,-1.99997 0.1485,-2.51417 0.5326,-0.67247 3.3629,-0.23172 4.1871,-0.23172 v -0.14452 l -4.1911,-0.14452 0.1445,-2.74589 4.3356,-0.14452 v -0.14453 h -4.1911 c 0.01,-0.772 0.063,-2.40729 0.7832,-2.8864 0.8863,-0.58984 3.2224,-0.14853 4.275,-0.14853 v -0.14452 l -4.1911,-0.14452 c 1.0436,-3.27508 4.2351,-2.89009 7.0816,-2.89041 v -0.14452 h -4.4802 c 1.5855,-1.71619 4.7588,-1.88357 6.937,-2.03623 5.7309,-0.40167 11.5942,-0.27611 17.3425,-0.27611 23.0912,0 46.1365,0.28904 69.2254,0.28904 2.7523,0 5.4952,0.0752 8.2377,0.14241 6.2658,0.15348 14.5145,-0.85289 16.9089,6.50555 m -18.9322,-3.90206 v 0.28904 h 8.2377 l 4.4801,-0.14452 -3.613,-0.15021 -9.1048,0.006 m -90.759,2.37991 c -5.9902,1.13013 -4.0044,10.17539 1.8788,9.11461 6.0287,-1.08702 4.0826,-10.23931 -1.8788,-9.11461 m 13.7295,0 c -6.0068,1.13327 -4.0105,10.22525 1.8788,9.11417 5.9965,-1.13133 4.0631,-10.2352 -1.8788,-9.11417 m 13.7294,0 c -5.9509,1.11547 -4.1338,10.11459 1.7343,9.13469 6.1088,-1.02009 4.2856,-10.26307 -1.7343,-9.13469 m -28.9041,6.7249 v -0.14452 l 2.1678,-0.14452 v -0.14453 c -1.5963,0 -2.8484,0.23791 -2.8904,-1.73425 h 2.0233 v -0.28903 h -2.0233 c 0.2577,-1.71959 1.2777,-1.58973 2.7459,-1.58973 v -0.28905 h -1.7343 c 2.9558,-3.74037 8.1325,3.35262 3.1795,5.12347 -0.5121,0.18307 -1.0536,0.26086 -1.5897,0.14886 -0.7147,-0.14931 -1.2928,-0.52192 -1.8788,-0.9367 m 13.7295,-0.14452 2.1678,-0.14452 v -0.14453 c -1.5963,0 -2.8484,0.23791 -2.8905,-1.73425 h 1.8788 v -0.28903 h -1.8788 c 0.2734,-1.8238 1.3145,-1.39346 2.7459,-1.73425 v -0.14453 h -1.7342 c 2.9033,-3.67388 8.115,3.29537 3.1795,5.1219 -0.5745,0.2126 -1.1391,0.23541 -1.7343,0.10694 -0.7087,-0.15299 -1.2747,-0.48321 -1.7342,-1.03773 m 13.7294,0 2.1678,-0.14452 v -0.14453 c -1.5928,0 -2.8727,0.24204 -2.8904,-1.73425 h 1.8788 v -0.28903 h -1.8788 c 0.1478,-1.67965 1.2011,-1.58973 2.6014,-1.58973 v -0.28905 h -1.5898 c 0.7809,-1.27646 2.8256,-1.18258 3.9016,-0.3565 1.3731,1.05419 1.7254,2.95506 0.7075,4.39004 -0.3184,0.44885 -0.7771,0.81364 -1.285,1.02603 -0.5431,0.22705 -1.1568,0.29998 -1.7343,0.19771 -0.7633,-0.13516 -1.3865,-0.47213 -1.8788,-1.06617 m 84.4001,9.1048 v 1.87877 l -5.0582,0.14452 v 0.14452 h 4.9137 l 0.1445,3.75754 -6.2143,0.14452 v 0.14452 h 4.48 l 1.5858,0.23172 0.1485,3.81486 -5.3472,0.14452 v 0.14452 h 5.3472 v 4.1911 l -5.6363,0.14452 v 0.14453 h 5.6363 v 4.04657 h -4.3356 v 0.28905 h 4.3356 v 4.04657 l -6.2143,0.14452 v 0.14453 h 6.2143 l -0.01,3.81485 -1.291,0.23173 h -3.4685 v 0.14451 l 4.7692,0.14453 -0.01,3.81485 -1.4406,0.23173 h -4.1911 v 0.14452 l 4.1911,0.14452 1.4412,0.23172 0.046,1.79157 0.1026,3.17946 -5.6362,0.14451 v 0.14452 h 4.0465 l 1.4412,0.23173 0.1485,1.93608 -0.2317,2.01928 -1.5025,0.14854 h -4.0466 v 0.28904 h 4.1911 l 1.4412,0.23172 0.1485,3.95938 -5.6362,0.14452 v 0.14452 h 4.0465 l 1.4412,0.23173 0.1485,1.64704 -0.2317,1.87476 -1.936,0.14853 -5.0583,0.14452 v 0.14452 c 2.218,0 5.1005,-0.48373 7.226,0.14452 l -0.1445,3.90206 -5.9253,0.14452 v 0.14452 h 5.9253 v 4.04658 l -5.9253,0.14453 v 0.14451 h 5.9253 l -0.3149,3.3813 -1.5639,0.23172 h -4.1911 v 0.14453 l 5.7809,0.14451 c -0.06,0.75479 -0.096,2.5689 -0.7847,3.03081 -0.6012,0.40313 -2.2426,0.004 -2.9728,0.004 -2.7541,0 -5.4884,0.14452 -8.2378,0.14452 v 0.14452 l 7.5152,0.14452 h 3.7575 c -1.2606,3.70189 -4.4223,4.6663 -7.9486,5.09937 -5.9482,0.73052 -11.9525,0.3928 -17.9206,0.39242 -23.5521,-0.002 -47.1253,0.39577 -70.6706,0.43356 -5.4541,0.009 -10.8907,0.38473 -16.3309,-0.26662 -2.8409,-0.34015 -5.9911,-1.28806 -7.5151,-3.92448 l 7.3706,-0.14452 4.9137,-0.14452 v -0.14452 c -2.9357,0 -5.881,-0.0698 -8.8158,0.002 -1.0011,0.0245 -2.6653,0.53705 -3.5821,-0.006 -0.8224,-0.48724 -1.116,-2.16037 -1.187,-3.03092 l 6.7924,-0.14451 v -0.14452 h -5.0582 l -1.8529,-0.23173 -0.4595,-3.23678 8.5268,-0.14451 v -0.14452 l -6.2144,-0.14397 -2.1638,-0.0878 -0.2931,-3.38129 6.3589,-0.14452 v -0.14452 l -6.3589,-0.14453 v -3.61301 l 6.5035,-0.14452 v -0.14453 l -6.5035,-0.14451 v -3.61302 l 5.6363,-0.14452 v -0.14452 l -5.6363,-0.14452 v -3.61302 l 5.2028,-0.14452 v -0.14452 h -5.2028 v -3.75754 h 5.3473 v -0.14452 l -5.3473,-0.14452 v -3.61302 l 6.2144,-0.14452 v -0.14453 h -6.2144 v -3.61301 l 6.648,-0.14452 v -0.14453 h -6.648 v -3.75753 h 5.6363 v -0.14452 l -5.6363,-0.14452 v -3.61302 h 5.9254 v -0.14452 l -5.9254,-0.14452 v -3.61302 h 5.9254 v -0.14452 l -5.9254,-0.14452 v -3.61302 l 6.3589,-0.14452 v -0.14452 h -6.3589 v -3.75754 l 6.3589,-0.14452 v -0.14452 l -6.3589,-0.14452 v -3.61302 l 5.9254,-0.14452 v -0.14452 h -4.0466 c -0.4511,0 -1.2687,0.15113 -1.647,-0.14854 -0.4689,-0.37133 -0.4526,-3.10379 0.1032,-3.37727 1.272,-0.62593 4.0247,-0.0872 5.4459,-0.0872 v -0.14452 l -5.7809,-0.28904 0.1445,-3.17945 6.937,-0.14453 v -0.14452 h -6.937 v -1.73425 l 123.2762,-0.43356 m -104.7717,13.67941 c -2.6601,0.86341 0.8878,3.87874 1.7285,4.66179 3.0564,2.8472 5.9723,5.88008 9.1048,8.64291 0.8957,0.79008 1.7064,1.66746 2.6014,2.45686 0.3622,0.31958 0.9951,0.70049 1.1262,1.19754 0.1219,0.46183 -0.401,0.86737 -0.6929,1.14312 -0.8709,0.82258 -1.7525,1.62145 -2.6012,2.46978 -3.5598,3.55843 -7.2738,7.02769 -10.983,10.43002 -1.0259,0.94106 -1.8908,3.41899 0.433,3.27792 1.4823,-0.09 2.8623,-2.17142 3.9021,-3.07474 3.5869,-3.11595 7.045,-6.55138 10.4055,-9.91059 1.011,-1.01069 3.6131,-2.71445 3.4389,-4.33563 -0.125,-1.16352 -1.5019,-2.12655 -2.2828,-2.88829 -2.2672,-2.21175 -4.5883,-4.40499 -6.937,-6.53008 -2.1104,-1.90958 -4.1969,-3.89372 -6.2144,-5.90071 -0.7588,-0.75486 -1.815,-2.03397 -3.0291,-1.6399 m 36.4134,31.32787 c -3.5106,0.46095 -7.2973,0.0832 -10.839,0.0832 -1.0616,0 -3.1831,-0.21296 -3.6497,1.01387 -0.8881,2.3348 2.9031,1.87654 4.0832,1.87654 h 12.4288 c 1.2814,0 3.6764,0.45553 4.7367,-0.39063 0.9126,-0.72825 0.5198,-2.1093 -0.5457,-2.41704 -1.5961,-0.461 -4.5705,-0.38175 -6.2143,-0.16593 m 50.0042,24.94075 v 0.14452 h 12.1397 l -2.6014,-0.16906 -9.5383,0.0245 m -0.289,0 0.1445,0.14452 -0.1445,-0.14452 m -94.6611,1.58973 v 0.14452 h 8.2377 l -2.6014,-0.28904 z"
       id="path11" /></g></svg>
