<?xml version="1.0" encoding="UTF-8" standalone="no"?>
<!-- Created with Inkscape (http://www.inkscape.org/) -->

<svg
   width="101.5561mm"
   height="99.999992mm"
   viewBox="0 0 101.5561 99.999992"
   version="1.1"
   id="svg1"
   xml:space="preserve"
   xmlns:inkscape="http://www.inkscape.org/namespaces/inkscape"
   xmlns:sodipodi="http://sodipodi.sourceforge.net/DTD/sodipodi-0.dtd"
   xmlns="http://www.w3.org/2000/svg"
   xmlns:svg="http://www.w3.org/2000/svg"><sodipodi:namedview
     id="namedview1"
     pagecolor="#ffffff"
     bordercolor="#000000"
     borderopacity="0.25"
     inkscape:showpageshadow="2"
     inkscape:pageopacity="0.0"
     inkscape:pagecheckerboard="0"
     inkscape:deskcolor="#d1d1d1"
     inkscape:document-units="mm"><inkscape:page
       x="0"
       y="0"
       width="101.5561"
       height="99.999992"
       id="page2"
       margin="0"
       bleed="0" /></sodipodi:namedview><defs
     id="defs1" /><g
     inkscape:label="Layer 1"
     inkscape:groupmode="layer"
     id="layer1"
     transform="translate(565.8673,174.36194)"><path
       style="fill:#252625;stroke:none;stroke-width:0.47133"
       d="m -528.50912,-75.510946 5.98588,0.124704 v -0.124704 l -3.99059,-0.248933 -1.67063,-0.200433 -0.19995,-2.169459 5.48706,0.124705 v -0.124705 l -3.74118,-0.249414 -1.53477,-0.199952 -0.0864,-2.294169 6.60942,0.12471 v -0.12471 l -6.60942,-0.249408 v -2.494121 l 6.11059,0.124705 v -0.124705 l -6.11059,-0.249414 v -2.618824 l 6.98354,0.124708 v -0.124708 l -6.98354,-0.249409 v -2.494121 h 4.36471 v -0.124705 c -1.86433,-1.98e-4 -3.75705,-0.427887 -5.61177,-0.36873 -4.58942,0.146366 -9.48901,0.950653 -13.09413,-2.624213 l 0.87295,-0.124708 v -0.124705 c -1.50002,-9.42e-4 -2.06499,-1.027592 -2.7594,-2.244708 -1.26048,-2.209244 -2.03905,-4.666978 -3.74831,-6.609418 -1.09601,-1.24553 -2.75441,-2.05851 -3.71819,-3.36706 6.14213,0 7.35143,6.947127 12.22119,9.320614 3.57628,1.743053 6.9996,0.924899 10.72471,0.552426 2.32403,-0.232379 4.77212,-0.02126 7.10825,-0.02126 v -0.124708 h -6.36001 l 0.62353,-2.49411 h 6.73413 v -0.124713 l -6.60942,-0.124702 0.81184,-2.418877 1.93169,-0.19995 h 5.11294 v -0.1247 l -6.98353,-0.12471 c 0.23352,-0.68578 0.61855,-1.97947 1.27362,-2.36595 0.50243,-0.29643 1.40512,-0.12817 1.96874,-0.12817 h 4.61412 v -0.1247 l -6.48471,-0.12472 c 0.37757,-0.80777 0.89387,-1.32185 0.62352,-2.2447 l 4.73883,0.1247 v -0.1247 c -1.92714,-0.35777 -3.9203,-0.0858 -5.86118,-0.27059 -5.00969,-0.47705 -10.4665,-1.86358 -14.34119,-5.21647 l 8.10589,0.1247 v -0.1247 c -1.91161,0 -3.82744,-0.20083 -5.73647,-0.24758 -0.76951,-0.0189 -1.91554,0.22165 -2.61882,-0.13001 -0.82496,-0.41249 -1.54654,-1.46117 -1.9953,-2.24123 l 10.97412,0.24939 v -0.1247 c -2.61562,0 -5.24538,-0.13017 -7.85647,-0.24451 -0.87097,-0.0381 -2.32668,0.29658 -3.10465,-0.13308 -0.75073,-0.4146 -1.17229,-1.71378 -1.38477,-2.49065 l 6.36001,0.1247 v -0.24941 l -4.73883,-0.11978 -1.77985,-0.20486 -0.83897,-2.54358 c 2.17136,-0.5167 5.09548,0 7.35765,0 v -0.12471 c -1.66391,0 -3.31915,-0.1247 -4.98824,-0.1247 -0.59881,0 -1.6752,0.15123 -2.20555,-0.15771 -0.54326,-0.31647 -0.90317,-3.09592 -0.37315,-3.45531 0.81708,-0.55403 3.09614,-0.12816 4.07517,-0.12816 v -0.12471 l -4.36471,-0.1247 0.12471,-3.49177 4.98823,-0.12471 v -0.12471 h -4.98823 c 4.7e-4,-0.71543 -0.084,-2.37902 0.44927,-2.91818 0.78659,-0.79533 3.49774,-0.32416 4.53896,-0.32416 v -0.12472 h -4.61411 c 0.10598,-0.82059 0.22602,-2.56631 0.83897,-3.1671 0.33021,-0.32366 0.98454,-0.18587 1.40573,-0.23557 1.34382,-0.15855 2.76153,-0.2138 4.1153,-0.2138 v -0.1247 l -5.48706,0.1247 c 0.18296,-0.79044 0.52089,-2.26204 1.17143,-2.79299 0.4468,-0.36466 1.39697,-0.32191 1.94622,-0.32456 1.50444,-0.007 2.99057,-0.23711 4.48941,-0.24951 v -0.12471 l -6.36001,0.24942 c 0.48893,-0.82907 1.02039,-2.25166 1.89225,-2.74007 1.04016,-0.58269 3.52016,-0.37744 4.71717,-0.37758 v -0.12471 l -4.48942,0.12471 -0.1247,-2.74353 3.86589,-0.1247 v -0.12472 c -0.77773,0 -3.39691,0.40857 -3.86242,-0.28905 -0.38358,-0.57482 -0.12817,-1.90597 -0.12817,-2.57918 l 3.86589,-0.12471 v -0.12471 l -3.86589,0.12471 c 7e-5,-0.73496 -0.12392,-2.36759 0.44754,-2.91769 0.33881,-0.32615 0.99711,-0.18622 1.42305,-0.20486 1.03973,-0.0456 2.07567,-0.23588 3.11765,-0.2445 v -0.12472 l -4.61412,0.12472 0.49882,-1.9953 c 2.87493,0.0238 6.13407,1.69597 8.48,3.24273 1.00321,0.66146 2.42979,2.29988 3.61648,2.46035 1.28674,0.17399 3.0834,-0.71363 4.36471,-0.96416 2.92218,-0.5714 5.99759,-0.94134 8.97883,-0.73718 2.29813,0.15739 4.61116,0.43949 6.85882,0.97206 1.1018,0.26107 2.73752,1.01171 3.86589,0.70849 1.37973,-0.37075 2.83375,-2.18752 4.11529,-2.93731 2.41621,-1.41366 4.93202,-2.05288 7.60707,-2.74498 l 0.49882,1.49647 -1.49647,0.24941 v 0.1247 c 0.40012,0 0.98173,-0.0994 1.33395,0.12817 0.49738,0.32139 0.76869,2.10786 0.33669,2.54012 -0.39233,0.39258 -1.4094,0.19995 -1.92005,0.19995 v 0.1247 c 0.53836,0 1.49093,-0.18193 1.95566,0.12817 0.6925,0.46212 0.1701,2.29345 0.16433,2.98949 h -8.6047 v 0.12471 l 6.2353,0.1247 2.1583,0.19996 0.2111,2.91769 c -1.84107,0 -4.22124,-0.39691 -5.98588,0.12471 v 0.1247 c 1.61299,0 3.26148,-0.0999 4.86353,0.0891 0.46008,0.0543 1.05769,-0.0728 1.47348,0.16378 0.8923,0.50777 1.51502,2.20491 1.89359,3.11418 l -6.73413,0.12471 v 0.1247 h 4.86354 c 0.55664,0 1.4852,-0.17551 1.94621,0.19996 0.77774,0.63342 1.10038,2.5953 1.29615,3.54122 l -5.11296,0.12471 v 0.1247 h 5.23766 l 0.49883,3.36707 h -5.48707 v 0.1247 l 5.61177,0.1247 0.1247,3.99059 -7.23294,0.12472 v 0.1247 h 7.23294 l -0.1247,3.36707 h -4.86354 v 0.1247 h 4.86354 c -0.0708,0.89626 -0.1841,3.03576 -0.92654,3.63417 -0.41904,0.33775 -1.07112,0.2056 -1.56758,0.25287 -1.24503,0.11858 -2.48859,0.22825 -3.74118,0.22825 v 0.1247 l 5.23765,-0.1247 c -0.17636,0.76191 -0.55472,2.19124 -1.27362,2.61537 -0.557,0.32862 -1.59153,0.12119 -2.21815,0.12865 -1.57657,0.0187 -3.16139,0.24457 -4.73882,0.24892 v 0.12471 l 6.98354,-0.12471 -2.26589,2.74008 -1.3506,0.16377 -4.23999,0.2138 v 0.12472 l 5.23764,-0.12472 c -2.49429,3.08371 -6.048,2.783 -9.60236,2.87007 -1.41104,0.0346 -2.8287,0.21846 -4.23999,0.24759 v 0.1247 l 9.22824,-0.24941 v 0.12471 c -4.44131,1.50252 -8.86946,2.61882 -13.59295,2.61882 v 0.1247 l 3.49177,0.12471 1.24705,2.12001 -4.3647,0.1247 v 0.1247 c 1.15093,0 3.46177,-0.44359 4.46286,0.14703 0.71909,0.42426 1.21481,1.94867 1.39831,2.72122 l -6.60941,0.249406 v 0.124713 h 6.85883 l 0.45927,2.454476 -1.20751,0.289048 h -3.61647 v 0.124703 l 5.11294,0.124712 0.24941,2.61882 -4.61411,0.124704 v 0.124704 h 3.24235 l 1.29651,0.199953 0.32466,2.418873 -3.86587,0.124709 v 0.124704 c 0.9291,0.172493 2.8442,-0.360326 3.57683,0.128169 0.5683,0.378935 0.29637,1.811395 0.16434,2.365952 l -4.73882,0.124704 v 0.124705 l 4.73882,-0.124705 0.1247,2.369412 -4.48941,0.249413 v 0.124704 h 4.48941 l -0.1247,2.244708 -3.86589,0.124709 v 0.124704 h 3.86589 v 2.244708 l -3.86589,0.249413 v 0.124705 l 3.65478,0.07534 0.0864,2.044665 -3.49176,0.249409 v 0.12471 l 3.49176,-0.12471 v 2.244708 l -3.24235,0.124709 c 0.86656,0.363626 1.94587,-0.0075 2.86285,0.143185 0.85652,0.14073 1.21586,1.057715 2.2501,1.061439 1.56818,0.0057 3.28826,-0.667454 4.73882,-1.197988 3.70795,-1.356147 7.10236,-3.216546 10.3506,-5.451168 3.54413,-2.438192 6.43178,-5.681802 9.10353,-9.021361 9.08591,-11.356974 13.29996,-26.046354 11.56205,-40.529444 -0.79398,-6.61678 -3.06433,-13.17206 -6.35943,-18.95529 -2.86719,-5.03221 -6.52127,-9.49946 -11.06381,-13.11896 -5.44945,-4.34216 -12.15134,-8.13945 -18.9553,-9.84003 -11.3219,-2.82977 -24.51031,-1.835 -35.16708,3.04452 -12.98774,5.94684 -23.35315,17.9978 -27.40047,31.63682 -1.56545,5.27536 -2.52101,11.32509 -2.14368,16.83531 0.33593,4.90561 0.69493,9.68789 2.0031,14.46589 2.613,9.543834 8.4073,18.463435 16.31752,24.395599 4.15016,3.112359 8.7851,5.651609 13.71765,7.279614 1.36732,0.45129 4.66098,1.673522 5.23766,-0.374019 m 30.92707,-93.030644 v 0.1247 l -11.22354,-0.37411 v 0.1247 c 2.59056,0 5.15248,0.18633 7.73177,0.36296 2.70126,0.18499 4.89604,0.22584 7.35765,1.47722 1.01199,0.51446 2.99537,1.20223 3.61647,2.15041 l -9.97647,-0.37412 v 0.12471 c 2.5336,2.9e-4 5.08135,0.3147 7.60707,0.48767 1.04332,0.0714 2.373,-0.1076 3.36705,0.22343 1.45701,0.48518 3.47962,2.01714 4.48942,3.15479 l -8.72942,-0.24941 v 0.1247 c 1.96158,0 3.90526,0.28357 5.86119,0.36921 1.10492,0.0484 2.59016,-0.12176 3.61647,0.33563 1.54915,0.69041 3.40357,2.66956 4.36471,4.03398 l -9.47765,-0.49882 v 0.12471 c 2.20338,0.006 4.41294,0.33371 6.60941,0.48766 0.99013,0.0694 2.46986,-0.0816 3.36523,0.38826 1.28886,0.67633 2.65919,2.86676 3.36889,4.11232 l -7.98119,-0.37412 v 0.12471 c 1.75658,0 3.48723,0.28421 5.23766,0.3693 0.85757,0.0417 2.21618,-0.0442 2.9813,0.38191 1.14787,0.63921 2.65445,3.59595 2.87988,4.86055 l -7.85648,-0.37412 v 0.12471 c 2.00404,0.001 4.12013,0.17486 6.11059,0.40973 0.58614,0.0691 1.59363,-0.0812 2.06785,0.30637 0.93688,0.76566 1.54117,3.01953 1.92274,4.14743 l -5.86118,-0.1247 v 0.1247 l 4.36471,0.23825 1.64071,0.22844 1.22753,3.5239 -7.60706,-0.24941 v 0.1247 c 1.88653,0 3.8664,0.0756 5.73647,0.32121 0.50616,0.0664 1.37905,-0.12232 1.8066,0.18109 0.69054,0.49002 1.10411,3.21316 0.93694,3.98712 -1.98249,-0.36806 -4.49108,-0.50114 -6.48471,-0.24941 v 0.1247 l 6.73412,0.37412 0.49882,3.9906 -5.36236,-0.12472 v 0.12472 l 5.36236,0.2494 0.24942,3.61647 -6.85884,-0.24941 v 0.24941 c 1.70566,0 3.41978,0.014 5.11295,0.21381 0.42328,0.05 1.32213,-0.13763 1.61772,0.23557 0.59504,0.7513 0.006,2.88842 0.003,3.79063 l -6.73413,-0.24941 v 0.12471 c 1.56872,0.0324 3.17952,0.15453 4.73883,0.3385 0.50752,0.0599 1.24278,-0.11719 1.70624,0.11086 0.54147,0.26642 0.27989,3.58758 -0.2494,3.83961 -0.44626,0.21248 -1.22011,-0.0465 -1.70626,-0.0489 -1.49638,-0.007 -2.993,-1e-4 -4.48941,-1e-4 v 0.12471 l 6.36001,0.24941 c -0.033,0.76696 -0.0508,3.12505 -0.69695,3.61291 -0.39137,0.29551 -1.21649,0.009 -1.67247,0.004 -1.5791,-0.0187 -3.15958,-4.7e-4 -4.73882,-4.7e-4 v 0.12471 l 6.48471,0.2494 c -0.11111,0.82508 -0.34492,3.24599 -1.06125,3.73725 -0.41049,0.28151 -1.32515,0.004 -1.80699,0.004 -1.75219,-0.003 -3.48506,-0.12471 -5.23764,-0.12471 v 0.24941 l 7.10823,0.24942 c -0.22701,0.98125 -0.69968,3.52015 -1.55873,4.11182 -0.47221,0.32525 -1.50705,0.12818 -2.05774,0.12818 -1.79369,0 -3.5768,0.0879 -5.36236,0.12471 v 0.1247 h 7.35766 c -0.31625,0.93479 -0.88479,2.9646 -1.77244,3.4883 -0.42563,0.25111 -1.11995,0.12817 -1.59462,0.12817 h -3.86589 v 0.12471 c 1.62779,0.387561 3.71336,0.2084 5.36236,0 -0.15757,0.883323 -1.14625,3.050594 -2.0183,3.416521 -1.43953,0.60405 -3.91294,0.199957 -5.46406,0.199957 v 0.124703 h 5.36236 c -0.35095,0.925871 -1.38457,2.744911 -2.26636,3.238888 -0.41299,0.231353 -1.01655,0.120924 -1.47483,0.181095 -1.65985,0.217938 -3.43774,0.196487 -5.11294,0.196487 v 0.124704 l 6.36001,-0.124704 c -0.60899,0.974625 -1.68941,2.686169 -2.74536,3.188276 -1.14511,0.544513 -3.22751,0.30349 -4.48759,0.30349 v 0.124709 h 4.11529 c -1.36287,2.922474 -4.24494,3.491453 -7.10824,3.491764 v 0.124705 l 3.49177,-0.124705 c -1.38119,2.403749 -4.41024,3.505972 -6.98353,3.616475 v 0.124704 l 2.24471,-0.124704 c -0.67744,0.817649 -1.83837,1.305686 -2.74354,1.845567 -2.53329,1.510978 -5.77694,3.330156 -8.72941,3.766201 0.14468,-7.009878 1.04748,-14.252248 -0.45669,-21.200007 -0.54266,-2.506606 -1.90551,-4.408666 -2.78567,-6.734126 2.10428,0 4.3729,-0.33717 6.36001,-1.05192 1.88651,-0.67857 3.74318,-1.46907 5.36236,-2.67628 7.27847,-5.42657 8.60551,-14.94212 6.92752,-23.333 -0.50643,-2.53246 -1.28477,-4.93621 -2.47034,-7.23294 -0.50446,-0.97722 -1.63871,-1.96788 -1.93333,-2.99295 -0.21593,-0.75126 0.27615,-1.84304 0.33331,-2.61882 0.17481,-2.37244 0.0298,-4.54326 -0.56627,-6.85883 -0.20612,-0.80059 -0.46093,-1.98482 -1.08627,-2.56658 -0.8053,-0.74917 -2.2458,-0.36342 -3.19992,-0.17686 -2.83117,0.5536 -5.49912,1.59935 -7.85648,3.27931 -0.70132,0.4998 -1.76876,1.9312 -2.61882,2.0027 -1.24689,0.10488 -2.99716,-0.78428 -4.24001,-1.04171 -2.60382,-0.5393 -5.20025,-0.73531 -7.85647,-0.61901 -2.59548,0.11365 -5.19804,0.54333 -7.73177,1.11879 -0.90332,0.20517 -2.33405,1.03526 -3.24235,0.87421 -1.02279,-0.18137 -2.44248,-2.00836 -3.36707,-2.62095 -2.57457,-1.70581 -6.18954,-3.36459 -9.35295,-3.27853 -1.39946,0.0381 -1.76532,1.26571 -2.12307,2.4051 -0.76912,2.44962 -1.14425,4.92478 -0.83427,7.48236 0.10453,0.86243 0.68511,2.2055 0.22844,2.99294 -0.7422,1.27983 -1.73933,2.3604 -2.33073,3.74118 -3.88957,9.0814 -4.2377,23.00887 4.81023,29.2625 1.76594,1.22056 3.68904,2.21205 5.73647,2.86873 2.35486,0.75527 4.87609,1.28313 7.35765,1.28997 -0.57991,1.53219 -1.4984,2.89606 -1.99212,4.489416 -0.24121,0.778483 -0.23817,2.164401 -0.74997,2.797894 -0.30195,0.373762 -1.06136,0.351934 -1.49792,0.409342 -1.43393,0.188547 -2.92794,0.37582 -4.3647,0.17608 -1.95499,-0.27177 -3.76796,-0.894318 -5.23718,-2.272223 -2.11533,-1.983869 -3.15208,-4.732839 -5.61224,-6.430049 -1.66991,-1.15205 -4.53699,-2.49347 -6.48423,-1.18394 -1.07907,0.72568 -1.23657,1.88287 -0.43329,2.88151 1.37287,1.70677 3.37664,2.57916 4.6299,4.494323 1.40134,2.141453 2.10208,4.690585 3.64668,6.734124 2.44144,3.230054 6.15235,4.685135 10.11389,4.858621 1.68585,0.07382 3.31737,-0.239902 4.98824,-0.244502 -0.6512,3.507715 -0.38387,7.310105 -0.37412,10.849419 -1.02444,-0.04681 -2.02824,-0.506742 -2.99294,-0.831464 -2.65954,-0.895238 -5.3399,-2.194049 -7.73177,-3.657951 v -0.124705 h 2.2447 v -0.124751 c -2.05548,-0.0057 -5.20927,-0.519142 -6.23529,-2.618826 l 3.36705,0.124705 v -0.124705 c -2.29003,-0.04728 -5.23982,-0.03903 -6.48471,-2.369415 h 3.61648 v -0.124705 c -2.25786,-0.0015 -4.43267,0.15602 -5.86118,-1.870589 l 2.99294,-0.124705 v -0.124709 c -2.18137,-0.172153 -4.03038,0.09055 -5.11294,-2.244707 l 3.61647,-0.124705 v -0.124704 c -1.12892,-0.142671 -2.9907,0.258892 -3.98876,-0.252878 -0.75035,-0.38475 -1.39665,-1.502415 -1.74772,-2.241243 l 4.24001,-0.124705 v -0.124708 l -2.99294,-0.124224 -1.55661,-0.128649 -1.43634,-2.241243 h 3.74118 v -0.249413 c -2.37126,0 -4.58812,0.450048 -5.11295,-2.49412 l 4.24001,-0.124702 v -0.124703 c -1.08729,0 -3.5197,0.459396 -4.44072,-0.128179 -0.63222,-0.403319 -1.00647,-1.797752 -1.17105,-2.490652 l 4.61413,-0.12471 v -0.1247 l -3.24237,-0.11355 -1.44739,-0.0146 -1.04672,-2.36596 4.73883,-0.2494 v -0.12471 h -3.36707 c -0.41109,0 -1.07711,0.12165 -1.43287,-0.12817 -0.57184,-0.40153 -0.75901,-1.84391 -0.81184,-2.49066 l 5.11295,-0.2494 v -0.12471 c -1.20441,0 -2.41245,-0.0277 -3.61648,0.002 -0.43555,0.0107 -1.04785,0.23647 -1.45866,0.0471 -0.4586,-0.21135 -1.00297,-2.3341 -0.49516,-2.59254 0.78661,-0.40036 2.6774,-0.19986 3.57501,-0.19996 v -0.24941 l -3.99059,0.12471 -0.37412,-2.61882 4.48941,-0.24942 v -0.1247 c -0.99678,0 -1.99647,-0.0226 -2.99294,0.002 -0.39508,0.009 -0.9608,0.21391 -1.33261,0.0458 -0.53174,-0.24045 -0.80622,-2.53918 -0.24892,-2.82331 0.43488,-0.22171 1.10851,-0.0768 1.58153,-0.0975 1.16357,-0.0509 2.32548,-0.24128 3.49176,-0.2445 v -0.12471 l -5.48705,0.12471 0.003,-2.66828 1.74241,-0.20486 4.61412,-0.36922 v -0.1247 l -6.48471,0.24941 c -0.0522,-0.66083 -0.44586,-2.10096 0.003,-2.66829 0.28413,-0.35873 1.09344,-0.18735 1.49301,-0.20485 1.46073,-0.064 2.89719,-0.24451 4.3647,-0.24451 v -0.1247 c -1.35697,0 -2.76429,-0.10741 -4.11529,0.0212 -0.45329,0.0431 -1.27155,0.29713 -1.67016,-0.0246 -0.3867,-0.31216 -0.17919,-2.27589 0.31687,-2.43657 0.52825,-0.17111 1.17751,-0.0248 1.72741,-0.0897 1.71218,-0.20202 3.513,-0.33832 5.23765,-0.33852 v -0.1247 l -7.35765,0.24942 0.37267,-2.27684 1.37321,-0.21911 3.36706,-0.24759 v -0.1247 l -4.86353,0.1247 0.37412,-2.36941 6.73412,-0.37411 v -0.12472 l -6.60942,0.24942 0.48103,-2.29416 1.63897,-0.25289 5.48706,-0.32119 v -0.24941 l -7.10823,0.37411 0.58956,-2.12143 2.7775,-0.37749 6.23529,-0.49402 v -0.1247 l -8.97883,0.49882 0.72871,-2.27684 1.14188,-0.2702 3.49177,-0.3212 v -0.1247 l -4.48941,0.24942 0.92509,-2.27685 2.06785,-0.37749 5.86118,-0.58802 v -0.12471 l -7.73177,0.49883 c 0.1847,-0.77761 0.71942,-2.41615 1.42045,-2.86478 0.41992,-0.26871 1.20989,-0.21388 1.6972,-0.27222 1.24586,-0.14916 2.48437,-0.35462 3.74118,-0.35477 v -0.12471 l -5.23765,0.24941 c 0.33551,-0.80562 0.8932,-2.26825 1.66179,-2.74054 0.4565,-0.28053 1.18744,-0.23389 1.70527,-0.30522 1.39427,-0.19205 2.83172,-0.44212 4.24,-0.446 v -0.12471 l -5.61176,0.37412 c 1.04972,-3.28848 4.66849,-3.24236 7.60706,-3.24236 v -0.2494 l -5.48706,0.37412 c 0.41989,-0.81372 1.31991,-2.13632 2.14117,-2.57919 1.29118,-0.69629 4.00858,-0.66221 5.46589,-0.66318 v -0.1247 l -4.98824,0.37411 c 0.90492,-2.6618 4.21779,-2.94357 6.60942,-2.99294 v -0.1247 l -3.9906,0.24941 c 1.69485,-2.40601 4.2219,-2.68653 6.98354,-2.74353 v -0.1247 l -4.1153,0.2494 c 2.01942,-2.63865 5.55359,-2.74353 8.60471,-2.74353 v -0.1247 l -5.11294,0.24941 v -0.12471 c 1.16015,-0.78265 2.41985,-1.76314 3.74118,-2.24903 2.25033,-0.82753 5.59704,-0.74391 7.98118,-0.74391 v -0.1247 l -6.73412,0.2494 v -0.1247 c 1.70808,-0.71114 3.42233,-1.75996 5.23765,-2.17889 2.67618,-0.6176 5.86618,-0.43993 8.60471,-0.43993 v -0.1247 l -7.10824,0.1247 v -0.1247 l 6.1106,-1.59954 8.97883,0.10307 v -0.12471 l -7.10824,-0.24941 c 1.98394,-1.05473 5.6885,-0.60162 7.85647,-0.39529 5.89282,0.56084 11.30577,0.42757 16.8353,3.01412 m 20.7012,30.42825 0.1247,0.1247 -0.1247,-0.1247 m 2.36941,21.0753 0.12471,0.12471 -0.12471,-0.12471 m -61.35534,7.98119 v 0.1247 l 12.09649,0.24942 -4.24001,-0.24942 -7.85648,-0.1247 m 12.4706,9.602367 v 0.124703 l 2.61883,-0.124703 h -2.61883 m -6.2353,7.108232 v 0.124705 l 5.98589,0.124704 c -1.65623,-0.696554 -4.20991,-0.249409 -5.98589,-0.249409 z"
       id="path4" /></g></svg>
