<?xml version="1.0" encoding="UTF-8" standalone="no"?>
<!-- Created with Inkscape (http://www.inkscape.org/) -->

<svg
   width="115.96515mm"
   height="100mm"
   viewBox="0 0 115.96515 100"
   version="1.1"
   id="svg1"
   xml:space="preserve"
   inkscape:version="1.4.2 (f4327f4, 2025-05-13)"
   sodipodi:docname="hand-drawn-icons.svg"
   xmlns:inkscape="http://www.inkscape.org/namespaces/inkscape"
   xmlns:sodipodi="http://sodipodi.sourceforge.net/DTD/sodipodi-0.dtd"
   xmlns="http://www.w3.org/2000/svg"
   xmlns:svg="http://www.w3.org/2000/svg"><sodipodi:namedview
     id="namedview1"
     pagecolor="#ffffff"
     bordercolor="#000000"
     borderopacity="0.25"
     inkscape:showpageshadow="2"
     inkscape:pageopacity="0.0"
     inkscape:pagecheckerboard="0"
     inkscape:deskcolor="#d1d1d1"
     inkscape:document-units="mm"
     inkscape:zoom="0.27015116"
     inkscape:cx="-3535.0579"
     inkscape:cy="760.68523"
     inkscape:window-width="2560"
     inkscape:window-height="1494"
     inkscape:window-x="-11"
     inkscape:window-y="-11"
     inkscape:window-maximized="1"
     inkscape:current-layer="layer1"><inkscape:page
       x="1.5779058e-13"
       y="0"
       width="115.96514"
       height="100"
       id="page2"
       margin="0"
       bleed="0" /></sodipodi:namedview><defs
     id="defs1" /><g
     inkscape:label="Layer 1"
     inkscape:groupmode="layer"
     id="layer1"
     transform="translate(940.87607,191.38004)"><path
       style="fill:#040404;stroke:none;stroke-width:1.0734"
       d="m -921.18717,-189.39201 v -0.28401 l 0.85201,-0.284 v -0.56801 c -1.62595,-0.48061 -3.42506,-0.284 -5.11208,-0.284 -4.28626,0 -12.09734,-1.23766 -14.76558,3.12821 -1.00264,1.64055 -0.57064,4.1159 -0.57064,5.95992 v 13.9162 c 0,17.68401 0.27832,35.41571 0.28401,53.10878 10e-4,4.90996 0.52066,9.85931 0.568,14.768213 0.0168,1.738578 -0.16853,5.505713 0.85969,6.955245 1.31006,1.846873 5.72766,1.28162 7.66044,1.280869 7.40893,-0.0032 14.74937,0.808539 22.15232,-0.16348 7.94727,-1.043485 16.14181,-0.349467 24.14036,-0.699707 19.67385,-0.86148 39.67454,-0.83867 59.35686,-0.840838 l 0.85092,-22.436322 -0.56692,-48.2807 -0.284,-17.89226 -0.45536,-5.96037 -3.23669,-0.61884 -9.08813,-0.52089 -21.58432,-0.97868 -8.23612,-0.44135 v 0.284 h 0.56801 v 0.28401 l -4.82807,0.85202 c 0.34663,-0.91052 0.89277,-1.62934 0,-2.27204 -0.34129,2.13219 -4.47951,0 -6.53209,0 -0.68461,1.30537 -1.72232,1.49042 -3.12405,1.42002 l 0.56801,-1.42002 -7.95212,1.98803 c -0.14682,-3.18914 -4.79488,-0.99409 -6.53209,-0.85202 v -1.13601 c -3.47653,0 -6.77475,0.68977 -10.22415,0.84083 -5.00673,0.21926 -9.90413,-0.39792 -14.76822,1.1472 m 90.88133,5.96408 0.568,85.769249 -30.10444,-0.57764 -2.84003,-0.983504 -2.84005,0.420752 -8.23612,0.572391 c -0.15628,-3.467718 -6.58713,-1.295156 -8.52012,-0.852013 -0.30094,-2.302855 -5.69192,0.28047 -6.8161,0.852013 v -1.420024 c -9.11058,-1.542574 -19.99935,-0.654934 -28.96842,1.420024 l 0.85201,-1.420024 -15.05223,0.284 -0.568,-82.929194 66.45697,-1.69987 36.06853,0.56384 m -50.83675,57.93685 0.28401,1.42003 h 0.284 l -0.284,-5.96409 c 3.34366,-1.16473 2.04372,-5.03781 1.70403,-7.66811 l 0.85201,0.284 c 0.96344,-2.64351 0.74647,-5.73667 1.3065,-8.52013 1.03473,-5.14278 3.02324,-10.60992 2.87992,-15.90423 -0.0399,-1.47415 -0.28341,-3.35035 -1.44302,-4.38168 -0.9357,-0.8322 -3.52165,-1.41191 -4.30148,-0.0724 -1.68827,2.90005 -1.68915,8.24816 -2.30754,11.55412 -1.71474,9.1673 -3.27868,18.3509 -4.82105,27.5484 -0.45587,2.71838 -3.34242,11.39733 1.01417,11.57491 1.3699,0.0558 1.72996,-1.15444 2.21089,-2.20278 1.13441,-2.47275 1.46429,-5.27702 2.62156,-7.66811 m 19.88029,0 c 3.29475,0 5.98401,-0.36515 8.16796,-3.13522 0.77032,-0.97706 1.06914,-2.33593 1.91594,-3.21697 1.70656,-1.77554 4.69622,-4.9168 4.90083,-7.56401 0.27673,-3.58037 -2.78562,-7.9024 -4.8914,-10.50816 -2.00093,-2.47602 -6.63375,-10.59153 -10.49019,-7.3806 -1.19158,0.99212 -0.43296,3.94932 0.0859,5.10857 1.43886,3.21464 4.41952,5.42508 6.43743,8.23612 0.64809,0.90282 1.88307,2.3667 1.72681,3.57153 -0.21388,1.64939 -2.64599,3.64376 -3.62302,4.94859 -2.13701,2.854 -3.93567,6.33338 -4.23026,9.94015 m -39.76058,-3.12405 h -0.85201 l -0.56801,-2.55604 c 0.82252,-1.20981 -0.24096,-2.1619 -1.05932,-3.12404 -1.579,-1.85641 -4.57578,-4.0096 -5.0575,-6.53209 -0.28216,-1.47744 0.92987,-2.88818 1.75858,-3.97607 2.0252,-2.65854 7.62152,-8.16521 5.18483,-11.89026 -0.90383,-1.38172 -4.19988,-1.75332 -5.45612,-0.64624 -1.08221,0.95373 -1.59234,3.04931 -2.30797,4.30039 -1.83224,3.20312 -4.07654,6.26789 -5.55758,9.65614 -0.44995,1.02937 -1.38694,2.52667 -1.15749,3.69205 0.27367,1.39002 1.97083,2.81097 2.76268,3.97606 2.4249,3.56786 4.40574,8.13023 8.04985,10.66462 2.2855,1.5895 4.06353,-1.6561 4.26006,-3.56452 m -1.42002,-2.27203 -0.284,0.28401 z"
       id="path10" /></g></svg>
