<?xml version="1.0" encoding="UTF-8" standalone="no"?>
<!-- Created with Inkscape (http://www.inkscape.org/) -->

<svg
   width="98.760834mm"
   height="100mm"
   viewBox="0 0 98.760834 100"
   version="1.1"
   id="svg1"
   xml:space="preserve"
   xmlns:inkscape="http://www.inkscape.org/namespaces/inkscape"
   xmlns:sodipodi="http://sodipodi.sourceforge.net/DTD/sodipodi-0.dtd"
   xmlns="http://www.w3.org/2000/svg"
   xmlns:svg="http://www.w3.org/2000/svg"><sodipodi:namedview
     id="namedview1"
     pagecolor="#ffffff"
     bordercolor="#000000"
     borderopacity="0.25"
     inkscape:showpageshadow="2"
     inkscape:pageopacity="0.0"
     inkscape:pagecheckerboard="0"
     inkscape:deskcolor="#d1d1d1"
     inkscape:document-units="mm"><inkscape:page
       x="0"
       y="0"
       width="98.760834"
       height="100"
       id="page2"
       margin="0"
       bleed="0" /></sodipodi:namedview><defs
     id="defs1" /><g
     inkscape:label="Layer 1"
     inkscape:groupmode="layer"
     id="layer1"
     transform="translate(412.69799,194.02787)"><path
       style="fill:#30302e;stroke:none;stroke-width:0.789515"
       d="m -387.61358,-180.93154 -0.62668,-0.20889 c -0.092,-4.45451 -2.35943,-9.28197 -6.26678,-11.5987 -5.38032,-3.19007 -13.40631,-0.0979 -16.05732,5.33192 -5.40659,11.07382 8.02258,22.47042 18.14625,15.44676 1.70729,-1.18449 3.02642,-3.01355 3.6403,-5.00213 0.39211,-1.27018 0.22744,-2.98763 1.16423,-3.96896 m -5.43121,-7.72902 -10.23573,-0.20889 v 0.20889 c 2.59795,0 5.144,0.22206 7.72902,0.39909 0.9741,0.0667 2.1736,-0.17918 3.06537,0.31818 1.24193,0.69264 3.02763,5.99201 1.46385,6.9044 -1.67828,0.97919 -5.14211,0.31625 -7.03593,0.31625 v 0.20889 l 7.31124,-0.20889 c -0.0129,1.0519 -0.0794,2.79143 -1.25336,3.13338 0.13244,2.29827 -1.80895,2.29782 -3.55117,2.29782 -3.13451,0 -6.75993,-0.7135 -9.81795,-0.20889 v 0.20889 l 11.69798,0.41778 c -1.48137,1.99385 -4.163,2.32541 -6.47566,2.29702 -1.80908,-0.0222 -3.73391,-0.654 -5.22232,-1.68179 -6.72543,-4.64412 -4.51244,-13.47012 2.08893,-16.86837 2.87891,-1.48202 8.57055,-0.48112 10.23573,2.46624 m -7.31124,3.76006 v 0.20889 h 3.55117 l -3.55117,-0.20889 m 3.96896,0.20889 v 0.2089 l 2.7156,0.20889 v -0.41779 h -2.7156 m 37.60065,30.7072 c 0.11982,-1.5182 0.21045,-3.09364 0.47114,-4.59563 0.093,-0.53588 0.48308,-1.23481 0.0257,-1.7016 -0.83046,-0.84741 -3.33252,-0.92077 -4.46573,-1.09959 -3.72276,-0.58742 -7.51377,-0.95888 -11.2802,-0.95888 -1.16593,0 -3.11078,-0.36603 -4.1469,0.24629 -0.85574,0.50572 -0.99417,2.19831 -1.15568,3.09599 -0.88473,4.91772 -0.33751,10.66357 -0.33751,15.66694 v 28.61827 12.74244 c 0,1.41684 -0.54375,3.909754 -0.0746,5.19975 0.49719,1.367211 3.24394,1.633973 4.46137,1.693707 3.96698,0.19464 7.92624,0.215278 11.90687,0.20889 1.3598,-0.0024 3.65904,0.07066 4.38674,-1.253355 l 1.04447,0.417788 c 0.53616,-2.253102 -0.18076,-4.80451 -0.2081,-7.10234 -0.0729,-6.12932 -0.44809,-12.23131 -0.41842,-18.38255 0.0288,-5.97487 0.90859,-13.68101 4.6045,-18.59143 2.2229,-2.95336 6.87815,-5.11557 10.4356,-3.05102 2.13305,1.2379 3.59163,3.7448 4.46717,5.97551 3.4099,8.68785 2.60914,19.06609 2.20916,28.20049 -0.12148,2.77422 -0.23844,5.58411 -0.42825,8.35571 -0.0726,1.060932 -0.58213,2.708887 0.056,3.676895 0.68907,1.045113 3.45538,0.500947 4.55824,0.500947 3.98357,0 7.94097,0.416256 11.90688,0.417788 1.23121,4.74e-4 3.29891,0.397884 4.17044,-0.684865 1.29376,-1.607294 1.10882,-3.669385 1.41823,-5.581915 0.79609,-4.92067 0.77549,-9.87969 1.11458,-14.83137 0.21203,-3.09623 0.12499,-6.0977 -0.0105,-9.19126 -0.6074,-13.87152 -3.58401,-32.12538 -19.22633,-36.70771 -2.25439,-0.66041 -4.34553,-0.89294 -6.68456,-0.89294 -3.03068,0 -5.71244,0.39764 -8.56459,1.47288 -2.85813,1.0775 -5.3893,2.82422 -7.51708,5.00278 -0.96568,0.98874 -1.6597,2.25876 -2.71865,3.13339 m -33.21391,59.116577 c 0.55756,0.81594 1.58281,1.062885 1.7622,-0.212916 0.42895,-3.050686 0.16683,-7.149001 -0.12653,-10.231701 -0.76894,-8.08012 -0.1182,-16.55809 0.23613,-24.64932 0.23589,-5.38653 -0.14616,-10.93877 0.48565,-16.29362 0.30298,-2.56786 -0.0596,-5.16135 0.18471,-7.72902 0.15753,-1.65528 0.74922,-4.2439 0.29158,-5.8398 -0.32879,-1.14659 -1.32715,-0.94863 -2.20707,-0.63586 -0.50185,-1.668 -2.94944,-1.39313 -4.38674,-1.5825 -3.76456,-0.49597 -7.74588,-0.51977 -11.48909,0.13782 -1.322,0.23223 -3.38931,0.591 -3.84952,2.08038 -1.13303,3.66686 -0.71293,8.29862 -0.97371,12.10674 -0.78595,11.47732 -0.60797,22.95589 -0.60797,34.46726 0,3.9782 0.10871,7.94278 0.20583,11.90687 0.0363,1.480967 -0.46709,3.823284 0.12911,5.191371 0.51447,1.180594 3.57336,1.004934 4.67848,1.163248 3.65838,0.524096 7.37316,0.956853 11.0713,0.956624 1.45964,-1.03e-4 3.41222,0.115893 4.59564,-0.835576 m 64.96556,-59.743257 -15.45804,-1.04446 v 0.2089 c 3.4427,0 6.80764,0.67591 10.23573,0.82735 1.67855,0.0741 4.55656,-0.12725 6.05482,0.64069 1.51217,0.77508 2.70098,2.97006 3.55423,4.38094 l -5.4312,-0.4692 -7.72902,-0.57526 v 0.2089 c 3.27583,0.25855 6.55715,0.73005 9.81795,1.1647 1.10412,0.14717 2.75499,3.1e-4 3.68915,0.68568 1.18008,0.86579 1.75508,3.07509 2.15983,4.41639 l -11.90687,-0.62668 v 0.20889 l 8.77349,0.81688 3.37273,0.55946 1.4318,4.89044 c -3.36322,0.8007 -7.08534,-0.87241 -10.44463,-1.04447 v 0.41779 l 10.44463,1.25336 0.83556,6.68456 h -2.50671 v 0.20889 c 0.66284,0 2.00266,-0.25237 2.46932,0.33494 1.42859,1.79794 0.28395,6.63646 0.57542,8.85633 0.0931,0.70899 0.36419,2.16351 -0.12604,2.76943 -0.65822,0.81356 -3.2168,0.36396 -4.17205,0.36396 v 0.20889 c 0.99217,0 3.24749,-0.42233 4.05181,0.21469 0.67826,0.5372 0.38919,4.51383 -0.35814,4.88158 -0.98173,0.48306 -2.82013,0.12604 -3.90256,0.12604 v 0.2089 c 0.99216,0 3.24749,-0.42233 4.05181,0.21469 0.82955,0.65703 0.33493,3.60437 0.33493,4.58983 h -2.7156 v 0.2089 l 2.50091,0.33493 0.21469,2.58956 -0.20889,7.102348 c -5.9858,-1.698658 -11.70536,-0.687092 -17.75587,-0.208898 0,-10.78736 1.2749,-21.59362 0.24436,-32.37833 -0.2878,-3.01188 -0.44601,-5.98102 -1.7735,-8.77349 -1.93766,-4.07606 -6.4855,-6.05289 -10.79551,-6.4539 -3.00698,-0.27978 -5.7447,1.02464 -7.661,3.32051 -0.7327,0.87783 -1.25614,2.52932 -2.22787,3.12759 -1.20948,0.74465 -3.96232,0.21469 -5.36029,0.21469 v 0.20889 l 5.22232,0.2089 -1.46225,5.01342 -1.46225,0.20889 v 0.20889 l 1.25336,0.2089 c -1.42513,5.91736 -1.46225,12.11622 -1.46225,18.17364 h -2.92449 v 0.20889 h 2.92449 l 0.21712,4.59564 -0.14249,1.66534 -4.04359,0.21469 v 0.2089 l 4.05181,0.21469 0.55366,2.91869 1.03463,7.937915 c -4.15782,-1.100039 -8.50689,-0.524357 -12.74244,-0.420843 -1.89729,0.04634 -3.74905,-0.399069 -5.6401,-0.414725 v -47.418597 c 0,-3.77146 -0.41779,-7.50103 -0.41779,-11.2802 0,-0.9038 -0.32246,-3.14877 0.69228,-3.63385 0.97322,-0.46522 2.87114,0.23474 3.90336,0.38022 2.89375,0.40788 5.84751,0.63761 8.77349,0.59864 0.92904,-0.0124 3.07632,-0.49308 3.83469,0.15408 0.49196,0.41983 0.0617,1.35563 -0.0119,1.87423 -0.2063,1.45233 -0.37769,4.96423 1.81749,4.99843 0.92712,0.0145 1.56605,-1.01631 2.14841,-1.5965 1.4054,-1.40017 3.04688,-2.69942 4.74489,-3.72574 6.04562,-3.65413 13.66277,-4.5481 20.05368,-1.1842 1.72539,0.90818 3.87455,2.02821 4.80452,3.80583 m -64.54779,-5.22231 v 2.50671 l -8.77348,-0.20889 v 0.20889 l 6.26677,0.38233 2.1426,0.25015 0.17392,2.08312 -0.23339,2.17178 -5.63429,0.33493 v 0.20889 c 1.34674,0 4.22546,-0.5472 5.36479,0.21471 0.72319,0.4836 0.57348,3.66102 -0.20889,4.046 -1.79376,0.88264 -5.65934,0.12604 -7.66261,0.12604 v 0.41778 h 5.4312 l 2.17177,0.2147 0.33494,2.7098 -0.38813,3.00734 -2.11858,0.33494 h -5.6401 v 0.20889 c 1.95189,0 5.70538,-0.73469 7.45372,0.12605 1.37031,0.67461 0.33836,4.2106 -1.18695,4.26069 v 0.2089 c 1.58442,0.052 1.57128,1.12885 1.42599,2.50671 -0.27679,2.62477 -0.38152,5.28481 -0.38152,7.93791 l -9.81795,-0.41778 v 0.20889 l 9.81795,0.41779 c 0,1.42521 0.6786,5.22175 -0.21469,6.34962 -0.41717,0.52671 -1.4976,0.33489 -2.08313,0.33493 h -6.05788 v 0.41779 h 8.14681 c 0.3691,1.98821 0.15993,4.04757 0.20583,6.05788 0.0222,0.96988 0.17806,1.89159 -0.83251,2.29782 v 0.20889 h 0.83557 c 0,1.26236 0.87552,4.74783 0.0474,5.72295 -0.77049,0.90724 -4.53102,0.31119 -5.68748,0.33493 v 0.2089 l 5.72295,0.21469 0.42374,1.87423 0.53787,5.6401 c -5.82923,-1.851713 -12.33882,-1.462245 -18.38255,-1.462245 0,-15.797115 0.37101,-31.647805 1.03625,-47.418605 0.15618,-3.70267 -0.20067,-7.55053 -0.20067,-11.28019 0,-0.88313 -0.4274,-3.36131 0.33493,-3.96315 0.79816,-0.63012 3.44765,-0.006 4.46959,-0.006 4.11616,0 9.16804,1.09417 13.16023,0 m -12.95133,2.29781 v 0.2089 h 1.04446 l -1.04446,-0.2089 m 1.67113,5.01342 v 0.2089 h 4.80453 l -4.80453,-0.2089 m 64.3389,1.46226 v 0.20889 l 2.50671,0.20889 -2.50671,-0.41778 m 3.76006,5.84898 v 0.20889 l 2.7156,0.2089 -2.7156,-0.41779 m 4.17786,5.6401 c 0.51268,0.47985 0.74066,0.47985 1.25335,0 h -1.25335 m -71.02346,3.55118 v 0.20889 l 3.55117,-0.20889 h -3.55117 m -3.55117,3.76006 v 0.20889 h 9.81794 c -2.54356,-1.06734 -7.04702,-0.20889 -9.81794,-0.20889 m 81.05029,0.83557 v 0.20889 h 2.7156 l -2.7156,-0.20889 m -41.56961,5.01342 v 0.20889 h 3.96896 l -3.96896,-0.20889 m 41.29109,0.48742 0.13925,0.0696 -0.13925,-0.0696 m 2.15855,0.34815 v 0.20889 h 3.13339 l -3.13339,-0.20889 m -45.32967,5.84899 v 0.20889 h 5.4312 l -5.4312,-0.20889 m 43.86743,0.83557 v 0.20889 h 0.83557 l -0.83557,-0.20889 m -80.00583,5.43121 v 0.20889 h 3.96895 l -3.96895,-0.20889 m 80.8414,0 0.20889,0.20889 -0.20889,-0.20889 m -77.08134,3.13338 v 0.20889 h 5.22231 l -5.22231,-0.20889 m 76.03687,1.88004 v 0.20889 h 2.29782 l -2.29782,-0.20889 m -3.96895,5.4312 v 0.20889 h 1.67114 l -1.67114,-0.20889 m 2.7156,0.41778 v 0.20889 h 6.89345 l -6.89345,-0.20889 m -79.58805,3.133391 v 0.20889 l 11.2802,-0.626677 v -0.417784 l -11.2802,0.835571 m 39.48068,0.417788 0.2089,0.20889 z"
       id="path5" /></g></svg>
