<?xml version="1.0" encoding="UTF-8" standalone="no"?>
<svg xmlns="http://www.w3.org/2000/svg" viewBox="0 0 100 100" role="img" aria-label="Location icon">
  <path fill="#1d1d1b" d="M50 8c17.7 0 32 14.3 32 32 0 22.5-25.7 47.8-29.1 51.1-1.7 1.7-4.1 1.7-5.8 0C43.7 87.8 18 62.5 18 40 18 22.3 32.3 8 50 8zm0 6C35.7 14 24 25.7 24 40c0 15.8 16.9 34.2 26 43.1 9.1-8.9 26-27.3 26-43.1 0-14.3-11.7-26-26-26zm0 12c7.7 0 14 6.3 14 14s-6.3 14-14 14-14-6.3-14-14 6.3-14 14-14zm0 6c-4.4 0-8 3.6-8 8s3.6 8 8 8 8-3.6 8-8-3.6-8-8-8z"/>
</svg>