<?xml version="1.0" encoding="UTF-8" standalone="no"?>
<!-- Created with Inkscape (http://www.inkscape.org/) -->

<svg
   width="142.3508mm"
   height="100mm"
   viewBox="0 0 142.3508 100"
   version="1.1"
   id="svg1"
   xml:space="preserve"
   inkscape:version="1.4.2 (f4327f4, 2025-05-13)"
   sodipodi:docname="hand-drawn-icons.svg"
   xmlns:inkscape="http://www.inkscape.org/namespaces/inkscape"
   xmlns:sodipodi="http://sodipodi.sourceforge.net/DTD/sodipodi-0.dtd"
   xmlns="http://www.w3.org/2000/svg"
   xmlns:svg="http://www.w3.org/2000/svg"><sodipodi:namedview
     id="namedview1"
     pagecolor="#ffffff"
     bordercolor="#000000"
     borderopacity="0.25"
     inkscape:showpageshadow="2"
     inkscape:pageopacity="0.0"
     inkscape:pagecheckerboard="0"
     inkscape:deskcolor="#d1d1d1"
     inkscape:document-units="mm"
     inkscape:zoom="0.27015116"
     inkscape:cx="-3535.0579"
     inkscape:cy="760.68523"
     inkscape:window-width="2560"
     inkscape:window-height="1494"
     inkscape:window-x="-11"
     inkscape:window-y="-11"
     inkscape:window-maximized="1"
     inkscape:current-layer="layer1"><inkscape:page
       x="0"
       y="0"
       width="142.3508"
       height="100"
       id="page2"
       margin="0"
       bleed="0" /></sodipodi:namedview><defs
     id="defs1" /><g
     inkscape:label="Layer 1"
     inkscape:groupmode="layer"
     id="layer1"
     transform="translate(-367.7961,189.19954)"><path
       style="fill:#21211f;stroke:none;stroke-width:0.61543"
       d="m 438.66343,-188.8771 c -4.77093,0.62644 -9.84188,0.14106 -14.65492,0.25895 -10.85299,0.26585 -21.72315,0.49339 -32.56649,0.9682 -3.31077,0.14498 -6.62498,0.18082 -9.93279,0.32567 -3.00777,0.1317 -6.34727,0.27121 -8.95578,1.97686 -6.30552,4.12301 -3.69968,13.54961 -4.44297,19.8491 -0.34727,2.94321 -0.0817,5.99289 -0.11697,8.95579 -0.0632,5.30662 -0.0996,10.63994 -0.16284,15.95758 -0.0834,7.01528 -0.0107,13.9949 0.16108,21.0054 0.0818,3.34191 -0.11008,6.7764 0.28157,10.09561 0.67571,5.72682 -1.38588,13.679099 4.11729,17.62033 3.06805,2.197269 7.31519,2.176474 10.90978,2.422633 8.05514,0.551629 16.20023,-0.01458 24.26204,-0.01458 23.03389,0 46.04492,0.524974 69.04097,-0.482085 6.72289,-0.294409 13.47377,-0.03151 20.19124,-0.325667 2.27452,-0.09961 4.58778,0.05028 6.83896,-0.345767 2.94245,-0.517657 4.44946,-2.804815 5.25612,-5.522609 1.41838,-4.778875 0.93151,-10.214545 0.93151,-15.143425 0,-16.92854 0.32567,-33.85778 0.32567,-50.80373 v -12.53809 c 0,-2.8142 0.004,-6.13106 -1.48071,-8.63013 -3.19997,-5.38649 -12.381,-4.65701 -17.73353,-4.89139 -12.01875,-0.52627 -24.11002,-0.80775 -36.1488,-0.80775 -5.24706,0 -10.92087,-0.6136 -16.12043,0.0691 m 66.76132,7.58403 -13.35226,0.16284 v 0.16282 c 4.26856,0 9.15732,-0.66767 13.35226,0 -0.44916,1.32118 -1.7662,2.21494 -2.76815,3.12147 -1.84829,1.67229 -3.70129,3.3466 -5.5363,5.03411 -3.28374,3.01979 -6.72432,5.88614 -9.94735,8.97011 -1.40486,1.34425 -3.36338,3.92003 -5.19607,4.59563 -0.83549,0.30799 -1.88395,6.1e-4 -2.75358,0.0451 -2.48849,0.12692 -5.01752,0.21599 -7.50487,0.21599 v 0.32566 l 9.93279,-0.32566 -2.93099,2.94555 -6.18764,5.8009 -3.09381,2.65458 -3.41949,-0.003 -6.83896,0.4885 v 0.16283 l 9.93278,-0.32567 -3.74515,3.60995 -1.95399,1.53008 -9.60712,0.55912 v 0.16251 l 9.28146,-0.48849 c -0.53214,1.11753 -1.83912,2.03171 -2.76816,2.83725 -1.53537,1.33131 -3.01594,2.72295 -4.5593,4.04581 -3.87235,3.31906 -7.6262,6.79267 -11.84028,9.6786 -1.86865,1.27972 -3.83956,3.0071 -6.23413,3.12397 -2.02229,0.0987 -4.08695,-1.1279 -5.69914,-2.20892 -1.05698,-0.70874 -2.45045,-1.53927 -3.09382,-2.65897 h 6.83897 v -0.16283 c -1.62917,-0.0337 -3.24648,-0.16547 -4.88497,-0.16283 -0.71232,9.7e-4 -1.59399,0.26582 -2.27966,0.0767 -1.40624,-0.38773 -3.93569,-2.86772 -4.55931,-4.14756 h 7.81597 v -0.16284 c -1.8421,-0.005 -3.68463,-0.16282 -5.53632,-0.16282 -0.76574,0 -1.88459,0.26637 -2.60531,0.05 -1.41564,-0.42499 -3.94888,-3.13745 -4.55932,-4.44647 h 9.11862 v -0.16285 c -2.17772,0 -4.33287,-0.16282 -6.51329,-0.16282 -0.8672,0 -2.11941,0.3445 -2.93099,0.0646 -1.00349,-0.34612 -1.87704,-1.45341 -2.60532,-2.1814 -1.44282,-1.44228 -2.95614,-2.79564 -4.39647,-4.23365 -4.37452,-4.36747 -8.81702,-8.65419 -13.18944,-13.0266 -1.75528,-1.75528 -4.64787,-3.77048 -5.69914,-6.0248 h 10.42128 v -0.16283 l -7.32746,-0.16284 -3.41948,0.0582 -2.76815,-2.50066 -6.35047,-6.5133 11.07261,-0.16283 v -0.16284 c -2.72188,0 -5.41841,-0.16721 -8.14162,-0.16283 -0.94933,9.5e-4 -2.3679,0.49046 -3.25666,0.13068 -1.29336,-0.52359 -3.8019,-3.11564 -4.39647,-4.36432 l 11.88677,-0.32566 v -0.16284 h -8.79296 c -0.9609,0 -2.35617,0.44318 -3.25664,0.19977 -1.64677,-0.44515 -4.2231,-3.41712 -4.88498,-4.92191 l 12.21243,-0.16283 v -0.16284 h -12.21243 c 1.14873,-2.11293 4.84914,-2.39126 7.0018,-2.44248 6.23531,-0.14837 12.48243,-0.65133 18.72573,-0.65133 15.01937,0 30.09074,-0.76967 45.10461,-1.13745 10.84222,-0.26557 21.75219,0.16901 32.56649,0.64254 7.09552,0.3107 14.27561,-0.23391 21.33106,0.72698 2.24668,0.30597 6.03041,0.56905 7.00179,3.02458 m -133.35981,3.74515 1.62833,1.46548 h -1.79115 l 0.16282,-1.46548 m 134.66247,0.81415 v 3.25666 l -3.74515,0.16283 v 0.16283 h 3.74515 v 4.39652 h -4.23364 v 0.16283 l 4.22913,0.42392 0.16735,4.29823 -5.53631,0.16282 v 0.16284 l 5.53631,0.16283 c 0,1.08056 0.51108,3.93014 -0.16735,4.78673 -0.34707,0.43821 -1.27536,0.25444 -1.75899,0.24223 -1.57901,-0.0398 -3.16925,0.0189 -4.74979,0.0189 v 0.16283 l 6.67613,0.16284 v 5.21063 l -8.30446,-0.16283 v 0.16283 l 8.30446,0.32566 v 5.21065 h -6.67613 v 0.16282 l 6.67613,0.32567 v 4.07081 h -7.0018 v 0.16284 l 7.0018,0.32566 v 4.55931 h -7.97879 v 0.16285 l 7.97879,0.32567 v 5.0478 h -7.4903 v 0.16282 l 7.4903,0.32567 -0.16284,4.39648 -8.30445,-0.16283 v 0.16283 l 8.30445,0.32567 v 3.90798 h -6.83896 v 0.16283 l 4.88497,0.16283 1.78665,0.26108 0.16734,3.32124 h -6.83896 v 0.16282 l 6.83896,0.32567 v 3.90799 l -6.18763,0.16282 v 0.16284 l 6.02481,0.16283 v 4.23364 h -5.86198 v 0.16283 l 5.86198,0.32567 v 3.90798 l -4.23366,0.16283 v 0.16284 l 4.23366,0.32566 -0.16285,3.58232 -4.58693,-3.97696 -8.43966,-7.89525 -27.84435,-25.90493 3.58231,-3.44712 6.35047,-5.86196 18.5629,-17.0973 8.60248,-7.70049 4.09845,-3.50744 m -95.257,37.93997 v 0.16284 c -9.17283,9.17275 -18.3677,18.32406 -27.51857,27.51868 -2.50314,2.51513 -5.09263,5.00171 -7.53766,7.56443 -1.29494,1.35727 -2.62186,3.35399 -4.34924,4.15951 l -0.32566,-4.0708 4.23365,-0.16284 v -0.16284 l -4.23365,-0.16282 -0.16283,-4.23364 5.69914,-0.16284 v -0.16283 l -5.69914,-0.16284 -0.16283,-4.23364 7.00179,-0.32566 v -0.16284 h -5.0478 l -1.78663,-0.26109 -0.33019,-4.29821 7.0018,-0.32567 v -0.16284 h -5.04782 l -1.78663,-0.26108 -0.33019,-4.46106 7.00179,-0.16283 v -0.16283 l -7.00179,-0.16284 v -4.39647 l 7.16464,-0.16283 v -0.16284 h -7.16464 v -4.39647 l 6.67613,-0.16284 v -0.16283 l -6.67613,-0.16283 v -4.23364 l 7.97879,-0.16283 v -0.16284 h -7.97879 v -4.39647 l 8.30445,-0.16284 v -0.16282 l -8.30445,-0.16284 0.16736,-3.97257 2.1123,-0.26107 h 6.18763 v -0.16284 l -6.18763,-0.16283 -2.1123,-0.26108 -0.004,-4.6239 7.65312,-0.16282 v -0.16246 h -7.65312 v -4.88498 l 7.97879,-0.16283 v -0.16283 l -7.97879,-0.16284 0.16283,-4.39647 6.5133,-0.16284 v -0.16283 h -6.5133 l 0.16736,-3.97256 1.46097,-0.26109 3.90797,-0.16282 v -0.16284 c -1.12511,0 -4.4074,0.56574 -5.2688,-0.16735 -0.38125,-0.32446 -0.10695,-1.33977 -0.10479,-1.78664 0.003,-0.53686 -0.19122,-1.5433 0.1651,-1.99194 0.64123,-0.80738 3.91691,-0.28772 4.88283,-0.28772 v -0.16283 l -5.04781,-0.16283 0.32567,-4.07081 2.27965,0.21962 3.41948,3.19986 7.32746,7.32747 26.5417,26.21602 m 79.13659,-36.80015 v 0.16284 h 8.14163 v -0.32566 l -8.14163,0.16282 m -7.16463,5.69914 v 0.16284 l 9.44429,-0.32566 -2.76815,-0.16285 -6.67614,0.32567 m 0.81416,2.11683 v 0.16283 h 3.74515 l -3.74515,-0.16283 m -95.90833,0.81417 v 0.16282 c 2.84138,0.8399 6.50914,0 9.44428,0 l -2.76815,-0.16924 -6.67613,0.007 m 90.6977,2.44249 v 0.16283 c 2.46645,0.4579 5.65027,0.15202 8.14162,-0.16283 -2.19295,-0.92024 -5.78978,0 -8.14162,0 m -80.76514,7.4903 v 0.16283 h 10.25845 c -0.74746,-0.31365 -1.64231,-0.1149 -2.44249,-0.20933 -2.26731,-0.26752 -5.61886,-0.60295 -7.81596,0.0465 m 67.08698,4.39648 v 0.16283 c 2.91878,0 6.27279,0.35186 9.11862,-0.32566 -2.45437,-1.02992 -6.49056,0.16283 -9.11862,0.16283 m -61.7135,0.977 v 0.16282 l 3.90797,0.16284 h 7.65313 l -4.23364,-0.3263 -7.32746,6.2e-4 m 5.86196,5.5363 v 0.16284 h 10.90978 c -0.69649,-0.29226 -1.53177,-0.13373 -2.27965,-0.23194 -2.51155,-0.32977 -6.19939,-0.64966 -8.63013,0.0691 m 4.72215,4.88498 v 0.16283 c 2.87219,0.68379 6.1918,0 9.11861,0 l -2.44249,-0.19048 -6.67612,0.0276 m 52.75772,7.97879 -7.0018,0.16284 v 0.16282 c 1.63814,0 3.25612,0.12055 4.88498,0.16045 0.85035,0.0209 1.96015,-0.19726 2.76815,0.10064 1.50189,0.55374 3.64546,3.00092 4.55931,4.29823 l -8.63012,-0.16284 v 0.16284 c 1.96586,0.36497 4.18751,0.32566 6.18763,0.32566 0.88437,0 2.09243,-0.21092 2.93099,0.0983 1.60388,0.59134 3.90981,3.23954 4.88497,4.6239 h -8.46729 v 0.16282 c 2.11091,0.006 4.24195,0.22693 6.35047,0.31926 0.79279,0.0347 1.85763,-0.25541 2.60532,-0.021 1.36561,0.42816 3.69595,2.87491 4.39648,4.0982 h -8.79296 v 0.16285 c 2.01517,0 4.00731,0.16282 6.02481,0.16282 0.97463,0 2.33392,-0.24194 3.25664,0.0982 1.68714,0.62205 4.12685,3.36958 5.21065,4.78673 h -9.28146 v 0.16283 c 2.12579,0 4.22576,0.16284 6.35046,0.16284 0.97573,0 2.33249,-0.24101 3.25666,0.0982 1.84584,0.67758 4.58037,3.68716 5.69914,5.27522 h -8.14163 v 0.16282 c 1.85348,0 3.68217,0.16284 5.5363,0.16284 0.94007,0 2.20914,-0.21843 3.09382,0.13972 1.71793,0.69547 4.14984,3.40215 5.21064,4.90809 l -10.42127,0.32566 v 0.16283 h 7.81596 c 0.93068,0 2.39511,-0.29199 3.25664,0.0568 0.83117,0.33649 1.46551,1.28023 2.11683,1.86955 1.5113,1.367494 3.4482,2.734856 2.04055,4.90608 -1.33555,2.060017 -5.45299,1.385432 -7.57686,1.478442 -7.24738,0.317389 -14.56034,0.48209 -21.81955,0.48209 -11.71601,0 -23.42426,0.707849 -35.17182,0.651212 -12.92268,-0.06232 -25.97196,-0.723205 -38.91696,-0.156307 -6.50456,0.284852 -13.21565,0.47825 -19.70274,-0.141592 -2.88131,-0.275319 -6.06026,-0.300244 -8.14162,-2.632969 V -95.6428 l 2.11921,-1.993697 4.55692,0.0397 h 10.90978 v -0.162837 l -15.14342,-0.16283 c 0.67375,-1.444789 3.36713,-4.389916 4.88497,-4.949556 0.96467,-0.35568 2.39981,-0.0982 3.41949,-0.0982 h 7.49028 v -0.16284 l -10.42127,-0.16283 3.58232,-3.90798 1.62832,-1.33005 2.44249,0.0128 6.18763,-0.31109 v -0.16284 h -8.30446 c 0.96656,-1.37215 3.12702,-4.03576 4.72215,-4.62389 0.94646,-0.34895 2.25885,-0.061 3.25664,-0.10466 2.43424,-0.1066 4.8895,-0.31925 7.32746,-0.31925 v -0.16283 h -10.09607 c 0.95403,-1.35563 2.98222,-4.04242 4.55931,-4.62389 0.83856,-0.30917 2.04663,-0.0983 2.93098,-0.0983 h 6.51331 v -0.32567 h -8.9558 c 0.72045,-1.54493 3.59657,-4.636 5.21065,-5.2526 1.0129,-0.38694 2.50944,-0.12046 3.58231,-0.12087 1.79393,-6.2e-4 3.5822,-0.2887 5.37347,-0.32567 v -0.16283 l -8.46729,0.16283 c 0.63209,-1.35542 3.11391,-4.10599 4.55932,-4.59487 0.67959,-0.22985 1.55955,0.0761 2.27965,0.008 2.19007,-0.20759 4.4762,-0.29778 6.67613,-0.29802 v -0.16284 h -8.46729 c 0.89799,-1.27599 2.72932,-3.58841 4.23365,-4.13526 0.69734,-0.2535 1.55667,0.0632 2.27966,0.0632 0.71062,0 1.4687,-0.26708 2.11682,0.12261 1.48745,0.89437 2.64984,2.43723 3.90797,3.60921 4.75435,4.42875 10.65373,11.49706 17.74874,11.41221 2.65079,-0.0317 5.24147,-1.74792 7.32747,-3.23328 4.1048,-2.92288 7.91151,-6.27356 11.72394,-9.56089 1.4853,-1.28071 2.91599,-2.62298 4.39647,-3.90783 0.41024,-0.35604 1.03979,-1.1755 1.62833,-1.17526 1.03889,3.9e-4 3.32109,2.71778 3.90798,3.54863 m -20.35406,-2.60531 v 0.16283 c 3.00623,0 6.71286,0.36703 9.60711,-0.4885 l -3.74515,-0.0276 -5.86196,0.35331 m -30.93817,1.46549 h -3.41948 c 0.90328,-1.937 2.51606,-1.9324 3.41948,0 m 26.70452,3.90798 v 0.16283 l 7.32747,-0.32567 c -2.04595,-0.85852 -5.16608,0.11823 -7.32747,0.16284 m -4.88497,5.21064 v 0.16283 l 5.86196,-0.16283 c -1.65215,-0.69329 -4.1063,-2e-4 -5.86196,0 m 31.101,1.95399 0.16283,0.16283 -0.16283,-0.16283 m -62.52767,4.23365 0.16283,0.16282 -0.16283,-0.16282 m 86.95255,21.982387 v 0.16283 c 3.66216,0 7.61204,0.672659 11.23544,0 l -3.74515,-0.325666 -7.49029,0.162836 m -109.7491,1.628322 v 0.162831 l 4.88497,-0.162831 z"
       id="path9" /></g></svg>
