<?xml version="1.0" encoding="UTF-8" standalone="no"?>
<!-- Created with Inkscape (http://www.inkscape.org/) -->

<svg
   width="111.45555mm"
   height="100mm"
   viewBox="0 0 111.45555 100"
   version="1.1"
   id="svg1"
   xml:space="preserve"
   xmlns:inkscape="http://www.inkscape.org/namespaces/inkscape"
   xmlns:sodipodi="http://sodipodi.sourceforge.net/DTD/sodipodi-0.dtd"
   xmlns="http://www.w3.org/2000/svg"
   xmlns:svg="http://www.w3.org/2000/svg"><sodipodi:namedview
     id="namedview1"
     pagecolor="#ffffff"
     bordercolor="#000000"
     borderopacity="0.25"
     inkscape:showpageshadow="2"
     inkscape:pageopacity="0.0"
     inkscape:pagecheckerboard="0"
     inkscape:deskcolor="#d1d1d1"
     inkscape:document-units="mm"><inkscape:page
       x="0"
       y="0"
       width="111.45555"
       height="100"
       id="page2"
       margin="0"
       bleed="0" /></sodipodi:namedview><defs
     id="defs1" /><g
     inkscape:label="Layer 1"
     inkscape:groupmode="layer"
     id="layer1"
     transform="translate(240.45446,160.2737)"><path
       style="fill:#050505;stroke:none;stroke-width:0.876003"
       d="m -162.31524,-160.1002 c -1.07896,0.6897 0.10237,2.16838 0.64508,2.7713 1.77114,1.96761 3.85772,3.59894 5.63666,5.55815 0.56073,0.61754 1.47769,1.50354 2.37749,0.92406 1.22667,-0.78999 -0.15016,-2.30834 -0.71195,-3.00558 -1.57054,-1.94915 -3.12699,-4.13455 -5.24053,-5.53829 -0.67351,-0.44732 -1.88789,-1.23306 -2.70675,-0.70964 m -74.01101,51.21242 c 0,-0.96198 0.24931,-2.35356 -0.23822,-3.21965 -0.7709,-1.36951 -2.7517,-1.05253 -3.4287,0.21676 -0.80049,1.5008 -0.36266,4.60958 -0.13967,6.24774 0.73639,5.40972 2.1981,10.639994 4.67718,15.528973 3.1529,6.21785 7.54648,11.946565 12.80417,16.521358 21.4917,18.700186 54.33931,17.394425 75.09533,-1.940232 9.42055,-8.775436 15.46592,-21.202575 17.59617,-33.818499 2.24971,-13.32341 0.71109,-27.43167 -6.3318,-39.17009 -1.64146,-2.73585 -3.54371,-5.31338 -5.7225,-7.6486 -0.74348,-0.79686 -1.76681,-2.09674 -2.98876,-2.00783 -1.64792,0.11989 -1.46579,2.23118 -1.32806,3.39848 0.49458,4.1918 0.65414,8.54358 0.20405,12.74766 -1.59056,14.85659 -9.58762,28.18488 -22.05714,36.5011 -14.70039,9.804034 -33.28717,11.647039 -49.83177,5.753433 -3.95667,-1.409463 -7.81263,-3.401443 -11.357,-5.646313 -2.29531,-1.45374 -4.12605,-3.46212 -6.95328,-3.46429 m 92.71027,-44.73271 c 9.54961,11.84705 12.64207,26.5781 10.49268,41.48785 -0.64827,4.49686 -1.63733,9.62514 -3.77118,13.674758 -2.56632,-3.634748 -5.45334,-2.935108 -8.80748,-0.522386 -4.18548,3.010751 -7.92732,7.61856 -9.49617,12.574728 -1.13901,3.598225 -0.0935,7.378492 3.93356,8.343926 -1.13979,1.990137 -3.6957,3.516502 -5.56261,4.787529 -5.37957,3.662462 -11.46135,6.304092 -17.84674,7.589214 -20.20093,4.065642 -41.9216,-3.789947 -53.76605,-20.95245 -3.7722,-5.465862 -5.77785,-11.491665 -7.42273,-17.846719 2.78372,1.2751 5.13733,3.77225 7.88038,5.259297 6.01676,3.261778 12.54134,5.2627 19.23738,6.56126 -1.16928,1.661488 -3.36873,3.289871 -3.19264,5.562616 0.27496,3.548766 5.41365,4.843261 8.2917,5.079213 5.01261,0.410941 14.13741,-0.05782 15.67848,-6.238094 0.37226,-1.492893 -0.0806,-2.945971 -0.38128,-4.403735 4.43784,-1.403856 8.93748,-2.103835 13.21121,-4.121181 14.87549,-7.021676 26.42355,-20.222836 30.62122,-36.207786 1.23839,-4.71589 1.47932,-9.5182 1.36044,-14.3701 -0.045,-1.83816 -1.15324,-4.55869 -0.46017,-6.25794 m -24.55802,1.81397 c -1.3465,0.29601 -1.42899,2.00665 -0.42081,2.73981 2.24671,1.63385 5.85273,2.57628 8.52276,3.23968 0.88717,0.22042 2.29219,0.61904 3.17029,0.17883 1.4097,-0.70669 -0.69278,-2.25067 -1.31626,-2.58046 -2.26792,-1.19965 -7.33331,-4.15443 -9.95598,-3.57786 m 0.69532,10.62143 c -1.61317,0.54072 -0.70477,1.87171 0.45354,2.28628 1.73432,0.62077 5.46544,1.10782 7.14946,0.19244 1.396,-0.75882 -0.35422,-1.73579 -1.12347,-1.99263 -1.81813,-0.60705 -4.60769,-1.1135 -6.47953,-0.48609 m 30.12959,11.9327 c -1.46349,0.61501 -2.15873,3.41461 -2.28539,4.83546 -0.0743,0.83381 0.23829,2.02079 1.34022,1.5559 1.34779,-0.56861 2.16922,-3.69258 2.2795,-5.03147 0.0654,-0.79464 -0.37399,-1.76346 -1.33433,-1.35989 m -5.54062,22.45721 c -1.87837,1.06602 -0.87408,5.74903 1.54195,4.35474 1.87774,-1.08367 0.8676,-5.72223 -1.54195,-4.35474 m -7.41343,2.02052 c -1.99532,0.87021 0.78117,4.69977 2.50161,4.08648 2.39049,-0.85217 -0.31154,-5.04162 -2.50161,-4.08648 m 9.70025,6.17639 c 1.52301,-0.334545 3.21688,0.741423 2.76736,2.458151 -1.0133,3.869873 -4.16249,8.01814 -6.57432,11.125234 -0.68808,0.886435 -1.73825,2.763981 -2.92366,2.9707 -4.03839,0.70421 -5.20195,-1.84798 -3.5859,-5.288463 1.70809,-3.636427 6.12586,-10.345074 10.31652,-11.265622 m -52.61398,6.465583 c 2.48694,-0.250143 2.51223,3.356641 1.30017,4.775721 -1.67473,1.960765 -4.9301,2.30641 -7.32544,2.534512 -2.41813,0.230266 -5.41846,0.01866 -7.64842,-1.007937 -2.55561,-1.176542 -1.74007,-3.176018 0.2316,-4.491021 0.65326,-0.435679 1.37643,-0.788463 2.08598,-1.122395 3.06633,-1.443057 7.95439,-0.346731 11.35611,-0.68888 m 6.31178,4.578279 c -1.91936,1.100399 -0.33273,7.080396 2.21189,5.545981 1.85295,-1.117332 0.0218,-6.826583 -2.21189,-5.545981 m 18.72072,4.288926 c -2.48242,0.456617 -5.56244,2.439054 -7.61409,3.862567 -0.73726,0.511533 -0.90356,1.611933 0.21103,1.712384 2.41899,0.21802 6.05498,-1.266148 7.84496,-2.80885 1.03638,-0.89319 1.72145,-3.164025 -0.4419,-2.766101 m -23.1765,0.744865 c -1.63818,0.562981 -2.47487,2.898912 -2.67669,4.459003 -0.12614,0.975052 0.29107,2.235716 1.51763,1.838466 1.50692,-0.488047 2.74542,-2.663503 2.96283,-4.156229 0.16623,-1.141283 -0.37195,-2.633308 -1.80377,-2.14124 z"
       id="path6" /></g></svg>
