<?xml version="1.0" encoding="UTF-8" standalone="no"?>
<svg xmlns="http://www.w3.org/2000/svg" viewBox="0 0 100 100" role="img" aria-label="Phone icon">
  <path fill="#1d1d1b" d="M31 14c2.6 0 5.1 1.2 6.7 3.3l6.3 8.3c2.5 3.3 2.4 7.9-.2 11.1l-4.2 5.2c-.9 1.1-1 2.7-.1 3.8 4.1 5.3 8.6 9.8 13.8 13.8 1.1.8 2.7.7 3.8-.1l5.2-4.2c3.2-2.6 7.8-2.7 11.1-.2l8.3 6.3c2.1 1.6 3.3 4.1 3.3 6.7 0 18.5-15 33.5-33.5 33.5C28.5 99.5 0.5 71.5 0.5 38 0.5 19.5 15.5 14 31 14zm0 6C19 20 6.5 26.4 6.5 38c0 30.1 24.4 54.5 54.5 54.5 11.6 0 18-12.5 18-24.5 0-1.1-.5-2.2-1.4-2.9l-8.3-6.3c-1.4-1.1-3.4-1.1-4.8 0l-5.2 4.2c-3.2 2.5-7.7 3-11.4.5-5.6-4.2-10.4-9.1-14.6-14.6-2.6-3.6-2.1-8.2.5-11.4l4.2-5.2c1.1-1.4 1.1-3.4 0-4.8l-6.3-8.3C38.2 20.5 37.1 20 36 20z"/>
</svg>