<?xml version="1.0" encoding="UTF-8" standalone="no"?>
<!-- Created with Inkscape (http://www.inkscape.org/) -->

<svg
   width="100.93441mm"
   height="99.999954mm"
   viewBox="0 0 100.93441 99.999954"
   version="1.1"
   id="svg1"
   xml:space="preserve"
   xmlns:inkscape="http://www.inkscape.org/namespaces/inkscape"
   xmlns:sodipodi="http://sodipodi.sourceforge.net/DTD/sodipodi-0.dtd"
   xmlns="http://www.w3.org/2000/svg"
   xmlns:svg="http://www.w3.org/2000/svg"><sodipodi:namedview
     id="namedview1"
     pagecolor="#ffffff"
     bordercolor="#000000"
     borderopacity="0.25"
     inkscape:showpageshadow="2"
     inkscape:pageopacity="0.0"
     inkscape:pagecheckerboard="0"
     inkscape:deskcolor="#d1d1d1"
     inkscape:document-units="mm"><inkscape:page
       x="0"
       y="0"
       width="100.93441"
       height="99.999954"
       id="page2"
       margin="0"
       bleed="0" /></sodipodi:namedview><defs
     id="defs1" /><g
     inkscape:label="Layer 1"
     inkscape:groupmode="layer"
     id="layer1"
     transform="translate(756.27952,199.27601)"><path
       style="fill:#040404;stroke:none;stroke-width:0.772361"
       d="m -707.16742,-199.20669 c -4.77843,1.25173 -1.78311,8.33397 -1.05378,11.11946 0.27715,1.05851 0.0808,2.30032 0.6632,3.26067 0.58203,0.95977 1.7959,1.23178 2.84188,0.94214 3.94048,-1.09114 -0.007,-7.66162 -0.16431,-9.92471 -0.0971,-1.39975 1.16194,-2.43873 0.57191,-3.88194 -0.44237,-1.08203 -1.69337,-1.82094 -2.8589,-1.51562 m -32.69597,12.70162 c -2.00067,0.77431 -1.56368,3.43522 -0.82199,4.95716 1.41016,2.89363 4.23014,4.43729 6.31731,6.74383 0.91906,1.01566 1.12143,2.4072 1.99086,3.43018 0.65663,0.77259 1.78304,1.0437 2.72993,0.6785 2.13666,-0.8241 1.60252,-3.32484 0.82199,-4.92626 -1.41034,-2.89358 -4.2301,-4.43723 -6.31731,-6.74382 -0.92793,-1.02546 -1.05519,-2.43651 -1.94105,-3.45163 -0.67285,-0.77102 -1.8105,-1.06308 -2.77974,-0.68796 m 71.31866,-0.0183 c -1.68375,0.16397 -2.4895,1.98679 -3.4584,3.13327 -2.17192,2.57 -5.73606,3.94754 -7.39173,6.95102 -0.96431,1.7493 -1.19594,5.23751 1.65421,5.23751 2.21643,0 2.22518,-2.29954 3.337,-3.59463 2.32439,-2.70758 5.87606,-3.95484 7.80454,-7.16043 1.06508,-1.77042 0.79506,-4.83365 -1.94562,-4.56674 m -39.84897,6.90135 c -5.55904,0.72776 -10.33862,1.93398 -14.91783,5.41018 -16.57956,12.586 -15.99998,39.79168 2.04354,50.61871 2.82108,1.69278 5.96528,2.97662 9.19592,3.6372 3.23228,0.66093 6.71222,1.07236 10.01333,0.67756 21.06196,-2.51898 33.47491,-27.16481 22.5598,-45.51255 -1.70414,-2.86458 -3.84464,-5.42421 -6.41585,-7.5439 -3.31591,-2.73362 -7.11579,-4.64844 -11.23946,-5.82518 -3.40422,-0.97145 -7.69553,-1.92597 -11.23945,-1.46202 m 27.3834,24.43573 c -0.37437,-0.22995 -3.38999,-1.76637 -2.48663,-0.018 0.91759,1.77592 3.0707,1.65039 3.09969,4.10505 -0.44087,-0.31027 -0.81958,-0.65062 -1.22707,-1.00395 -0.44381,-0.38481 -2.37565,-1.26002 -1.82594,0.18827 0.80942,2.13254 3.05101,2.31632 3.05301,4.90275 -0.47803,-0.36668 -0.8234,-0.75595 -1.20278,-1.22627 -0.43797,-0.54293 -2.77405,-1.9979 -2.05222,-0.20105 0.78807,1.96174 3.32127,2.89201 2.43759,5.31005 -0.518,-0.42172 -0.88924,-0.89111 -1.2862,-1.43048 -0.48183,-0.65468 -2.62482,-2.20484 -1.96975,-0.20356 0.80973,2.47377 2.81716,2.62998 2.02982,5.51676 -0.55508,-0.47227 -0.89628,-1.02566 -1.29644,-1.63483 -0.35501,-0.54043 -2.88645,-2.99344 -2.27659,-0.81647 0.57901,2.06683 2.94263,3.13 1.9382,5.51661 h -0.40871 c -0.3285,-0.96474 -0.71721,-2.10693 -1.47383,-2.82674 -0.50472,-0.48016 -1.41039,-0.55775 -1.36,0.37859 0.10578,1.96531 2.61509,3.03022 1.40336,5.10474 h -0.40871 c -0.17378,-0.4174 -0.35767,-0.82412 -0.56402,-1.22706 -0.22727,-0.44382 -1.624,-2.32711 -1.81127,-0.79329 -0.19377,1.58695 2.12393,2.90788 0.5361,4.26825 -0.18236,-0.43803 -2.15437,-4.04458 -2.37466,-2.03061 -0.20573,1.88093 2.34238,2.85884 -0.0776,4.2785 -0.22104,-0.54312 -1.65656,-2.99346 -2.05804,-1.21319 -0.16798,0.74485 0.43331,1.72763 0.62756,2.43931 l -1.63483,0.81741 c -0.6361,-2.64398 -2.04609,-1.33387 -1.63482,0.81742 -5.25875,2.80062 -11.99282,2.52069 -17.57443,0.9907 -4.50411,-1.23461 -8.48008,-3.92689 -11.62971,-7.32567 -2.95949,-3.19358 -4.81446,-7.40087 -5.61547,-11.64816 -2.23748,-11.86405 4.39436,-26.06323 16.42777,-29.68822 10.06992,-3.0335 22.31673,1.13161 28.58287,9.4572 1.94037,2.57808 3.84566,5.91386 4.11373,9.19592 m -35.5585,-14.5744 c -2.40663,0.20316 -4.12923,3.50405 -5.05729,5.37848 -0.24149,0.48775 -1.29843,2.87693 0.15453,2.67268 0.71156,-0.10003 1.01148,-1.10656 1.278,-1.65091 0.68771,-1.40458 1.44506,-2.78679 2.60694,-3.86128 0.51932,-0.48026 1.68798,-0.85364 1.97368,-1.50711 0.27915,-0.63851 -0.38787,-1.07981 -0.95586,-1.03186 m 58.65047,14.29688 c -1.75614,0.13405 -3.12294,1.63951 -4.90449,1.78258 -2.86129,0.22977 -5.55809,-2.22778 -8.37772,-0.45381 -1.57882,0.99331 -2.04971,3.32103 -0.19631,4.34929 1.13795,0.63134 2.10287,-0.0501 3.26083,-0.007 1.81167,0.0676 3.46849,1.20578 5.3132,1.10282 2.02407,-0.11297 5.68829,-1.21004 6.97783,-2.86158 1.25758,-1.61064 -0.0141,-4.06955 -2.07334,-3.91237 m -94.41143,2.01816 c -2.19995,0.46936 -6.26619,4.18918 -2.2449,5.4827 1.59755,0.51387 3.07971,-0.7132 4.69714,-0.68086 1.74335,0.0348 3.37919,0.81081 5.10885,0.98376 2.02753,0.20273 4.03254,-0.37658 5.92547,-1.05646 2.19859,-0.78967 2.07858,-4.048 -0.20356,-4.63422 -1.71319,-0.44008 -3.07517,0.89342 -4.70014,0.89499 -2.92339,0.003 -5.58202,-1.63014 -8.58286,-0.98991 m 74.99798,25.55557 c -2.06039,0.58335 -2.03033,3.04985 -1.15138,4.58298 1.84133,3.21177 5.7542,4.87065 8.01946,7.76544 1.08097,1.38136 1.51476,4.4192 3.96252,3.71542 2.65507,-0.76338 1.78964,-3.57919 0.8614,-5.35025 -1.77856,-3.39346 -5.286,-5.02669 -7.7872,-7.76843 -1.18556,-1.29958 -1.54695,-3.61274 -3.9048,-2.94516 m -54.76696,3.7129 c -1.00684,0.38255 -1.64862,1.36959 -2.6566,1.79392 -3.66356,1.54228 -7.15642,2.51478 -9.74984,5.81998 -1.34844,1.71852 -2.638,7.03023 1.37134,6.2637 1.90242,-0.36372 2.33956,-2.9834 3.67853,-4.18484 2.90625,-2.60775 7.47929,-2.77011 9.96666,-5.75817 1.58018,-1.89828 -0.10816,-4.88521 -2.61009,-3.93459 m 28.20177,7.56108 c -2.58193,1.00254 -0.6695,3.59474 -0.89374,5.36587 -0.45222,3.57173 -3.98299,6.26047 -1.6681,10.01333 0.74943,1.21495 2.06287,2.388191 3.5825,1.808118 3.15765,-1.205348 0.41798,-3.423088 0.61653,-5.282138 0.10377,-0.97164 0.84426,-2.00073 1.27327,-2.86095 1.19847,-2.4031 1.38639,-4.38261 0.55661,-6.94803 -0.48824,-1.50948 -1.76757,-2.7561 -3.46707,-2.0962 z"
       id="path3" /></g></svg>
