<?xml version="1.0" encoding="UTF-8" standalone="no"?>
<!-- Created with Inkscape (http://www.inkscape.org/) -->

<svg
   width="98.289024mm"
   height="100mm"
   viewBox="0 0 98.289024 100"
   version="1.1"
   id="svg1"
   xml:space="preserve"
   xmlns:inkscape="http://www.inkscape.org/namespaces/inkscape"
   xmlns:sodipodi="http://sodipodi.sourceforge.net/DTD/sodipodi-0.dtd"
   xmlns="http://www.w3.org/2000/svg"
   xmlns:svg="http://www.w3.org/2000/svg"><sodipodi:namedview
     id="namedview1"
     pagecolor="#ffffff"
     bordercolor="#000000"
     borderopacity="0.25"
     inkscape:showpageshadow="2"
     inkscape:pageopacity="0.0"
     inkscape:pagecheckerboard="0"
     inkscape:deskcolor="#d1d1d1"
     inkscape:document-units="mm"><inkscape:page
       x="0"
       y="0"
       width="98.289024"
       height="100"
       id="page2"
       margin="0"
       bleed="0" /></sodipodi:namedview><defs
     id="defs1" /><g
     inkscape:label="Layer 1"
     inkscape:groupmode="layer"
     id="layer1"
     transform="translate(-113.96417,248.86727)"><path
       style="fill:#222220;stroke:none;stroke-width:0.464096"
       d="m 161.80894,-248.63688 c -4.78895,0.62872 -9.6353,1.09728 -14.24388,2.69156 -12.63011,4.36922 -23.48975,14.21684 -29.06382,26.35804 -8.4674,18.44331 -4.90089,41.51776 9.17634,56.23876 3.83426,4.00961 8.58171,6.90223 13.50229,9.36252 4.32737,2.16368 8.57133,3.73556 13.38433,4.4062 4.46577,0.62226 9.14429,0.9983 13.62992,0.4402 9.3269,-1.16046 18.89557,-4.56736 26.27751,-10.50109 10.03218,-8.06406 16.33003,-21.47189 17.53841,-34.16026 1.45361,-15.26341 -3.60964,-32.22312 -15.20537,-42.71079 -5.24703,-4.74565 -11.27122,-7.8322 -17.92764,-10.04887 -5.22556,-1.74018 -11.5573,-2.79976 -17.06809,-2.07627 m 24.31282,7.56098 v 0.1228 h -2.21025 v 0.12279 c 0.88779,0.002 2.10459,-0.0464 2.94701,0.22721 1.93468,0.62822 3.77249,2.28542 5.40285,3.45655 v 0.12279 l -6.13961,-0.24558 v 0.12279 c 1.99227,0.15725 4.76056,-0.18548 6.63078,0.49506 1.12424,0.40909 2.62687,1.86307 3.31538,2.82033 l -6.26239,-0.12279 v 0.12279 c 1.39442,1.5e-4 2.78331,0.2097 4.17493,0.24378 0.8161,0.02 1.95275,-0.10953 2.70095,0.26937 0.89581,0.45365 2.04361,1.90127 2.45631,2.80223 h -5.40285 v 0.12279 c 1.50597,0 4.42042,-0.37308 5.74991,0.37179 0.98921,0.55422 1.81699,2.34309 2.35437,3.31197 l -6.01681,-0.12279 v 0.12279 c 1.47384,0 2.95513,0.0853 4.42051,0.22475 0.51538,0.049 1.22991,-0.12369 1.69332,0.14704 0.88888,0.51931 1.71389,2.50805 2.11324,3.43477 l -5.40285,-0.12279 v 0.12279 c 1.2667,0.0544 2.53903,0.21273 3.80655,0.24379 0.53842,0.0132 1.30847,-0.12149 1.76362,0.2398 0.8056,0.63946 1.28632,2.38924 1.67456,3.32296 h -5.03448 v 0.12279 c 1.19277,0 2.37531,0.10823 3.56097,0.12233 0.42913,0.005 1.1474,-0.13752 1.51661,0.12667 0.70452,0.50413 1.1854,2.60726 1.30761,3.43477 l -5.52564,-0.12279 v 0.12279 l 5.77122,0.24558 0.85955,3.31539 h -5.03448 v 0.12279 c 1.14871,1.3e-4 2.28554,0.12279 3.43818,0.12279 0.44302,0 1.15053,-0.12684 1.53329,0.14478 0.64844,0.46014 0.76798,2.43239 0.79976,3.17061 h -4.91168 v 0.12279 l 5.03447,0.12279 0.49117,3.31539 -4.5433,0.12279 v 0.12279 l 4.5433,0.12279 0.24559,3.56097 h -5.52565 v 0.12279 l 3.92935,0.1228 1.47009,0.19688 0.12621,1.76779 -0.19689,1.83847 -1.5222,0.008 -3.68377,0.11796 v 0.12279 l 5.28006,0.12279 -0.24558,3.92935 -3.92935,0.12279 v 0.12279 h 3.80655 l -0.49116,3.43818 -3.92935,0.12279 v 0.1228 h 3.80656 c -0.10641,0.79014 -0.28122,2.93381 -0.94586,3.43476 -0.69205,0.5216 -2.86171,0.1262 -3.72024,0.1262 v 0.1228 l 3.68376,0.12279 c -0.12555,0.8501 -0.58147,3.03796 -1.3076,3.55756 -0.34896,0.2497 -0.98967,0.11809 -1.39382,0.128 -0.94329,0.0231 -1.87493,0.12099 -2.82422,0.12099 v 0.1228 h 4.17493 c -0.28011,0.83481 -0.84938,2.84617 -1.62387,3.31197 -0.75578,0.45455 -2.53309,0.24899 -3.41061,0.24899 v 0.1228 h 3.31539 c -0.24188,0.83964 -1.04637,2.99037 -1.88225,3.36408 -0.78077,0.34908 -2.29226,0.19688 -3.15223,0.19688 v 0.1228 h 3.0698 c -0.33413,0.88281 -1.3351,2.95674 -2.2329,3.34703 -0.70702,0.30736 -2.02583,0.2118 -2.80157,0.21394 v 0.12279 h 2.70143 c -0.51832,0.92987 -1.59271,2.79508 -2.59958,3.22423 -0.87731,0.37395 -2.34469,0.31713 -3.29444,0.33674 v 0.12279 l 3.0698,-0.12279 c -0.56634,0.97975 -1.98667,2.71915 -3.0698,3.1185 -1.30253,0.48024 -3.4016,0.31968 -4.78889,0.31968 v 0.12279 l 4.42051,-0.12279 c -0.83337,1.15865 -2.78303,2.81639 -4.17493,3.2357 -1.38859,0.41831 -3.45404,0.3132 -4.91168,0.32526 v 0.1228 l 4.42051,-0.1228 v 0.1228 c -1.76634,1.08126 -3.76307,2.52567 -5.77123,3.09576 -1.29292,0.36704 -2.95795,0.34227 -4.29772,0.34242 v 0.12279 l 3.19259,-0.12279 c -0.52706,0.71879 -2.00222,1.04254 -2.82421,1.34417 -2.6286,0.96459 -5.34045,1.75668 -8.10428,2.22675 -11.70863,1.99134 -23.8424,0.23161 -33.89061,-6.39514 v -0.12279 h 1.22792 v -0.12279 c -2.0084,-0.0166 -3.33081,-1.04103 -4.91168,-2.17463 -0.67451,-0.48369 -1.5677,-1.01338 -1.96467,-1.75472 1.12084,0.26685 2.9365,0.38767 4.05214,0.12279 v -0.12279 c -2.78722,0 -6.13459,-0.14188 -7.36752,-3.1926 l 2.82421,0.1228 v -0.1228 c -0.96944,-0.12252 -2.28717,0.018 -3.19212,-0.31967 -1.03107,-0.38473 -2.17279,-2.18985 -2.7019,-3.1185 h 3.92935 v -0.12279 c -1.12686,0 -3.30146,0.23472 -4.27508,-0.36696 -0.82122,-0.5075 -1.5823,-1.96948 -1.98732,-2.82564 h 3.43818 v -0.12279 c -0.95407,-0.008 -2.82466,0.14994 -3.6434,-0.36999 -0.73485,-0.46665 -1.40243,-2.01111 -1.63666,-2.8226 l 3.56097,-0.12279 v -0.1228 c -0.92551,0 -2.97872,0.24849 -3.75861,-0.24899 -0.7751,-0.49444 -1.20098,-2.2404 -1.52145,-3.0664 l 3.56097,-0.12279 v -0.12279 c -0.90777,0 -2.86587,0.26018 -3.63231,-0.24899 -0.69401,-0.46105 -1.06658,-2.40961 -1.27937,-3.18919 l 4.29772,-0.12279 v -0.12279 c -0.9386,0 -3.63901,0.46158 -4.33429,-0.19689 -0.63826,-0.60444 -0.77377,-2.28518 -0.94577,-3.11849 l 4.6661,-0.1228 v -0.12279 l -4.78889,-0.12279 -0.49117,-3.19259 h 4.05214 v -0.24559 c -0.84385,0 -3.47573,0.43261 -4.06957,-0.19688 -0.53511,-0.56724 -0.46755,-2.37095 -0.47373,-3.11851 l 4.05213,-0.12279 v -0.12279 c -0.87104,0 -3.27992,0.42483 -3.96099,-0.1262 -0.29142,-0.23579 -0.21286,-0.77325 -0.21394,-1.10172 -0.003,-0.94396 -0.12279,-1.87633 -0.12279,-2.82422 l 4.78889,-0.1228 v -0.12279 c -1.10877,-1.3e-4 -2.20292,-0.12807 -3.31538,-0.1227 -0.33476,0.001 -0.98976,0.18158 -1.27663,-0.0145 -0.48069,-0.32858 -0.31905,-3.31621 0.1228,-3.66595 0.32161,-0.25456 1.01601,-0.1262 1.39941,-0.1262 1.1105,0 2.20371,-0.12279 3.31539,-0.12279 v -0.12282 h -4.91169 l 0.49411,-3.36408 1.22498,-0.19868 3.0698,-0.121 v -0.12279 l -4.29772,-0.12279 0.72917,-3.24129 1.2355,-0.19689 2.94701,-0.12279 v -0.12279 h -4.17493 c 0.17168,-0.83174 0.39462,-2.88522 1.07169,-3.43657 0.3586,-0.29201 1.07374,-0.24501 1.50695,-0.2471 1.11103,-0.005 2.20431,-0.12289 3.31538,-0.12289 v -0.12279 h -4.6661 c 0.12252,-0.82959 0.6164,-2.91748 1.31377,-3.43477 0.34445,-0.2555 0.98365,-0.10859 1.38766,-0.14704 1.41853,-0.135 2.87161,-0.22474 4.29772,-0.22474 v -0.1228 l -5.52564,0.1228 c 0.21501,-0.90523 0.95862,-3.0418 1.76703,-3.55756 1.02101,-0.65138 3.66366,-0.37179 4.86374,-0.37179 v -0.12279 l -4.6661,0.12279 c 0.27868,-0.9655 1.20924,-2.92217 2.11011,-3.43477 1.04669,-0.59557 3.44529,-0.37178 4.64346,-0.37178 v -0.1228 l -4.42052,0.1228 c 0.39879,-1.03673 1.60728,-2.8825 2.58963,-3.43657 1.11119,-0.62675 3.51127,-0.4823 4.7779,-0.49278 v -0.12279 l -4.29773,0.12279 c 0.46018,-0.99265 1.90036,-2.7322 2.94701,-3.1185 1.38776,-0.5122 3.3171,-0.25647 4.78889,-0.44247 v -0.12279 l -4.42051,0.12279 c 0.70641,-1.00282 2.23094,-2.64048 3.43818,-3.00679 1.31177,-0.39803 2.82563,-0.18089 4.17493,-0.43139 v -0.12279 l -3.68376,0.12279 c 2.09972,-2.5794 5.13226,-2.94665 8.22706,-2.94701 v -0.12279 l -3.80655,0.12279 c 0.51954,-0.80938 1.85956,-1.26783 2.70142,-1.68877 3.06282,-1.53141 6.04978,-1.7494 9.45499,-1.7494 v -0.1228 l -5.40285,0.1228 c 0.80251,-0.60045 2.00156,-0.83091 2.94701,-1.14606 2.59616,-0.86539 5.15397,-1.42426 7.85386,-1.81498 7.22422,-1.04544 14.18589,-0.8267 21.24786,1.36787 2.79013,0.86706 5.30263,2.19692 7.98148,3.31225 m -0.65489,3.84749 0.0819,0.0409 -0.0819,-0.0409 m 1.76002,12.16807 c -2.05189,0.29462 -3.99441,1.24974 -5.89402,2.03355 -3.20768,1.32355 -6.40369,2.66829 -9.57778,4.07061 -9.81991,4.33846 -19.60338,8.77085 -29.47009,12.99872 -3.48105,1.49162 -7.04471,2.8895 -10.43732,4.57381 -1.42551,0.70772 -3.10132,1.44293 -3.49598,3.16219 -0.64364,2.8039 1.9071,3.92635 4.10993,4.56064 3.36754,0.96967 6.73711,2.00704 10.06895,3.09302 1.07289,0.34969 2.87471,0.50079 3.76762,1.17969 0.73414,0.55818 0.93583,3.04192 1.1596,3.93702 0.61689,2.46755 1.30364,4.92148 2.00087,7.36752 0.35383,1.24128 0.62843,2.70312 1.58151,3.64643 2.65543,2.62819 6.63995,-2.51935 8.43571,-4.10253 0.44624,-0.39343 1.22979,-1.46796 1.84188,-1.51284 0.42993,-0.0315 0.90774,0.4889 1.22792,0.72245 0.98787,0.72058 1.96873,1.44926 2.94701,2.18297 3.01067,2.258 6.02129,4.51107 9.08661,6.69397 1.4466,1.03016 3.14509,2.31959 5.03447,2.01612 4.06928,-0.65361 4.02815,-7.47358 4.61835,-10.6289 2.14995,-11.49416 4.08145,-23.05853 5.78563,-34.62736 0.40112,-2.72302 1.41318,-5.8406 1.11716,-8.59545 -0.22161,-2.06236 -1.96203,-3.05105 -3.90803,-2.77163 m -10.68291,53.23917 h 0.73676 v -0.1228 c -2.07526,-0.006 -3.64321,-1.71075 -5.28007,-2.82421 v -0.1228 h 2.82422 v -0.12279 l -3.43817,-0.34431 -3.68376,-2.6027 v -0.12279 h 3.56096 v -0.12279 c -1.15922,-0.024 -2.82977,0.13659 -3.92934,-0.20285 -1.06786,-0.32966 -2.39489,-1.48266 -3.1926,-2.25299 l 3.80656,-0.12279 v -0.12279 c -2.7916,-0.22033 -5.37861,0.13691 -7.24473,-2.45585 l 3.68376,0.24559 v -0.12279 c -2.55431,-0.80999 -5.60498,-0.0337 -7.24473,-2.82422 h 4.6661 v -0.12279 c -1.61192,-0.12722 -5.01565,0.5212 -6.09527,-0.88049 -0.51641,-0.67046 0.41543,-1.56989 0.82554,-2.06652 1.21804,-1.47505 3.93732,-1.10513 5.76089,-1.10513 v -0.12279 h -4.5433 c 0.40232,-0.86271 1.78534,-2.53514 2.70142,-2.87292 0.88023,-0.32456 2.37077,-0.19678 3.31539,-0.19688 v -0.1228 l -2.82422,-0.12279 c 1.157,-2.48098 3.3831,-2.72169 5.77123,-2.82422 v -0.12279 h -2.82422 c 1.04765,-2.2465 3.07851,-2.57256 5.28006,-2.57863 v -0.12279 h -2.57863 c 0.80131,-1.13755 1.9205,-2.30413 3.31538,-2.57864 v -0.12279 h -0.49117 c 0.71282,-1.52431 2.76303,-2.81136 3.91836,-4.05214 0.35691,-0.3833 1.20358,-1.10353 0.85604,-1.69104 -0.5255,-0.88835 -1.77084,0.12643 -2.31856,0.46929 -2.17331,1.3604 -4.33513,2.73754 -6.50798,4.09808 -4.46404,2.79518 -8.79753,5.80028 -13.26153,8.59545 -1.12235,0.70276 -2.23422,1.44567 -3.31539,2.21025 -0.504,0.35641 -1.0887,0.91727 -1.71909,1.01399 -0.79563,0.12206 -1.83557,-0.41002 -2.57863,-0.6568 -1.65055,-0.54816 -3.33869,-1.12566 -5.03448,-1.51443 v -0.12279 l 3.0698,-0.12279 v -0.1228 l -4.05213,-0.0399 -6.75357,-2.04758 v -0.12279 h 6.1396 v -0.12279 c -2.01431,-0.0167 -4.81409,0.33337 -6.75299,-0.16183 -1.41148,-0.3605 -0.61049,-1.9702 0.24549,-2.42666 0.66155,-0.35278 1.48499,-0.23573 2.20978,-0.23573 1.5699,0 3.24199,0.16439 4.78889,-0.12279 v -0.12279 h -5.89402 v -0.1228 l 4.54331,-1.97974 6.1396,-0.10772 v -0.1228 l -5.28006,-0.12279 v -0.12279 l 4.05214,-1.67257 3.56097,-0.0465 5.28006,-0.12279 v -0.12281 h -7.85869 c 0.46356,-0.67952 1.72039,-0.93393 2.45584,-1.26544 2.97774,-1.3422 6.45505,-1.06761 9.70057,-1.06761 v -0.12279 h -6.75356 v -0.1228 l 4.6661,-2.03952 6.75356,-0.29352 v -0.12279 h -5.64843 v -0.1228 l 4.29772,-1.92156 5.64843,-0.2887 v -0.12279 h -4.5433 v -0.12279 l 4.17493,-1.79403 6.01681,-0.29343 v -0.12279 h -4.91168 v -0.1228 l 4.05213,-1.7675 5.64844,-0.31996 v -0.1228 h -4.54331 v -0.12279 l 4.05214,-1.67124 4.05214,-0.17064 v -0.12279 h -3.31539 v -0.12279 c 2.43657,-0.94506 4.36188,-1.47321 6.99915,-1.47351 v -0.12279 h -2.70143 c 0.80527,-1.21886 3.14943,-1.29368 4.42052,-1.59629 l -0.36838,-0.24559 c 1.2512,-0.65944 2.7794,-1.15517 4.17493,-1.38094 0.58045,-0.0939 1.30312,-0.14595 1.6648,0.42618 0.58012,0.91766 0.10415,2.30493 -0.0586,3.28781 -0.43406,2.62054 -0.87057,5.23963 -1.30979,7.85869 -1.75709,10.47761 -3.41688,20.96768 -5.23875,31.43477 -0.4626,2.65777 -0.54478,6.31729 -1.8107,8.71634 -0.80561,1.52671 -3.23812,0.77495 -3.92983,-0.48927 m 24.64028,-43.55026 0.0819,0.0409 -0.0819,-0.0409 m -35.69156,14.32575 c -0.66923,0.95003 -1.62137,1.63105 -2.435,2.44665 -2.97719,2.9844 -6.88586,6.00099 -8.97946,9.70976 -0.79056,1.40048 -0.81874,3.21995 -1.00658,4.78889 -0.30755,2.56872 -0.85226,5.14944 -0.96329,7.7359 h -0.1228 c -1.61572,-4.21979 -2.7882,-8.98255 -3.80655,-13.38433 l 13.50713,-8.84756 3.80655,-2.44931 m -10.31453,15.96297 c 0.94807,0.87064 2.02934,1.64573 3.0698,2.40373 0.38339,0.27931 1.17629,0.6761 1.30827,1.16822 0.15215,0.56732 -0.83465,1.15723 -1.18548,1.46868 -1.3691,1.21539 -2.87441,3.03594 -4.54331,3.8004 l 0.85339,-5.89402 0.49733,-2.94701 m 45.92423,7.98148 0.12279,0.12279 -0.12279,-0.12279 m -1.76002,3.7247 0.0819,0.0409 z"
       id="path8" /></g></svg>
