<?xml version="1.0" encoding="UTF-8" standalone="no"?>
<svg xmlns="http://www.w3.org/2000/svg" viewBox="0 0 100 100" role="img" aria-label="Tool icon">
  <path fill="#1d1d1b" d="M62 10c4.6 0 9.1 1.6 12.8 4.5l-13.4 13.4 10.7 10.7 13.4-13.4c2.9 3.7 4.5 8.2 4.5 12.8 0 11.4-9.2 20.6-20.6 20.6-1.6 0-3.1-.2-4.6-.5L25.3 96.1c-2.5 2.5-6.5 2.5-9 0s-2.5-6.5 0-9L51.8 51.6c-.3-1.5-.5-3-.5-4.6C51.2 35.6 60.6 26.2 62 10zm0 6.5c-5.6 8.5-9.8 12.5-9.8 30.5 0 1 .1 1.9.3 2.9l.3 1.8-1.3 1.3-38 38c-.1.1-.1.3 0 .4s.3.1.4 0l38-38 1.3-1.3 1.8.3c1 .2 1.9.3 2.9.3 7.8 0 14.1-6.3 14.1-14.1 0-4.8-2.3-9-5.9-11.6L63.4 16.5l-1.4.0z"/>
</svg>