<?xml version="1.0" encoding="UTF-8" standalone="no"?>
<!-- Created with Inkscape (http://www.inkscape.org/) -->

<svg
   width="93.440552mm"
   height="100mm"
   viewBox="0 0 93.440552 100"
   version="1.1"
   id="svg1"
   xml:space="preserve"
   inkscape:version="1.4.2 (f4327f4, 2025-05-13)"
   sodipodi:docname="hand-drawn-icons.svg"
   xmlns:inkscape="http://www.inkscape.org/namespaces/inkscape"
   xmlns:sodipodi="http://sodipodi.sourceforge.net/DTD/sodipodi-0.dtd"
   xmlns="http://www.w3.org/2000/svg"
   xmlns:svg="http://www.w3.org/2000/svg"><sodipodi:namedview
     id="namedview1"
     pagecolor="#ffffff"
     bordercolor="#000000"
     borderopacity="0.25"
     inkscape:showpageshadow="2"
     inkscape:pageopacity="0.0"
     inkscape:pagecheckerboard="0"
     inkscape:deskcolor="#d1d1d1"
     inkscape:document-units="mm"
     inkscape:zoom="0.27015116"
     inkscape:cx="-3535.0579"
     inkscape:cy="760.68523"
     inkscape:window-width="2560"
     inkscape:window-height="1494"
     inkscape:window-x="-11"
     inkscape:window-y="-11"
     inkscape:window-maximized="1"
     inkscape:current-layer="layer1"><inkscape:page
       x="0"
       y="0"
       width="93.440552"
       height="100"
       id="page2"
       margin="0"
       bleed="0" /></sodipodi:namedview><defs
     id="defs1" /><g
     inkscape:label="Layer 1"
     inkscape:groupmode="layer"
     id="layer1"
     transform="translate(1582.2941,224.23751)"><path
       style="fill:#000000;stroke-width:0.739195"
       d="m -1570.008,-124.42013 c -1.1523,-0.32569 -2.5853,-1.16836 -3.1004,-1.82317 -0.5124,-0.65133 -0.8457,-1.86601 -0.6523,-2.37711 0.082,-0.21572 1.9596,-2.40373 4.1735,-4.86222 7.1636,-7.95527 14.7723,-16.91441 21.8594,-25.73916 1.9653,-2.44718 3.6527,-4.44941 3.7497,-4.44941 0.097,0 0.3337,0.16044 0.5261,0.35652 1.1297,1.15108 4.765,1.763 6.8302,1.1497 2.0487,-0.60842 3.6807,-2.03049 4.6463,-4.04874 0.5612,-1.17304 0.6081,-1.42992 0.6081,-3.32484 0,-1.94689 -0.035,-2.12271 -0.6678,-3.38452 -0.7821,-1.55883 -2.1464,-2.88822 -3.7327,-3.6373 -0.9602,-0.45342 -1.3066,-0.50699 -3.227,-0.49897 -1.8931,0.008 -2.2805,0.0695 -3.2271,0.51346 -2.4639,1.15556 -4.1851,3.07942 -4.9202,5.49974 -0.3813,1.25533 -0.4074,1.6546 -0.2919,4.45658 l 0.1268,3.07771 -3.5517,4.36974 c -3.821,4.70102 -9.1897,11.05003 -11.8815,14.05089 -4.5551,5.07822 -12.6613,13.44942 -13.3869,13.82465 -0.7686,0.39745 -2.5815,0.38002 -3.5732,-0.0344 -1.2797,-0.5347 -2.2238,-1.67727 -2.2238,-2.69129 0,-0.25274 -0.1056,-0.56516 -0.2347,-0.69423 -0.1826,-0.18254 -0.1811,-0.2347 0.01,-0.2347 0.1769,0 0.2064,-0.26357 0.1106,-0.98594 -0.1193,-0.89909 -0.08,-1.04984 0.4518,-1.71131 2.8174,-3.50825 7.6448,-9.92093 7.5653,-10.04969 -0.055,-0.0887 0.015,-0.16454 0.1563,-0.16858 0.1408,-0.004 1.6202,-1.86082 3.2875,-4.12621 1.6673,-2.26538 3.4222,-4.57234 3.9,-5.1266 1.4254,-1.65401 4.0154,-4.15433 5.2358,-5.05458 l 1.1422,-0.84262 -0.1373,-0.8801 c -0.4048,-2.59615 -0.042,-11.07747 0.6183,-14.47282 0.1151,-0.59162 0.2142,-1.49463 0.2201,-2.00667 0.01,-0.91514 0.036,-0.95138 1.4589,-2.12878 0.8549,-0.70707 1.4481,-1.34726 1.4481,-1.56264 0,-0.24658 0.1426,-0.36636 0.44,-0.36953 0.2717,-0.003 1.6752,-1.0191 3.6671,-2.65501 7.2569,-5.95998 15.6429,-12.26458 21.4854,-16.15274 1.7904,-1.19152 3.4032,-2.29484 3.584,-2.45181 0.3046,-0.26453 0.2802,-0.37351 -0.333,-1.48977 -2.5266,-4.59917 -2.9597,-9.89554 -1.2725,-15.56079 0.462,-1.55136 0.7036,-1.81153 1.157,-1.24611 0.1734,0.21636 1.1511,0.94559 2.1724,1.62053 3.7642,2.48733 6.3221,4.51831 14.2783,11.33668 6.788,5.81735 17.0926,14.35294 19.6673,16.29109 2.2624,1.70308 3.0786,2.7127 2.9846,3.69198 -0.053,0.55479 -0.1948,0.71791 -0.9428,1.08664 -1.1934,0.58829 -3.7163,1.35935 -5.3669,1.6402 -2.1003,0.35737 -5.8557,0.12451 -8.2257,-0.51007 -1.0757,-0.28802 -2.1356,-0.56587 -2.3553,-0.61745 -0.3512,-0.0825 -0.6695,0.46677 -2.6403,4.55584 -2.9677,6.15777 -6.6421,13.30712 -10.8119,21.03744 -5.0497,9.36137 -5.826,10.74389 -6.0706,10.8098 -0.1223,0.033 -1.1025,0.33404 -2.1781,0.66906 -4.0911,1.27413 -8.546,2.1237 -13.3971,2.55488 l -2.4448,0.2173 -2.0195,1.99967 c -5.6631,5.60775 -14.0377,14.78786 -17.8817,19.60175 -1.4913,1.86761 -2.595,3.06588 -3.0372,3.29747 -0.8874,0.4648 -2.6246,0.58477 -3.7719,0.2605 z m 6.106,-4.8747 c 1.5436,-1.96122 3.8559,-4.79956 5.1383,-6.3074 3.7062,-4.35785 11.5363,-12.04407 15.0069,-14.73127 0.1779,-0.13765 0.7939,-0.28518 1.3691,-0.32786 1.1707,-0.0868 6.9783,-1.25043 12.5512,-2.51469 l 3.6823,-0.83535 1.7601,-3.31417 c 0.968,-1.82279 3.9646,-7.53866 6.659,-12.70194 2.6944,-5.16327 6.1736,-11.7471 7.7316,-14.63073 1.5581,-2.88363 2.8012,-5.2708 2.7625,-5.30482 -0.038,-0.034 -1.0823,-0.56417 -2.3193,-1.1781 -5.6175,-2.78787 -12.631,-8.3469 -16.1121,-12.77072 l -1.1161,-1.41834 -2.651,2.29844 -2.6511,2.29844 2.7086,0.0978 c 2.2337,0.0806 2.7085,0.14922 2.7085,0.39115 0,0.24524 -0.5385,0.30942 -3.2821,0.39116 l -3.2822,0.0978 -1.5541,1.27126 -1.5543,1.27126 3.3203,0.1137 c 1.8261,0.0625 3.3731,0.1667 3.438,0.23147 0.4233,0.42337 -0.4058,0.53515 -3.9912,0.5381 l -3.8512,0.003 -2.2491,1.77388 c -1.2371,0.97564 -2.2867,1.81116 -2.3326,1.85671 -0.046,0.0455 1.4724,0.0242 3.3737,-0.0476 3.005,-0.11337 3.4572,-0.0919 3.4572,0.16382 0,0.23698 -0.4282,0.3189 -2.2003,0.42101 -1.2102,0.0697 -2.9484,0.12943 -3.8627,0.13267 l -1.6624,0.006 -2.2972,1.72958 -2.2971,1.72959 5.0352,0.13444 c 5.3246,0.14217 6.3066,0.22823 6.3066,0.55277 0,0.13573 -2.004,0.16999 -6.1546,0.10521 l -6.1547,-0.096 -2.3481,1.7095 c -2.7456,1.99893 -2.7776,1.94143 1.0826,1.94545 3.9369,0.004 7.9029,0.23281 7.9029,0.45571 0,0.1305 -2.0613,0.15479 -6.1175,0.0721 l -6.1176,-0.12472 -2.2895,1.6089 c -1.7608,1.23732 -2.2903,1.71052 -2.2923,2.04894 0,0.37679 0.1026,0.44155 0.7307,0.45042 1.8185,0.0257 5.9332,0.33257 6.052,0.45135 0.3922,0.39226 -0.4478,0.47768 -3.0695,0.31209 -1.5597,-0.0985 -3.0695,-0.22102 -3.3549,-0.27224 l -0.5192,-0.0931 -0.1405,2.24912 c -0.077,1.23702 -0.098,2.29194 -0.045,2.34426 0.053,0.0523 1.7942,0.15846 3.8708,0.23587 2.5789,0.0961 3.7995,0.21262 3.8508,0.36754 0.1226,0.36981 -2.5281,0.5161 -5.2071,0.28737 -1.3341,-0.11391 -2.5002,-0.16098 -2.5914,-0.10463 -0.091,0.0564 -0.1658,0.83747 -0.1658,1.73579 v 1.63332 l 1.6573,0.13806 c 0.9116,0.0759 2.5377,0.10583 3.6136,0.0665 1.9501,-0.0714 2.5451,0.13307 1.4239,0.48925 -0.7369,0.23412 -4.852,0.21872 -5.8481,-0.0219 l -0.8156,-0.19703 -0.1282,1.58925 c -0.07,0.87408 -0.1,2.16131 -0.064,2.8605 l 0.064,1.27126 2.0047,0.0557 c 1.6049,0.0447 2.0047,0.11287 2.0047,0.34226 0,0.23346 -0.3804,0.28653 -2.0536,0.28653 -1.6042,0 -2.0536,0.0584 -2.0536,0.26682 0,0.28942 -1.569,2.34532 -3.8716,5.07315 -0.7993,0.94697 -1.4214,1.75374 -1.3823,1.79281 0.039,0.0391 1.42,0.15854 3.0688,0.26546 1.6487,0.10693 3.0437,0.24041 3.0999,0.29664 0.056,0.0562 0.037,0.20776 -0.043,0.33673 -0.1088,0.17607 -1.003,0.20189 -3.5889,0.1036 l -3.4439,-0.13089 -1.2302,1.50657 c -1.416,1.73412 -1.387,1.82516 0.583,1.82967 0.7197,0.001 1.3592,0.0849 1.4211,0.18507 0.1912,0.30927 -0.1254,0.34209 -1.9474,0.20188 l -1.7602,-0.13545 -0.4889,0.59046 c -0.269,0.32476 -0.9956,1.25896 -1.6147,2.07601 l -1.1257,1.48555 0.539,0.0559 c 0.2964,0.0308 1.6759,0.11879 3.0656,0.19558 1.877,0.10372 2.5497,0.20887 2.616,0.40889 0.075,0.22498 -0.4698,0.24822 -3.309,0.14129 l -3.3983,-0.12798 -1.3951,2.0391 -1.395,2.0391 0.5883,0.11766 c 0.3235,0.0647 1.2251,0.11766 2.0034,0.11766 1.7904,0 3.2299,0.19392 3.2299,0.43514 0,0.11561 -1.207,0.13901 -3.1782,0.0616 l -3.1782,-0.12476 -0.9336,1.28084 -0.9336,1.28083 h 2.1444 c 1.2187,0 2.1967,0.0844 2.2654,0.19558 0.078,0.12637 -0.738,0.19558 -2.3061,0.19558 h -2.4269 l -1.0088,1.1598 c -1.1495,1.32154 -1.1841,1.27452 1.0967,1.48633 0.78,0.0724 1.418,0.2132 1.418,0.31284 0,0.10804 -0.5329,0.12089 -1.3202,0.0319 -0.726,-0.0821 -1.7147,-0.15059 -2.1969,-0.15212 l -0.8769,-0.003 -0.1729,0.93866 c -0.095,0.51627 -0.1209,0.99062 -0.058,1.05411 0.064,0.0635 0.9099,0.20662 1.8809,0.31807 0.971,0.11145 1.7655,0.28472 1.7655,0.38504 0,0.10033 -0.198,0.13315 -0.4401,0.073 -0.7473,-0.1859 -3.0803,-0.38473 -3.0803,-0.26252 0,0.46835 0.5926,1.20673 1.2292,1.53149 0.6045,0.30836 1.0777,0.37741 2.3008,0.33572 l 1.5399,-0.0525 2.0235,-2.2583 c 8.6795,-9.68677 15.9781,-18.1397 21.6806,-25.10961 l 3.8377,-4.69065 -0.3864,-0.87352 c -1.5326,-3.46454 0.436,-9.09076 4.0511,-11.57796 4.6582,-3.20498 11.2035,-1.599 13.6845,3.3577 1.603,3.20253 1.2977,6.59253 -0.8606,9.55642 -0.9561,1.31289 -2.1278,2.22879 -3.7261,2.91276 -2.1048,0.9007 -5.6538,0.72812 -7.8272,-0.38061 l -0.7119,-0.36324 -1.9401,2.56453 c -7.03,9.29297 -15.6087,19.15819 -23.3411,26.84157 -1.5141,1.50451 -2.7529,2.84357 -2.7529,2.97568 0,0.13212 -0.176,0.33442 -0.3912,0.44956 -0.6332,0.33891 -0.4932,1.12876 0.3393,1.91387 1.1121,1.04889 2.0644,1.40169 3.797,1.40667 l 1.496,0.004 z m 2.2199,-30.66038 c 0.067,-0.10757 0.8638,-0.19557 1.7718,-0.19557 0.9702,0 1.6508,0.0806 1.6508,0.19557 0,0.116 -0.7209,0.19558 -1.7717,0.19558 -1.1314,0 -1.728,-0.0707 -1.6509,-0.19558 z m 66.0681,-29.74384 c 2.4662,-0.3708 5.2117,-1.31532 5.7625,-1.98239 0.2711,-0.32839 -0.085,-0.61342 -7.2896,-5.83231 -1.8287,-1.32467 -4.9971,-3.78457 -7.0409,-5.46644 -2.0438,-1.68187 -6.1802,-5.02543 -9.1921,-7.43014 -6.4648,-5.16142 -10.028,-8.18548 -12.7281,-10.80198 l -1.9711,-1.91019 -0.4571,2.58912 c -1.7006,9.63329 0.8497,14.70387 11.538,22.94091 8.1576,6.28664 15.0759,8.84104 21.3784,7.89342 z"
       id="path13" /></g></svg>
