<?xml version="1.0" encoding="UTF-8" standalone="no"?>
<!-- Created with Inkscape (http://www.inkscape.org/) -->

<svg
   width="75.924057mm"
   height="71.4375mm"
   viewBox="0 0 75.924059 71.437501"
   version="1.1"
   id="svg1"
   xml:space="preserve"
   inkscape:version="1.4.4 (dcaf3e7d9e, 2026-05-05)"
   sodipodi:docname="aurabackendthemebanner1.svg"
   xmlns:inkscape="http://www.inkscape.org/namespaces/inkscape"
   xmlns:sodipodi="http://sodipodi.sourceforge.net/DTD/sodipodi-0.dtd"
   xmlns="http://www.w3.org/2000/svg"
   xmlns:svg="http://www.w3.org/2000/svg"><sodipodi:namedview
     id="namedview1"
     pagecolor="#ffffff"
     bordercolor="#000000"
     borderopacity="0.25"
     inkscape:showpageshadow="2"
     inkscape:pageopacity="0.0"
     inkscape:pagecheckerboard="0"
     inkscape:deskcolor="#d1d1d1"
     inkscape:document-units="mm"
     showguides="false"
     inkscape:zoom="0.12018539"
     inkscape:cx="-24291.638"
     inkscape:cy="2096.7606"
     inkscape:window-width="1920"
     inkscape:window-height="1131"
     inkscape:window-x="0"
     inkscape:window-y="0"
     inkscape:window-maximized="1"
     inkscape:current-layer="layer1"><sodipodi:guide
       position="-3985.3398,1603.2994"
       orientation="1,0"
       id="guide49"
       inkscape:locked="false" /><sodipodi:guide
       position="-3768.2734,1603.6721"
       orientation="1,0"
       id="guide50"
       inkscape:locked="false" /><inkscape:page
       x="-5.2629379e-21"
       y="0"
       width="75.924049"
       height="71.4375"
       id="page2"
       margin="0"
       bleed="0" /></sodipodi:namedview><defs
     id="defs1" /><g
     inkscape:label="Layer 1"
     inkscape:groupmode="layer"
     id="layer1"
     transform="translate(894.01503,-4871.7248)"><path
       style="fill:#000000"
       d="m -894.01509,4943.017 c 0,-0.076 6.6041,-7.2821 14.6756,-16.0129 l 14.6757,-15.8741 -5.7637,-7.7335 c -13.5151,-18.1341 -23.1442,-31.0395 -23.3893,-31.3476 -0.2096,-0.2636 2.0409,-0.3293 11.0803,-0.3235 l 11.3433,0.01 9.525,12.8134 c 5.2387,7.0473 9.6106,12.8186 9.7153,12.825 0.1046,0.01 5.5219,-5.762 12.0385,-12.8186 l 11.8483,-12.8303 h 3.2872 3.2873 l -0.5311,0.5953 c -0.2921,0.3275 -6.2957,6.8478 -13.3414,14.4897 -7.0457,7.6418 -12.9713,14.098 -13.168,14.347 -0.4,0.5064 -1.3317,-0.7878 19.6203,27.255 l 11.0208,14.7505 h -11.3177 -11.3177 l -10.481,-14.0323 -10.481,-14.0323 -12.9222,14.0131 -12.9222,14.0131 -3.2411,0.019 c -1.7827,0.011 -3.2412,-0.043 -3.2412,-0.1194 z m 65.8372,-5.1104 c -0.049,-0.122 -10.3274,-13.9333 -22.8419,-30.6916 l -22.7536,-30.4698 h -5.2214 -5.2215 l 7.7498,10.3849 c 4.2623,5.7117 14.5717,19.523 22.9096,30.6917 l 15.1598,20.3067 h 5.1537 c 2.8345,0 5.114,-0.1 5.0655,-0.2219 z"
       id="path377" /></g></svg>
